<?xml version="1.0" encoding="utf-8" ?><svg xmlns="http://www.w3.org/2000/svg" xmlns:xlink="http://www.w3.org/1999/xlink" width="1024" height="1024" viewBox="0 0 1024 1024"><path fill="#FEFEFE" d="M0 0L770.006 0L943.509 0L1024 0L1024 1012.47L1024 1024L0 1024L0 1012.42L0 579.947L0 475.731L0 0Z"/><path fill="#4F4E57" d="M0 579.947C4.78154 601.516 11.8807 605.701 26.2853 621.894L73.5478 674.571C78.9979 679.69 83.574 685.144 88.7667 690.329C94.1769 689.94 114.633 690.709 117.353 688.945C134.26 703.09 147.234 712.068 169.188 718.11C191.573 712.684 204.359 703.57 221.412 689.297C225.355 690.369 249.937 689.946 255.539 689.964C258.439 685.436 263.078 678.439 266.468 674.384C267.026 700.22 269.994 728.317 270.8 754.819C273.016 814.792 270.259 874.845 262.557 934.362L214.014 934.528L201.474 934.479L201.434 947.734C204.66 948.235 209.64 948.01 213.061 947.965C213.108 952.924 213.347 959.287 213.05 964.138C212.715 967.161 212.808 970.056 212.785 973.086C212.685 986.344 213.052 999.652 212.853 1012.9L152.365 1012.88C148.331 1012.88 128.333 1012.67 125.664 1013.18L125.21 1014.1C124.137 1014.45 30.9075 1014.83 27.7457 1014.21L27.3938 1013.21C23.8577 1011.85 5.07571 1012.39 0 1012.42L0 579.947Z"/><path fill="#FEFEFE" d="M0 579.947C4.78154 601.516 11.8807 605.701 26.2853 621.894L73.5478 674.571C73.3494 685.057 71.87 698.053 71.0459 708.718C69.9444 723.123 69.1734 737.551 68.7336 751.992C67.5025 799.084 68.9315 846.209 73.0136 893.141C73.4079 897.887 76.4473 931.15 77.5414 934.448L124.324 934.476L137.547 934.506L137.505 948.04L126.229 947.959L125.554 948.389L125.508 989.349C125.501 996.915 125.255 1005.79 125.664 1013.18L125.21 1014.1C124.137 1014.45 30.9075 1014.83 27.7457 1014.21L27.3938 1013.21C23.8577 1011.85 5.07571 1012.39 0 1012.42L0 579.947Z"/><path fill="#2E2D40" d="M124.324 934.476L137.547 934.506L137.505 948.04L126.229 947.959L125.554 948.389L125.508 989.349C125.501 996.915 125.255 1005.79 125.664 1013.18L125.21 1014.1C124.137 1014.45 30.9075 1014.83 27.7457 1014.21L27.3938 1013.21C31.1937 1000.79 37.3829 998.806 48.1074 993.543C54.914 990.202 62.314 986.728 68.9907 983.163L68.9241 948.511L57.1961 948.415C57.1839 943.836 57.3452 939.038 57.428 934.442L77.5414 934.448L124.324 934.476Z"/><path fill="#4F4E57" d="M125.554 948.389C114.63 948.763 102.854 948.447 91.8693 948.55C86.4553 948.601 73.7446 948.822 69.1265 947.981L69.229 947.57C72.3719 946.64 79.617 946.226 82.7337 946.563C89.2968 947.272 122.447 945.062 126.229 947.959L125.554 948.389Z"/><path fill="#FEFEFE" d="M157.215 737.961L181.364 737.945C186.365 777.6 192.306 817.13 199.181 856.503C202.194 874.594 205.553 892.626 209.258 910.589C210.779 918.28 212.233 927.023 214.014 934.528L201.474 934.479L201.434 947.734C204.66 948.235 209.64 948.01 213.061 947.965C213.108 952.924 213.347 959.287 213.05 964.138C212.715 967.161 212.808 970.056 212.785 973.086C212.685 986.344 213.052 999.652 212.853 1012.9L152.365 1012.88C148.331 1012.88 128.333 1012.67 125.664 1013.18C125.255 1005.79 125.501 996.915 125.508 989.349L125.554 948.389L126.229 947.959L137.505 948.04L137.547 934.506L124.324 934.476C131.379 899.213 137.862 863.839 143.772 828.367C147.049 809.619 149.992 790.814 152.599 771.962C154.159 761.232 156.176 748.667 157.215 737.961Z"/><path fill="#6C63FF" d="M0 475.731C1.4667 471.809 3.7426 458.319 5.47978 452.26C13.8974 422.899 25.549 394.003 45.5953 370.513C47.3931 368.627 49.5328 366.102 52.4626 366.318C75.4299 368.017 71.425 390.683 71.4116 405.521L71.5044 449.785L74.9293 449.274C112.792 441.028 144.822 423.679 169.688 393.359C189.945 416.279 211.723 433.115 240.973 443.695C248.497 446.417 257.144 448.128 264.99 449.874L268.475 450.424C280.228 451.749 291.419 452.4 303.223 452.667C304.61 452.699 306.249 453.325 307.48 453.982C310 457.826 307.692 471.182 307.152 476.417C305.468 492.767 303.422 509.268 300.071 525.369C287.731 584.668 266.219 646.541 221.412 689.297C204.359 703.57 191.573 712.684 169.188 718.11C147.234 712.068 134.26 703.09 117.353 688.945C114.633 690.709 94.1769 689.94 88.7667 690.329C83.574 685.144 78.9979 679.69 73.5478 674.571L26.2853 621.894C11.8807 605.701 4.78154 601.516 0 579.947L0 475.731Z"/><path fill="#2E2D40" d="M0 475.731C1.4667 471.809 3.7426 458.319 5.47978 452.26C13.8974 422.899 25.549 394.003 45.5953 370.513C47.3931 368.627 49.5328 366.102 52.4626 366.318C75.4299 368.017 71.425 390.683 71.4116 405.521L71.5044 449.785C59.8993 453.212 44.3154 452.194 32.1022 453.026C30.4234 466.065 33.2247 485.627 35.0622 498.752C44.3753 565.272 67.2751 641.433 117.353 688.945C114.633 690.709 94.1769 689.94 88.7667 690.329C83.574 685.144 78.9979 679.69 73.5478 674.571L26.2853 621.894C11.8807 605.701 4.78154 601.516 0 579.947L0 475.731Z"/><path fill="#FEFEFE" d="M170.347 420.405C171.575 421.805 172.825 423.185 174.099 424.543C193.831 445.452 225.03 461.794 252.992 467.556C265.112 470.053 275.84 470.888 288.112 471.23C287.535 482.937 285.46 496.39 283.523 507.984C272.04 576.721 240.774 670.249 169.386 697.289C156.555 692.952 144.835 686.241 134.607 677.378C78.0871 628.401 57.6443 543.037 51.4297 472.011C83.5812 471.938 116.754 461.06 143.385 443.067C153.319 436.355 161.758 428.709 170.347 420.405Z"/><path fill="#6C63FF" d="M169.515 504.078C183.172 513.4 194.027 516.977 209.902 519.654C209.47 556.044 201.211 588.584 169.577 610.127C166.484 609.774 159.473 603.238 157.323 601.03C134.329 577.408 129.623 550.714 129.088 519.652C144.744 517.379 156.351 513.294 169.515 504.078Z"/><path fill="#E4E4E4" d="M770.006 0L943.509 0C946.776 2.602 947.874 3.44113 949.964 7.22038C950.44 22.0931 949.693 37.4481 950.099 52.4239C950.697 58.0896 950.188 74.8186 950.198 81.3485L949.971 150.467L950.379 219.58C950.392 227.977 950.887 246.69 949.333 253.944C946.6 256.809 945.526 256.662 941.44 256.698C926.46 256.83 911.438 256.757 896.454 256.74L817.172 256.737L756.343 256.763C745.628 256.806 734.85 256.961 724.13 256.922C722.534 256.916 716.447 256.475 715.279 255.554C713.366 254.046 713.109 250.846 713.109 248.521C713.111 236.061 713.371 223.613 713.332 211.14C712.964 182.977 712.855 154.812 713.005 126.647L712.983 83.952C712.967 77.6628 712.636 71.2926 712.876 65.0149C712.933 63.5201 712.884 61.5106 713.889 60.3312C716.149 57.6804 720.143 57.4069 723.372 57.367C728.113 57.3085 764.581 58.6332 766.018 56.5759C766.113 56.4409 766.148 56.2732 766.213 56.1219L766.009 27.2448C765.947 17.4453 764.315 8.35255 770.006 0Z"/><path fill="#6C63FF" d="M770.006 0L943.509 0C946.776 2.602 947.874 3.44113 949.964 7.22038C950.44 22.0931 949.693 37.4481 950.099 52.4239C950.037 55.0097 950.523 55.5018 949.223 56.9216C945.385 57.3405 937.374 57.1109 933.29 57.1121L902.92 57.1146L802.696 57.0835C798.344 57.0781 767.965 57.8238 766.253 56.4837L766.213 56.1219L766.009 27.2448C765.947 17.4453 764.315 8.35255 770.006 0Z"/><path fill="#6C63FF" d="M831.994 103.956C845.893 114.55 856.087 118.368 872.861 121.807C872.752 127.069 872.524 132.327 872.178 137.578C870.395 161.121 863.469 184.036 847.603 202.013C843.131 207.08 838.416 210.96 833.302 215.335C832.42 215.848 832.787 215.681 831.662 215.724C828.33 213.84 824.7 210.081 821.941 207.263C797.138 181.922 792.97 154.515 792.951 121.168C806.674 119.383 821.175 112.511 831.994 103.956Z"/><path fill="#E4E4E4" d="M527.687 619.339L535.553 619.367L535.428 860.458L535.439 963.26C535.451 979.219 534.99 996.568 535.49 1012.37C622.828 1013.74 710.724 1011.07 798.133 1012.49C807.784 1012.65 817.833 1012.6 827.49 1012.42L827.53 958.609C830.105 958.649 832.893 958.742 835.45 958.713C835.459 973.294 834.738 998.718 835.911 1012.29C856.232 1012.96 879.025 1012.48 899.498 1012.48L1024 1012.47L1024 1024L0 1024L0 1012.42C5.07571 1012.39 23.8577 1011.85 27.3938 1013.21L27.7457 1014.21C30.9075 1014.83 124.137 1014.45 125.21 1014.1L125.664 1013.18C128.333 1012.67 148.331 1012.88 152.365 1012.88L212.853 1012.9C213.052 999.652 212.685 986.344 212.785 973.086C212.808 970.056 212.715 967.161 213.05 964.138C213.347 959.287 213.108 952.924 213.061 947.965C209.64 948.01 204.66 948.235 201.434 947.734L201.474 934.479L214.014 934.528L262.557 934.362C269.234 934.443 275.912 934.442 282.59 934.36L282.48 948.051C278.497 948.772 275.449 948.212 271.625 948.349C271.457 960.241 271.432 972.134 271.549 984.026C278.723 986.731 285.7 989.332 292.586 992.721C303.306 997.996 309.288 1000.83 312.646 1012.95C316.111 1011.99 346.176 1012.59 351.791 1012.55L470.505 1012.52C487.847 1012.52 510.496 1013.16 527.54 1012.29L527.687 619.339Z"/><path fill="#2E2D40" d="M214.014 934.528L262.557 934.362C269.234 934.443 275.912 934.442 282.59 934.36L282.48 948.051C278.497 948.772 275.449 948.212 271.625 948.349C271.457 960.241 271.432 972.134 271.549 984.026C278.723 986.731 285.7 989.332 292.586 992.721C303.306 997.996 309.288 1000.83 312.646 1012.95L312.291 1013.93C310.559 1014.99 293.225 1014.64 290.099 1014.66L213.457 1014.56C213.568 998.428 212.839 979.877 213.504 964.028L213.05 964.138C213.347 959.287 213.108 952.924 213.061 947.965C209.64 948.01 204.66 948.235 201.434 947.734L201.474 934.479L214.014 934.528Z"/><path fill="#2E2D40" d="M214.014 934.528L262.557 934.362C269.234 934.443 275.912 934.442 282.59 934.36L282.48 948.051C278.497 948.772 275.449 948.212 271.625 948.349C262.383 948.872 250.843 948.585 241.431 948.57C232.852 948.556 222.003 948.838 213.62 948.369C213.643 952.997 213.867 959.56 213.504 964.028L213.05 964.138C213.347 959.287 213.108 952.924 213.061 947.965C209.64 948.01 204.66 948.235 201.434 947.734L201.474 934.479L214.014 934.528Z"/><path fill="#4F4E57" d="M201.434 947.734C226.965 946.959 257.183 945.94 282.48 948.051C278.497 948.772 275.449 948.212 271.625 948.349C262.383 948.872 250.843 948.585 241.431 948.57C232.852 948.556 222.003 948.838 213.62 948.369C213.643 952.997 213.867 959.56 213.504 964.028L213.05 964.138C213.347 959.287 213.108 952.924 213.061 947.965C209.64 948.01 204.66 948.235 201.434 947.734Z"/><path fill="#4F4E57" d="M197.839 190.91C201.049 189.759 233.333 177.441 235.083 184.119C236.26 188.608 228.482 202.278 225.495 205.994C225.36 206.193 226.138 208.06 226.426 208.6C230.544 218.106 233.242 223.762 235.267 234.043C237.188 243.795 235.07 251.083 235.681 259.901L242.095 341.95C231.114 341.138 214.58 341.578 203.154 341.529L121.74 341.586C114.345 341.59 96.6193 342.462 90.2417 341.936C92.1192 341.562 95.1525 341.584 97.1557 341.53C98.7278 323.632 100.514 305.753 102.513 287.897C103.571 278.279 104.847 268.566 105.258 258.906C105.343 256.907 103.754 253.014 103.638 250.192C104.105 248.013 104.916 241.216 105.299 240.112C106.698 226.314 109.678 220.023 115.256 207.707L114.34 206.486C110.76 202.508 98.6944 186.959 104.816 182.263C111.934 181.295 131.168 188.357 138.564 191.041C158.252 184.874 178.225 182.586 197.839 190.91Z"/><path fill="#FEFEFE" d="M171.226 241.785C172.408 240.885 185.466 232.847 185.767 232.766C190.505 231.501 222.574 207.455 223.536 207.408L224.171 208.63C233.096 228.363 238.506 245.713 230.133 266.792C217.968 297.418 182.024 318.533 150.274 305.967C132.298 298.965 117.93 284.975 110.451 267.192C105.921 256.662 105.675 251.395 105.299 240.112C106.698 226.314 109.678 220.023 115.256 207.707C117.021 208.11 133.115 220.653 136.356 222.901C141.947 226.759 147.639 230.468 153.427 234.023C156.341 235.808 164.572 240.28 166.592 242.295C168.505 242.586 169.361 242.233 171.226 241.785Z"/><path fill="#2E2D40" d="M171.226 241.785C180.087 245.158 179.855 249.099 179.756 257.743C179.656 266.425 172.013 296.075 162.327 274.148C159.262 267.211 156.757 251.96 161.874 245.485C163.079 243.959 164.728 242.844 166.592 242.295C168.505 242.586 169.361 242.233 171.226 241.785Z"/><path fill="#020201" d="M190.845 241.925C191.331 242.288 194.542 245.456 195.297 246.046C207.501 255.587 214.072 243.589 218.055 243.178C218.766 244.433 218.543 243.727 218.156 245.546C204.806 259.204 187.675 248.18 190.845 241.925Z"/><path fill="#020201" d="M121.617 241.698C125.457 242.376 128.128 248.856 134.116 250.066C139.45 251.143 143.836 247.136 148.365 243.879L149.189 244.017L149.756 245.367C145.735 249.282 143.206 251.551 137.261 252.328C131.068 253.137 121.788 248.551 121.617 241.698Z"/><path fill="#2E2D40" d="M90.2417 341.936C96.6193 342.462 114.345 341.59 121.74 341.586L203.154 341.529C214.58 341.578 231.114 341.138 242.095 341.95C259.348 342.339 271.507 349.502 283.452 361.766C260.634 364.89 264.839 384.623 264.868 402.147L264.99 449.874C257.144 448.128 248.497 446.417 240.973 443.695C211.723 433.115 189.945 416.279 169.688 393.359C144.822 423.679 112.792 441.028 74.9293 449.274C74.723 428.938 75.2715 408.539 74.9938 388.202C74.7808 372.603 67.9743 366.027 53.4376 362.502C62.5535 352.721 76.5106 342.91 90.2417 341.936Z"/><path fill="#2E2D40" d="M268.475 450.424L268.578 401.6C268.581 394.356 268.2 385.28 268.86 378.468C269.503 371.828 277.509 364.52 284.067 364.731C287.302 364.834 290.296 367.075 292.333 369.614C308.895 390.045 320.84 413.286 329.022 438.226C341.769 477.077 348.854 516.404 346.993 557.336C345.258 595.507 327.03 609.062 303.03 634.924L266.468 674.384C263.078 678.439 258.439 685.436 255.539 689.964C249.937 689.946 225.355 690.369 221.412 689.297C266.219 646.541 287.731 584.668 300.071 525.369C303.422 509.268 305.468 492.767 307.152 476.417C307.692 471.182 310 457.826 307.48 453.982C306.249 453.325 304.61 452.699 303.223 452.667C291.419 452.4 280.228 451.749 268.475 450.424Z"/><path fill="#020201" d="M114.34 206.486L115.256 207.707C109.678 220.023 106.698 226.314 105.299 240.112C104.916 241.216 104.105 248.013 103.638 250.192C101.93 233.456 106.342 220.824 114.34 206.486Z"/><path fill="#E4E4E4" d="M765.992 749.159C765.97 741.568 764.545 699.995 767.758 696.321C769.048 694.846 770.714 693.925 772.641 693.667C778.365 692.899 784.641 693.402 790.438 693.4L825.851 693.368L938.836 693.14C941.578 693.152 944.586 693.104 947.291 693.325C949.54 694.937 951.897 696.291 952.184 699.172C952.738 704.745 952.491 710.971 952.455 716.582C952.338 727.519 952.318 738.457 952.396 749.394C952.759 761.284 952.484 774.627 952.487 786.607L952.5 855.467L952.515 910.568C952.514 920.486 952.589 930.389 952.369 940.311C952.237 946.246 950.685 949.113 944.177 949.302C938.899 949.455 933.596 949.246 928.311 949.188L902.287 949.113L815.23 949.314L750.384 949.424C740.08 949.449 729.42 949.563 719.105 949.364C716.889 949.321 715.017 948.052 713.405 946.619C712.243 944.172 712.142 940.926 712.139 938.219C712.089 897.57 712.218 856.904 712.327 816.26C712.395 804.268 712.367 792.277 712.243 780.286C712.164 772.436 711.694 764.348 712.356 756.531C712.56 754.125 712.899 751.995 714.921 750.384C718.073 747.872 759.291 748.946 765.992 749.159Z"/><path fill="#6C63FF" d="M765.992 749.159C765.97 741.568 764.545 699.995 767.758 696.321C769.048 694.846 770.714 693.925 772.641 693.667C778.365 692.899 784.641 693.402 790.438 693.4L825.851 693.368L938.836 693.14C941.578 693.152 944.586 693.104 947.291 693.325C949.54 694.937 951.897 696.291 952.184 699.172C952.738 704.745 952.491 710.971 952.455 716.582C952.338 727.519 952.318 738.457 952.396 749.394C944.046 749.89 929.599 749.426 920.822 749.416L858.42 749.356L798.751 749.355C789.144 749.359 775.346 749.784 765.992 749.159Z"/><path fill="#FEFEFE" d="M800.626 839.236C810.879 838.985 886.84 838.534 889.978 840.329C891.373 841.127 892.494 842.327 893.006 843.866C893.855 846.421 893.181 848.97 892.008 851.282C887.889 854.855 872.544 853.374 866.115 853.332C838.51 853.8 810.811 853.102 783.12 853.434C771.454 853.574 768.042 845.869 776.284 840.203C778.403 838.747 796.252 839.284 800.626 839.236Z"/><path fill="#FEFEFE" d="M781.444 877.566C788.705 877.09 798.138 877.393 805.55 877.411L844.966 877.391L868.987 877.38C874.127 877.38 888.797 875.167 884.989 887.008C884.338 889.03 882.888 890.177 881.05 891.296C860.818 892.377 837.576 891.019 816.959 891.534C806.087 891.806 791.445 891.85 780.583 890.985C779.197 890.681 777.361 889.35 776.925 888.002C775.09 882.328 776.892 879.927 781.444 877.566Z"/><path fill="#FEFEFE" d="M809.875 801.564C820.315 800.545 834.969 802.428 844.526 801.383C859.141 799.785 862.821 812.439 853.167 816.89C841.18 818.396 827.328 816.57 815.425 817.305C802.492 818.104 801.392 806.051 809.875 801.564Z"/><path fill="#E4E4E4" d="M460.551 406.869L460.641 375.166C460.618 369.256 460.447 363.356 460.643 357.437C460.79 353 461.891 349.264 467.006 348.961C472.496 348.635 478.097 348.807 483.602 348.833C493.865 348.916 504.128 348.935 514.391 348.891C557.641 348.694 602.134 349.594 645.203 348.734C648.045 350.665 648.748 351.423 650.493 354.381L650.503 406.629L650.561 541.75L650.579 581.451C650.58 588.099 650.759 595.392 650.236 602.017C650.103 603.705 648.786 604.924 647.497 605.912C646.262 606.86 643.189 607.104 641.612 607.098C626.131 607.041 610.646 606.929 595.163 606.945L474.463 606.841L436.621 606.746C412.044 606.742 413.46 609.431 413.494 584.986L413.499 552.393C413.254 517.526 413.23 482.657 413.429 447.789C413.456 440.732 412.774 415.285 414.216 409.759C420.465 404.265 450.312 409.123 460.551 406.869Z"/><path fill="#6C63FF" d="M460.551 406.869L460.641 375.166C460.618 369.256 460.447 363.356 460.643 357.437C460.79 353 461.891 349.264 467.006 348.961C472.496 348.635 478.097 348.807 483.602 348.833C493.865 348.916 504.128 348.935 514.391 348.891C557.641 348.694 602.134 349.594 645.203 348.734C648.045 350.665 648.748 351.423 650.493 354.381L650.503 406.629L528.28 406.528C507.794 406.536 480.578 405.807 460.551 406.869Z"/><path fill="#FEFEFE" d="M470.333 496.689C483.408 496.203 586.723 495.541 591.184 497.157C592.607 497.673 593.605 499.098 594.2 500.427C595.013 502.242 595.163 504.214 594.416 506.078C593.504 508.352 592.108 509.514 589.899 510.438C584.105 510.715 578.459 510.705 572.666 510.644C540.005 510.301 507.334 510.775 474.674 510.447C470.475 510.421 465.803 509.82 464.794 504.892C463.797 500.022 465.838 497.724 470.333 496.689Z"/><path fill="#FEFEFE" d="M478.442 534.55C500.292 533.869 523.523 534.843 545.632 534.545C557.97 535.015 571.136 533.733 583.311 535.308C588.527 535.983 590.113 545.433 583.544 547.469C573.896 548.386 563.181 547.911 553.408 547.961C529.82 548.082 506.191 547.944 482.605 547.969C471.221 547.981 470.851 538.989 478.442 534.55Z"/><path fill="#FEFEFE" d="M513.623 459.743C521.778 459.802 548.918 457.909 554.519 461.36C556.214 462.405 557.282 463.827 557.636 465.797C557.967 467.639 557.08 470.209 555.834 471.574C554.182 473.383 551.956 473.812 549.625 474.003C542.728 474.076 510.886 475.309 506.583 472.633C504.974 471.633 504.014 469.973 503.798 468.116C503.595 466.368 503.821 463.42 505.079 462.101C507.242 459.834 510.726 459.891 513.623 459.743Z"/><path fill="#E4E4E4" d="M828.318 267.532L836.145 267.567C836.511 278.124 836.242 290.405 836.232 301.083L835.574 388.57C835.3 447.437 835.415 506.306 835.921 565.173C835.824 603.607 835.979 642.041 836.386 680.473L828.314 680.451L828.318 267.532Z"/><path fill="#E4E4E4" d="M599.784 147.744L701.456 147.64L701.421 154.621L534.544 154.632C533.952 182.946 534.264 212.359 534.338 240.75C534.704 272.166 534.023 304.325 534.049 335.91L527.243 336.293C526.808 321.09 527.054 305.149 527.057 289.883L527.045 212.099L527.03 172.666C527.03 166.088 526.68 154.6 527.725 148.677C531.962 147.442 554.224 147.909 560.561 147.915L599.784 147.744Z"/></svg>