<?xml version="1.0" encoding="utf-8" ?><svg xmlns="http://www.w3.org/2000/svg" xmlns:xlink="http://www.w3.org/1999/xlink" width="1024" height="1024" viewBox="0 0 1024 1024"><path fill="#FEFEFE" d="M0 0L1024 0L1024 847.298L1024 847.707L1024 953.806L1024 960.964L1024 1024L0 1024L0 960.916L0 953.952L0 0Z"/><path fill="#FEFEFE" d="M145.618 240.165C144.589 238.563 141.861 234.63 141.743 232.872C140.714 217.496 141.146 202.033 141.416 186.615C141.594 176.475 140.914 165.462 142.046 155.413C143.323 150.198 147.413 144.846 151.964 142.087C155.997 139.642 161.392 139.057 166.033 139.034C207.975 138.83 249.93 139.638 291.868 139.534L654.117 138.984L771.573 138.96C787.296 138.941 808.231 138.318 823.976 139.715C829.264 140.184 836.152 149.936 835.639 154.946C835.828 160.019 835.735 165.114 835.724 170.194L835.825 195.468L835.54 281.49L835.325 623.484C835.273 632.628 836.346 685.884 834.738 690.554C830.546 684.161 821.305 665.113 817.381 657.382L783.864 592.466C777.783 580.671 770.502 567.522 764.921 555.611C741.764 506.181 698.498 476.777 643.402 477.644C642.33 478.636 635.818 489.42 634.363 491.489C627.089 501.688 618.722 511.061 609.411 519.442C572.516 552.141 524.162 568.879 474.946 565.987C421.494 563.039 372.843 539.278 339.971 496.505C336.627 492.222 333.577 487.717 330.84 483.023C328.997 479.83 321.363 464.605 319.861 463.401C264.109 430.551 212.22 386.277 185.689 325.929C179.6 312.078 174.305 297.86 171.164 283.028C176.957 263.552 183.653 241.087 186.257 220.709C187.701 209.406 177.463 203.554 168.185 210.457C158.517 217 151.201 230.102 145.618 240.165Z"/><path fill="#E4E4E4" d="M356.367 286.83C362.509 296.022 365.289 305.066 368.065 315.684C368.66 317.957 370.295 324.798 371.102 326.355C386.793 316.402 407.124 313.499 425.189 317.38C457.045 324.222 481.136 353.96 483.963 385.976C485.367 381.298 486.641 376.139 487.904 371.382C489.891 365.778 491.724 360.605 494.55 355.342C503.93 338.11 519.726 325.271 538.511 319.609C560.002 313.228 578.153 316.545 597.45 326.91C598.039 324.957 598.998 319.231 599.57 316.778C602.134 305.791 605.338 298.214 611.054 288.631C641.118 314.792 659.636 351.766 662.577 391.511C664.576 416.491 660.392 441.579 650.394 464.558C648.651 468.558 646.272 474.518 643.402 477.644C642.33 478.636 635.818 489.42 634.363 491.489C627.089 501.688 618.722 511.061 609.411 519.442C572.516 552.141 524.162 568.879 474.946 565.987C421.494 563.039 372.843 539.278 339.971 496.505C336.627 492.222 333.577 487.717 330.84 483.023C328.997 479.83 321.363 464.605 319.861 463.401C318.835 457.393 315.346 449.78 313.59 443.593C304.271 410.752 306.086 373.566 319.268 342.022C327.269 322.876 340.857 300.627 356.367 286.83Z"/><path fill="#FEFEFE" d="M371.102 326.355C386.793 316.402 407.124 313.499 425.189 317.38C457.045 324.222 481.136 353.96 483.963 385.976C484.243 391.862 484.697 397.681 484.187 403.485C480.047 450.651 428.255 483.327 384.126 465.144C382.868 464.626 376.172 461.831 375.157 461.735C362.601 453.905 356.095 448.735 347.795 436.54C336.004 419.357 331.664 398.137 335.761 377.705C339.27 359.46 347.978 344.289 362.274 332.313C364.684 330.294 368.359 328.226 371.102 326.355Z"/><path fill="#6C63FF" d="M414.071 370.812C425.931 370.568 435.765 379.942 436.089 391.8C436.413 403.658 427.106 413.554 415.25 413.958C403.281 414.366 393.269 404.95 392.942 392.979C392.615 381.007 402.098 371.059 414.071 370.812Z"/><path fill="#FEFEFE" d="M487.904 371.382C489.891 365.778 491.724 360.605 494.55 355.342C503.93 338.11 519.726 325.271 538.511 319.609C560.002 313.228 578.153 316.545 597.45 326.91C663.355 370.12 635.268 469.999 556.717 469.67C541.106 469.604 527.587 463.968 514.691 455.476C510.909 452.975 507.921 449.247 503.866 446.879C502.74 445.446 500.302 441.048 499.254 439.247C498.147 437.601 497.059 435.942 495.991 434.27C493.257 427.759 491.291 420.154 490.721 413.167C489.874 402.779 491.497 380.378 487.904 371.382Z"/><path fill="#6C63FF" d="M544.674 370.249C552.371 368.712 560.3 371.43 565.435 377.365C570.571 383.301 572.121 391.538 569.494 398.934C566.866 406.331 560.467 411.744 552.738 413.11C540.971 415.19 529.721 407.411 527.512 395.667C525.302 383.924 532.955 372.589 544.674 370.249Z"/><path fill="#6C63FF" d="M499.254 439.247C500.302 441.048 502.74 445.446 503.866 446.879C505.944 451.942 508.68 455.95 510.665 460.578C503.043 474.704 494.87 491.542 486.922 505.044C479.878 491.722 472.834 478.897 466.046 465.429C465.401 464.059 464.781 462.822 464.286 461.384C473.807 460.012 491.86 445.269 499.254 439.247Z"/><path fill="#574CEF" d="M474.363 436.229C482.323 430.235 487.211 429.328 495.991 434.27C497.059 435.942 498.147 437.601 499.254 439.247C491.86 445.269 473.807 460.012 464.286 461.384C468.273 452.774 470.769 444.864 474.363 436.229Z"/><path fill="#3E3C55" d="M413.655 261.667C459.243 242.129 510.693 241.337 556.861 259.462C558.487 260.106 560.1 260.786 561.698 261.499C585.496 252.844 614.049 247.853 639.395 253.641C639.921 253.761 640.744 254.524 641.137 254.913C641.603 256.926 641.637 255.951 640.995 257.946C628.5 270.118 622.011 271.976 611.054 288.631C605.338 298.214 602.134 305.791 599.57 316.778C598.998 319.231 598.039 324.957 597.45 326.91C578.153 316.545 560.002 313.228 538.511 319.609C519.726 325.271 503.93 338.11 494.55 355.342C491.724 360.605 489.891 365.778 487.904 371.382C486.641 376.139 485.367 381.298 483.963 385.976C481.136 353.96 457.045 324.222 425.189 317.38C407.124 313.499 386.793 316.402 371.102 326.355C370.295 324.798 368.66 317.957 368.065 315.684C365.289 305.066 362.509 296.022 356.367 286.83C350.217 277.363 344.113 269.22 335.293 262.155C332.875 260.218 330.145 258.319 329.553 255.266C331.062 250.767 344.146 251.357 348.383 251.281C371.161 250.876 392.144 254.004 413.655 261.667Z"/><path fill="#3E3C55" d="M87.5051 314.975C120.046 317.269 150.339 309.463 171.164 283.028C174.305 297.86 179.6 312.078 185.689 325.929C212.22 386.277 264.109 430.551 319.861 463.401C321.363 464.605 328.997 479.83 330.84 483.023C333.577 487.717 336.627 492.222 339.971 496.505C372.843 539.278 421.494 563.039 474.946 565.987C524.162 568.879 572.516 552.141 609.411 519.442C618.722 511.061 627.089 501.688 634.363 491.489C635.818 489.42 642.33 478.636 643.402 477.644C698.498 476.777 741.764 506.181 764.921 555.611C770.502 567.522 777.783 580.671 783.864 592.466L817.381 657.382C821.305 665.113 830.546 684.161 834.738 690.554C835.883 692.826 835.28 726.722 835.308 731.614C834.75 733.142 810.607 757.818 809.007 758.584C787.294 758.018 765.009 758.777 743.204 758.407C741.95 758.53 741.721 758.454 740.446 758.358C739.244 757.187 732.341 744.318 731.127 742.132C726.448 733.627 721.633 725.198 716.683 716.847C716.196 719.563 716.322 728.095 716.326 731.216L716.405 758.502L321.535 758.459L321.565 674.712C321.559 667.54 321.629 660.368 321.777 653.198C321.852 649.681 322.23 643.118 321.86 639.996L314.092 635.871C301.704 629.15 283.579 616.448 272.292 608.208C191.638 549.331 130.816 469.954 101.817 373.775C95.5202 352.89 90.7259 336.593 87.5051 314.975Z"/><path fill="#2E2D40" d="M716.683 716.847C709.244 704.978 701.306 690.295 694.423 677.924L676.009 645.411L659.515 615.974C657.318 612.132 646.275 595.088 646.628 589.643C646.717 588.282 649.972 587.107 651.769 586.982C653.753 587.792 654.219 588.528 655.261 590.437C678.55 633.15 703.43 674.946 726.646 717.693C728.276 720.695 730.989 724.727 732.294 727.641C736.244 736.459 745.802 749.11 748.692 757.556C746.516 758.284 745.302 757.749 743.204 758.407C741.95 758.53 741.721 758.454 740.446 758.358C739.244 757.187 732.341 744.318 731.127 742.132C726.448 733.627 721.633 725.198 716.683 716.847Z"/><path fill="#2E2D40" d="M314.092 635.871C314.432 627.804 314.54 619.73 314.417 611.658C314.37 606.389 312.262 591.439 319.548 591.489C321.566 592.786 322.474 595.385 322.491 597.672C322.592 611.497 322.886 626.286 321.86 639.996L314.092 635.871Z"/><path fill="#2E2D40" d="M171.75 315.893C173.917 316.123 177.594 317.082 177.567 319.868C177.509 325.877 170.596 329.847 166.234 332.803C152.922 341.825 137.966 346.415 122.111 348.261C118.64 348.032 116.05 346.177 116.166 342.607C116.313 338.118 125.413 338.26 128.594 337.793C131.9 337.278 135.174 336.572 138.399 335.68C145.419 333.8 156.807 328.045 162.55 323.415C165.791 320.801 168.084 318.252 171.75 315.893Z"/><path fill="#E4E4E4" d="M129.488 212.509C129.315 182.073 129.343 151.637 129.57 121.202C129.58 114.41 129.489 107.529 129.434 100.818C129.372 89.4881 127.84 78.7903 136.786 69.9296C142.907 63.8665 148.198 62.589 156.513 62.4091C165.358 62.2176 174.147 62.2566 182.981 62.2604L624.821 62.116L758.782 62.184L802.832 62.1545C812.528 62.1751 826.441 61.0265 835.165 64.6872C842.748 67.8695 848.521 76.6835 848.734 84.8053C849.152 93.1316 848.917 101.614 848.888 109.994L848.808 156.879L849.028 304.378L848.84 572.795C848.811 615.534 849.328 658.325 848.84 701.084C848.804 704.226 848.209 718.245 848.625 720.004C852.514 716.304 871.713 697.933 875.465 697.22L876.113 698.066C881.716 704.471 889.298 711.764 895.445 717.807C926.594 748.418 956.532 780.263 987.663 810.856C999.039 822.034 1012.52 836.848 1024 847.298L1024 847.707L1024 953.806L958.25 953.863C938.947 954.57 915.472 953.839 895.632 953.996C890.975 954.026 877.032 954.323 873.001 953.619C870.143 957.403 868.765 958.562 864.716 961.204L896.173 961.127C900.722 961.119 907.519 960.904 911.873 961.174L911.433 961.499C907.118 961.937 899.239 961.699 894.713 961.699L859.288 961.584L678.894 961.833C673.762 961.8 643.559 962.235 640.374 961.109C639.993 960.207 632.94 954.318 631.93 953.927C630.053 948.123 627.592 941.512 631.783 936.247C636.011 930.937 641.084 926.455 645.896 921.676L670.247 897.241L762.435 805.181C774.641 793.098 787.296 781.422 798.957 768.933C802.328 765.323 805.906 762.535 809.007 758.584C810.607 757.818 834.75 733.142 835.308 731.614C835.28 726.722 835.883 692.826 834.738 690.554C836.346 685.884 835.273 632.628 835.325 623.484L835.54 281.49L835.825 195.468L835.724 170.194C835.735 165.114 835.828 160.019 835.639 154.946C836.152 149.936 829.264 140.184 823.976 139.715C808.231 138.318 787.296 138.941 771.573 138.96L654.117 138.984L291.868 139.534C249.93 139.638 207.975 138.83 166.033 139.034C161.392 139.057 155.997 139.642 151.964 142.087C147.413 144.846 143.323 150.198 142.046 155.413C140.914 165.462 141.594 176.475 141.416 186.615C141.146 202.033 140.714 217.496 141.743 232.872C141.861 234.63 144.589 238.563 145.618 240.165C151.201 230.102 158.517 217 168.185 210.457C177.463 203.554 187.701 209.406 186.257 220.709C183.653 241.087 176.957 263.552 171.164 283.028C150.339 309.463 120.046 317.269 87.5051 314.975C73.0217 304.997 39.1678 252.637 35.7974 233.696C35.1238 229.764 34.958 224.77 37.5111 221.427C38.7794 219.766 40.3384 218.714 42.4286 218.473C50.0326 217.594 54.9609 222.906 59.566 228.056C54.0353 214.514 48.781 206.351 50.1512 191.667C63.0333 172.08 83.0755 203.801 89.9022 213.781C87.5104 205.863 76.2539 175.716 90.1364 170.193C90.9956 169.852 93.0866 169.49 94.0862 169.308C108.314 173.455 121.836 199.629 129.488 212.509Z"/><path fill="#6C63FF" d="M895.445 717.807C926.594 748.418 956.532 780.263 987.663 810.856C999.039 822.034 1012.52 836.848 1024 847.298L1024 847.707L1024 953.806L958.25 953.863C938.947 954.57 915.472 953.839 895.632 953.996C895.213 947.511 895.608 935.544 895.599 928.545L895.534 877.012L895.445 717.807Z"/><path fill="#FEFEFE" d="M916.196 953.531C921.092 948.593 926.788 943.678 931.838 938.744L979.704 891.224L1008.96 862.205C1012.26 858.936 1020.69 850.161 1024 847.707L1024 953.806L958.25 953.863C946.252 953.134 928.633 953.567 916.196 953.531Z"/><path fill="#574CEF" d="M876.113 698.066C881.716 704.471 889.298 711.764 895.445 717.807L895.534 877.012L895.599 928.545C895.608 935.544 895.213 947.511 895.632 953.996C890.975 954.026 877.032 954.323 873.001 953.619C874.29 951.376 875.357 949.717 875.495 947.122C875.983 937.919 875.909 928.45 875.927 919.237L875.997 870.674L876.203 760.678C876.037 739.808 876.007 718.936 876.113 698.066Z"/><path fill="#FEFEFE" d="M173.895 83.2133C183.683 81.4523 193.045 87.9629 194.801 97.7523C196.557 107.542 190.041 116.9 180.251 118.651C170.468 120.4 161.118 113.891 159.363 104.108C157.609 94.3263 164.113 84.973 173.895 83.2133Z"/><path fill="#FEFEFE" d="M237.782 83.2039C247.594 81.7946 256.683 88.6283 258.053 98.4456C259.424 108.263 252.554 117.324 242.732 118.656C232.964 119.981 223.963 113.158 222.6 103.395C221.238 93.6323 228.025 84.6053 237.782 83.2039Z"/><path fill="#FEFEFE" d="M300.272 83.3137C306.574 82.1743 313.002 84.5077 317.106 89.4244C321.209 94.3411 322.356 101.083 320.108 107.08C317.86 113.076 312.564 117.403 306.239 118.411C296.602 119.946 287.526 113.435 285.89 103.815C284.254 94.1941 290.669 85.0501 300.272 83.3137Z"/><path fill="#FEFEFE" d="M873.001 953.619C877.032 954.323 890.975 954.026 895.632 953.996C915.472 953.839 938.947 954.57 958.25 953.863L1024 953.806L1024 960.964L1024 1024L0 1024L0 960.916L0 953.952L422.427 953.987L562.902 953.999L607.066 954.042C614.757 954.056 624.429 954.334 631.93 953.927C632.94 954.318 639.993 960.207 640.374 961.109C643.559 962.235 673.762 961.8 678.894 961.833L859.288 961.584L894.713 961.699C899.239 961.699 907.118 961.937 911.433 961.499L911.873 961.174C907.519 960.904 900.722 961.119 896.173 961.127L864.716 961.204C868.765 958.562 870.143 957.403 873.001 953.619Z"/><path fill="#2E2D40" d="M0 953.952L422.427 953.987L562.902 953.999L607.066 954.042C614.757 954.056 624.429 954.334 631.93 953.927C632.94 954.318 639.993 960.207 640.374 961.109C632.311 960.648 622.263 960.881 614.139 960.874L571.343 960.794L427.15 960.917L0 960.916L0 953.952Z"/><path fill="#2E2D40" d="M873.001 953.619C877.032 954.323 890.975 954.026 895.632 953.996C915.472 953.839 938.947 954.57 958.25 953.863L1024 953.806L1024 960.964L911.873 961.174C907.519 960.904 900.722 961.119 896.173 961.127L864.716 961.204C868.765 958.562 870.143 957.403 873.001 953.619Z"/></svg>