<?xml version="1.0" encoding="utf-8" ?><svg xmlns="http://www.w3.org/2000/svg" xmlns:xlink="http://www.w3.org/1999/xlink" width="1024" height="1024" viewBox="0 0 1024 1024"><path fill="#FEFEFE" d="M0 0L1024 0L1024 1024L0 1024L0 855.324L0 852.143L0 0Z"/><path fill="#3E3C55" d="M116.447 386.411C128.209 397.626 144.938 409.949 157.714 420.463L194.936 450.761C201.21 455.912 208.128 462.251 214.447 467.06C230.702 454.901 248.108 439.331 263.618 425.882C277.722 413.651 295.267 399.877 308.681 387.328C312.483 393.941 318.777 405.393 322.749 411.414C335.142 430.205 360.739 467.471 378.849 479.41C380.631 463.216 387.72 449.903 403.289 443.094C402.726 448.297 388.598 476.945 385.893 482.948C395.369 488.063 403.303 493.534 412.288 498.599C416.073 490.453 423.917 473.329 428.451 465.896C431.295 480.054 425.767 495.489 417.534 507.892C404.144 528.065 374.752 559.02 350.777 565.548C343.815 567.444 335.659 564.425 329.563 561.016L329.589 649.84L329.578 751.61C323.261 751.607 313.81 751.911 307.755 751.541C307.305 754.076 306.845 756.574 306.487 759.126L265.396 759.52C256.757 759.534 244.541 759.168 236.161 759.698C235.824 757.26 235.515 754.819 235.232 752.374L234.527 751.618C230.089 751.051 219.194 751.338 214.377 751.345L176.759 751.421C176.356 753.956 175.953 756.424 175.655 758.976C162.711 760.305 148.641 759.027 135.569 759.516C125.892 759.877 114.935 759.017 105.386 760.296L104.303 751.064C94.8565 750.706 85.7048 750.821 76.264 750.908C76.5722 721.693 76.4927 692.474 76.0254 663.261C70.2396 655.63 63.5222 647.807 58.6295 639.536C46.0288 618.234 38.6867 593.294 36.7522 568.791C31.5298 502.643 75.2318 434.559 116.447 386.411Z"/><path fill="#2E2D40" d="M104.303 751.064C112.234 751.052 173.801 750.364 176.759 751.421C176.356 753.956 175.953 756.424 175.655 758.976C162.711 760.305 148.641 759.027 135.569 759.516C125.892 759.877 114.935 759.017 105.386 760.296L104.303 751.064Z"/><path fill="#2E2D40" d="M235.232 752.374L235.824 751.846C237.732 751.395 258.587 751.437 261.747 751.508C274.678 751.801 295.412 750.106 307.755 751.541C307.305 754.076 306.845 756.574 306.487 759.126L265.396 759.52C256.757 759.534 244.541 759.168 236.161 759.698C235.824 757.26 235.515 754.819 235.232 752.374Z"/><path fill="#E4E4E4" d="M511.743 190.611C536.413 189.463 567.696 190.436 592.756 190.501L731.627 190.521L890.868 190.488L941.667 190.499C950.781 190.498 959.946 190.462 969.06 190.569C972.074 190.605 973.693 191.161 976.168 192.782C978.445 196.617 978.099 204.777 978.019 209.369C977.744 225.191 978.481 241.33 977.591 257.117L637.189 257.179C631.09 257.193 569.685 256.652 567.739 257.337C554.985 232.84 531.598 215.637 504.414 210.756L505.502 210.456C507.705 205.121 502.503 198.529 511.743 190.611Z"/><path fill="#FEFEFE" d="M946.569 217.622C949.494 216.737 952.595 218.328 953.583 221.22C954.571 224.112 953.093 227.267 950.238 228.357C948.298 229.098 946.109 228.721 944.529 227.374C942.95 226.027 942.231 223.925 942.656 221.893C943.081 219.861 944.582 218.223 946.569 217.622Z"/><path fill="#FEFEFE" d="M893.171 217.686C895.141 217.06 897.295 217.563 898.785 218.995C900.275 220.427 900.862 222.559 900.315 224.552C899.768 226.545 898.174 228.079 896.162 228.55C893.213 229.239 890.245 227.476 889.442 224.556C888.638 221.636 890.285 218.602 893.171 217.686Z"/><path fill="#FEFEFE" d="M919.004 218.062C927.548 216.858 929.129 223.624 923.766 228.515C915.934 228.758 912.731 223.181 919.004 218.062Z"/><path fill="#6C63FF" d="M449.472 378.593C409.521 359.045 390.089 313.042 403.926 270.772C417.763 228.502 460.637 202.896 504.414 210.756C531.598 215.637 554.985 232.84 567.739 257.337C576.897 274.929 579.929 295.073 576.354 314.581C573.653 329.32 567.28 343.141 557.824 354.767C532.908 385.401 490.807 395.996 454.358 380.804C452.708 380.116 451.078 379.379 449.472 378.593Z"/><path fill="#FEFEFE" d="M547.236 256.77C567.549 285.226 564.484 324.161 539.968 349.088C515.453 374.015 476.575 377.728 447.785 357.891C418.995 338.055 408.616 300.404 423.176 268.618C437.735 236.832 473.025 220.1 506.85 228.945C523.153 233.208 537.445 243.055 547.236 256.77Z"/><path fill="#E4E4E4" d="M506.85 228.945C523.153 233.208 537.445 243.055 547.236 256.77C535.412 256.894 517.831 257.524 506.533 256.419C506.033 247.282 506.432 238.076 506.85 228.945Z"/><path fill="#E4E4E4" d="M576.354 314.581C589.043 315.07 603.918 314.675 616.767 314.62L670.814 314.713C679.427 314.715 688.256 314.655 696.694 314.579C703.876 314.515 713.77 313.907 713.248 323.667C713.292 332.914 713.311 342.179 713.301 351.411L713.236 405.691L713.298 435.441C713.325 443.771 715.382 455.426 707.947 460.542C707.429 460.894 706.9 461.232 706.362 461.554C676.659 462.791 647.057 461.752 617.42 461.831L582.124 462.192C576.371 462.194 570.634 462.302 564.918 461.822C559.929 461.404 558.809 459.075 558.73 454.46C558.332 431.348 558.772 408.157 558.568 385.042C558.524 380.062 559.418 357.808 557.824 354.767C567.28 343.141 573.653 329.32 576.354 314.581Z"/><path fill="#FEFEFE" d="M584.267 359.569C585.421 359.568 588.468 359.527 589.338 360.37C605.247 375.78 619.68 392.581 635.469 408.245C645.966 398.024 655.89 386.412 666.443 376.16C671.106 371.629 674.973 366.289 680.019 362.054C684.044 358.676 688.554 358.709 688.673 364.98C688.675 368.492 686.826 369.902 684.526 372.192C673.268 383.303 662.919 395.39 651.633 406.399C647.981 409.962 637.026 425.612 631.43 420.284C616.864 406.36 604.372 390.346 590.312 375.917C585.988 371.479 577.639 365.402 584.267 359.569Z"/><path fill="#E4E4E4" d="M114.748 843.662C115.407 844.592 115.279 844.852 116.749 844.896C123.724 845.103 131.226 844.995 138.195 844.985C156.019 844.991 173.842 844.844 191.663 844.546C197.852 845.07 244.386 845.565 246.658 844.587C251.065 845.208 261.933 844.957 266.93 844.961L306.443 844.872C309.778 844.853 320.74 844.598 323.409 844.97C325.844 845.847 352.297 845.545 356.042 845.551C380.142 845.74 404.243 845.756 428.343 845.598L1004.54 844.989C1015.97 844.945 1020.05 843.346 1023.86 855.552C1022.33 858.691 1020.7 861.664 1017.21 862.833C1009.01 865.587 955.588 863.37 942.646 863.236L883.319 863.177L187.68 863.539L72.435 863.409C52.5822 863.392 32.5436 863.554 12.678 863.465C10.5157 863.455 6.55665 862.878 4.6738 861.982C1.95963 860.691 1.27458 857.464 0 855.324L0 852.143C4.02819 846.297 7.08629 845.607 13.9557 845.542C21.0277 845.476 28.1263 845.542 35.1999 845.521L94.6905 845.505C98.1844 845.503 111.56 845.722 114.161 844.869L114.748 843.662Z"/><path fill="#E4E4E4" d="M213.485 325.064C217.848 337.803 222.285 344.646 232.347 353.871C234.903 355.188 237.432 356.69 239.953 358.101C250.742 364.14 265.562 365.245 277.338 361.702C288.055 358.477 300.925 349.678 306.315 339.598C306.594 338.216 306.969 337.974 307.859 336.866L308.655 337.032C310.565 340.387 308.294 357.655 308.311 362.503C308.34 370.702 308.462 379.112 308.681 387.328C295.267 399.877 277.722 413.651 263.618 425.882C248.108 439.331 230.702 454.901 214.447 467.06C208.128 462.251 201.21 455.912 194.936 450.761L157.714 420.463C144.938 409.949 128.209 397.626 116.447 386.411C117.667 382.932 117.81 361.065 118.439 355.298C118.569 351.471 118.473 342.088 118.87 339.102L119.494 338.98L120.57 340.63L120.806 340.861C128.486 352.358 140.441 360.31 154.014 362.949C168.851 365.85 181.38 362.489 193.969 354.518C204.378 345.816 209.606 338.278 213.485 325.064Z"/><path fill="#3E3C55" d="M213.485 325.064C217.848 337.803 222.285 344.646 232.347 353.871C230.736 358.221 228.199 361.597 226.354 365.649C222.027 374.365 217.503 382.982 212.784 391.493C207.947 382.837 203.543 373.587 199.146 364.671C198.068 361.945 195.427 357.273 193.969 354.518C204.378 345.816 209.606 338.278 213.485 325.064Z"/><path fill="#CACACA" d="M120.806 340.861C128.486 352.358 140.441 360.31 154.014 362.949C168.851 365.85 181.38 362.489 193.969 354.518C195.427 357.273 198.068 361.945 199.146 364.671C197.531 363.694 197.228 362.837 195.553 361.848L194.307 364.092C191.486 365.742 181.649 369.207 178.655 369.133L178.932 367.857L177.895 367.295C179.121 366.843 180.338 366.364 181.544 365.86C181.19 365.559 180.835 365.258 180.48 364.957C175.388 364.925 170.02 366.078 164.782 366.024C148.14 365.853 133.716 357.657 123.037 345.266C121.866 343.906 120.702 342.726 120.806 340.861Z"/><path fill="#CACACA" d="M306.315 339.598C306.252 347.72 281.266 363.211 273.751 365.076C263.104 367.72 247.747 366.094 237.756 361.238C235.738 360.257 233.917 358.78 231.752 357.773C230.227 360.554 228.804 364.02 226.354 365.649C228.199 361.597 230.736 358.221 232.347 353.871C234.903 355.188 237.432 356.69 239.953 358.101C250.742 364.14 265.562 365.245 277.338 361.702C288.055 358.477 300.925 349.678 306.315 339.598Z"/><path fill="#E4E4E4" d="M118.439 355.298C118.569 351.471 118.473 342.088 118.87 339.102L119.494 338.98L120.57 340.63C114.197 347.594 130.118 358.859 134.552 362.441C137.338 364.69 141.478 365.974 144.108 368.126L144.134 368.969C141.428 370.031 132.175 362.728 127.857 362.49C125.442 362.356 120.754 356.721 118.439 355.298Z"/><path fill="#FEFEFE" d="M176.759 751.421L214.377 751.345C219.194 751.338 230.089 751.051 234.527 751.618L235.232 752.374C235.515 754.819 235.824 757.26 236.161 759.698L243.598 820.928C244.405 827.64 246.304 838.302 246.658 844.587C244.386 845.565 197.852 845.07 191.663 844.546C173.842 844.844 156.019 844.991 138.195 844.985C131.226 844.995 123.724 845.103 116.749 844.896C115.279 844.852 115.407 844.592 114.748 843.662C111.924 815.843 108.152 788.012 105.386 760.296C114.935 759.017 125.892 759.877 135.569 759.516C148.641 759.027 162.711 760.305 175.655 758.976C175.953 756.424 176.356 753.956 176.759 751.421Z"/><path fill="#3E3C55" d="M175.655 758.976L166.44 835.014C172.884 834.985 179.657 834.841 186.063 835.134C190.548 838.17 191.406 839.085 191.663 844.546C173.842 844.844 156.019 844.991 138.195 844.985C131.226 844.995 123.724 845.103 116.749 844.896C115.279 844.852 115.407 844.592 114.748 843.662C111.924 815.843 108.152 788.012 105.386 760.296C114.935 759.017 125.892 759.877 135.569 759.516C148.641 759.027 162.711 760.305 175.655 758.976Z"/><path fill="#3E3C55" d="M236.161 759.698C244.541 759.168 256.757 759.534 265.396 759.52L306.487 759.126C303.315 784.015 300.211 810.45 296.462 835.154C301.21 835.167 305.99 835.01 310.732 834.896C319.371 834.689 322.808 836.387 323.409 844.97C320.74 844.598 309.778 844.853 306.443 844.872L266.93 844.961C261.933 844.957 251.065 845.208 246.658 844.587C246.304 838.302 244.405 827.64 243.598 820.928L236.161 759.698Z"/><path fill="#6C63FF" d="M425.474 394.384C429.998 396.363 434.676 398.764 439.249 400.508C441.124 401.611 442.535 402.32 444.504 403.252C447.706 404.682 451.184 406.321 454.403 407.634L439.205 441.488C437.24 445.771 428.925 462.859 428.451 465.896C423.917 473.329 416.073 490.453 412.288 498.599C403.303 493.534 395.369 488.063 385.893 482.948C388.598 476.945 402.726 448.297 403.289 443.094C405.459 440.892 423.386 399.082 425.474 394.384Z"/><path fill="#3E3C55" d="M449.472 378.593C451.078 379.379 452.708 380.116 454.358 380.804C451.487 386.461 446.342 397.218 444.504 403.252C442.535 402.32 441.124 401.611 439.249 400.508C442.708 393.227 446.116 385.922 449.472 378.593Z"/><path fill="#6C63FF" d="M563.258 521.04C568.184 520.663 576.347 520.922 581.463 520.928L615.736 520.901C643.502 520.854 671.357 520.76 699.116 520.768C702.462 520.769 709.229 521.104 711.097 523.751C712.6 525.881 713.853 527.504 713.95 530.247C714.236 538.372 714.162 546.853 714.182 554.964L714.142 606.636L714.121 645.665C714.125 652.253 714.215 659.072 713.97 665.659C713.887 667.88 711.866 669.169 710.202 670.42C709.243 670.665 708.265 670.824 707.278 670.894C701.857 671.314 691.635 670.999 685.81 671.001L642.499 671.01L592.519 671.03C583.949 671.033 575.375 671.088 566.806 670.947C563.593 670.894 560.398 668.481 560.213 665.117C559.935 660.066 560.018 654.987 560.018 649.927L560.039 620.791C560.064 591.319 560.023 561.834 560.023 532.365C560.023 526.728 559.422 524.797 563.258 521.04Z"/><path fill="#FEFEFE" d="M589.983 593.205L660.424 593.199C670.256 593.199 680.489 592.927 690.251 593.61C693.952 593.869 695.269 600.765 690.021 603.029L618.854 603.362C609.717 603.434 598.655 603.81 589.46 603.274C586.398 603.095 584.049 595.238 589.983 593.205Z"/><path fill="#FEFEFE" d="M621.331 570.25C629.287 570.215 689.006 569.075 691.998 571.237C693.026 571.98 693.569 573.307 693.691 574.533C693.882 576.454 693.281 577.86 692.083 579.306C689.402 580.843 664.104 580.119 659.125 580.094C650.215 580.048 592.435 581.032 587.586 579.481C586.546 578.622 586.023 578.119 585.796 576.745C585.531 575.132 586.239 572.982 587.39 571.829C590.281 568.934 616.108 570.239 621.331 570.25Z"/><path fill="#FEFEFE" d="M622.208 616.167C643.73 615.101 667.059 616.371 688.725 616.12C693.743 616.061 696.722 622.656 689.608 626.033C670.027 626.696 649.884 625.888 630.258 626.346C625.805 626.45 617.265 627.456 618.074 620.744C618.405 618.001 619.891 617.151 622.208 616.167Z"/><path fill="#E4E4E4" d="M782.677 520.161C788.618 519.598 799.271 519.902 805.375 519.936L842.94 520.052L894.396 520.103C902.092 520.131 909.792 520.075 917.484 520.149C920.293 520.177 924.377 521.246 924.662 524.647C925.6 535.845 925.499 547.271 925.493 558.514C925.705 581.101 925.589 603.689 925.146 626.272C925.028 638.375 925.345 650.207 925.598 662.284C925.694 666.853 924.148 671.182 919.125 671.608C872.987 671.438 827.435 672.158 781.251 671.519C778.288 669.864 775.453 668.525 775.427 664.688C775.36 654.812 775.399 644.935 775.405 635.058L775.435 576.367L775.344 545.527C775.286 539.396 774.821 531.15 775.491 525.263C778.101 522.216 778.877 521.331 782.677 520.161Z"/><path fill="#FEFEFE" d="M798.38 569.57C801.093 569.464 803.922 569.513 806.643 569.51C837.042 569.476 867.458 569.163 897.854 569.536C900.401 569.567 904.396 569.782 905.955 571.989C908.227 575.207 906.812 577.963 903.942 579.919L903.453 579.953C883.642 581.314 862.55 580.086 842.618 580.487C829.145 580.758 815.291 580.544 801.845 579.948C795.309 579.658 793.012 573.597 798.38 569.57Z"/><path fill="#FEFEFE" d="M799.148 592.666C802.42 592.498 805.858 592.467 809.136 592.467C839.103 592.475 869.089 592.577 899.051 592.932C907.867 593.037 909.561 598.929 902.819 603.421L831.959 603.402C820.966 603.413 809.295 603.911 798.442 602.864C795.069 602.539 793.451 595.114 799.148 592.666Z"/><path fill="#FEFEFE" d="M836.685 616.176C841.361 615.814 846.513 616 851.254 616.011C867.844 616.051 884.457 615.748 901.042 616.024C907.705 616.136 908.389 622.894 902.968 626.079C895.994 626.822 839.727 627.198 836.08 625.796C834.889 625.338 834.016 624.167 833.533 623.029C832.869 621.463 832.844 619.601 833.699 618.093C834.382 616.889 835.471 616.575 836.685 616.176Z"/><path fill="#6C63FF" d="M780.454 315.081C791.558 314.68 804.715 314.99 816 314.995L881.954 315.147L904.885 315.257C910.071 315.248 916.155 314.966 921.279 315.781C922.922 316.042 923.558 316.934 924.493 318.266C925.173 319.235 925.435 321.166 925.444 322.375C925.666 351.821 925.755 381.82 925.591 411.217C925.546 419.308 926.245 452.62 924.756 458.029C923.122 459.725 923.226 459.67 921.078 460.612L823.619 460.53C810.423 460.551 794.437 461.225 781.172 460.025C776.249 459.58 774.705 453.078 774.675 448.742C774.624 441.341 774.639 433.575 774.66 425.983L774.678 384.444C774.671 374.585 773.428 324.725 775.074 319.496C775.797 317.199 778.496 316.06 780.454 315.081Z"/><path fill="#FEFEFE" d="M798.146 361.016C800.424 360.813 802.091 360.462 803.819 362.264C808.566 367.214 813.119 372.397 817.761 377.447C827.815 388.268 837.788 399.163 847.678 410.133C858.205 399.799 867.881 388.543 878.274 377.882C882.467 373.58 890.45 362.917 896.37 360.898C898.695 360.105 902.426 363.577 902.237 366.091C902.045 368.642 899.877 370.475 898.142 372.252C882.457 388.278 867.253 405.463 851.588 421.515C845.523 427.729 836.151 413.712 832.232 409.317L813.031 387.867C807.9 382.124 802.407 376.667 797.476 370.807C794.429 367.186 794.43 363.998 798.146 361.016Z"/><path fill="#3E3C55" d="M206.694 217.188C226.912 214.172 247.031 222.855 264.312 232.429C268.746 234.885 274.849 238.946 280.106 239.951C289.95 241.832 299.65 233.723 308.615 233.96C309.844 233.993 310.419 235.034 310.955 235.862C310.778 241.536 291.358 256.453 286.047 261.621L285.046 261.128C257.273 247.556 229.73 258.311 216.511 285.818L213.519 292.916C209.791 278.091 201.481 266.814 187.466 260.287C171.276 252.748 159.251 254.11 143 259.917C134.706 254.014 122.645 245.225 115.679 237.618C114.089 235.883 117.213 232.354 118.698 232.759C126 234.642 140.425 242.014 148.37 239.415C171.319 231.911 180.821 220.093 206.694 217.188Z"/><path fill="#2E2D40" d="M258.503 299.289C267.242 297.915 275.451 303.856 276.877 312.587C278.304 321.317 272.413 329.562 263.691 331.041C254.894 332.533 246.563 326.58 245.124 317.774C243.686 308.969 249.689 300.674 258.503 299.289Z"/><path fill="#FEFEFE" d="M255.612 303.634C258.513 303.339 261.109 305.44 261.426 308.339C261.743 311.238 259.662 313.849 256.765 314.188C253.838 314.531 251.192 312.422 250.871 309.492C250.551 306.562 252.679 303.932 255.612 303.634Z"/><path fill="#2E2D40" d="M168.228 299.468C176.684 299.185 183.824 305.692 184.326 314.138C184.828 322.583 178.507 329.89 170.078 330.61C164.427 331.093 158.96 328.472 155.797 323.764C152.635 319.057 152.275 313.004 154.858 307.956C157.441 302.907 162.56 299.657 168.228 299.468Z"/><path fill="#FEFEFE" d="M163.163 303.547C166.107 302.764 169.136 304.482 169.974 307.411C170.813 310.34 169.151 313.4 166.239 314.293C164.305 314.886 162.203 314.388 160.74 312.992C159.278 311.596 158.683 309.519 159.186 307.56C159.688 305.602 161.209 304.067 163.163 303.547Z"/></svg>