<?xml version="1.0" encoding="utf-8" ?><svg xmlns="http://www.w3.org/2000/svg" xmlns:xlink="http://www.w3.org/1999/xlink" width="1024" height="1024" viewBox="0 0 1024 1024"><path fill="#FEFEFE" d="M0 0L1024 0L1024 911.044L1024 916.096L1024 1024L0 1024L0 0Z"/><path fill="#3E3C55" d="M677.241 529.207C728.365 592.614 744.78 698.655 735.64 777.566C733.527 795.812 730.138 819.465 721.416 835.527C719.457 839.136 715.767 841.07 714.917 843.956C709.352 843.55 700.484 843.669 694.724 843.63L655.098 843.572L539.857 843.599L385.457 843.577L335.641 843.548C327.493 843.536 317.553 843.225 309.568 843.547L308.348 841.205C301.62 832.644 298.255 826.145 295.965 815.413C278.356 732.899 285.419 642.519 323.158 566.379C327.647 557.323 333.338 548.207 338.673 539.768C341.165 536.167 343.495 532.69 346.306 529.319C395.944 601.216 435.188 640.114 512.504 682.273C522.009 676.787 532.466 670.988 541.693 665.153C580.224 641.285 614.455 611.091 642.947 575.842C650.454 566.369 657.744 556.726 664.81 546.92C668.364 541.903 673.619 533.664 677.241 529.207Z"/><path fill="#2E2D40" d="M309.568 843.547C317.553 843.225 327.493 843.536 335.641 843.548L385.457 843.577L539.857 843.599L655.098 843.572L694.724 843.63C700.484 843.669 709.352 843.55 714.917 843.956C705.92 865.944 689.655 883.025 667.611 892.252C665.283 893.243 662.857 893.991 660.374 894.482C660.723 898.602 661.054 902.494 661.195 906.637C646.762 907.581 625.63 906.965 610.874 906.936C583.467 906.974 556.06 906.853 528.655 906.573L491.422 906.559C447.103 906.814 402.782 906.784 358.463 906.468C358.381 901.276 358.715 897.305 359.696 892.228C334.606 884.992 319.661 867.025 309.568 843.547Z"/><path fill="#6C63FF" d="M359.696 892.228C366.857 861.265 408.154 857.228 425.957 883.461C432.165 874.179 437.77 869.256 448.857 866.945C468.497 862.852 487.058 874.613 490.46 894.603C491.167 898.753 491.359 902.338 491.422 906.559C447.103 906.814 402.782 906.784 358.463 906.468C358.381 901.276 358.715 897.305 359.696 892.228Z"/><path fill="#6C63FF" d="M595.16 888.537C599.996 877.141 606.65 869.463 619.328 866.884C628.537 865.029 638.105 866.923 645.911 872.147C653.861 877.42 658.489 885.245 660.374 894.482C660.723 898.602 661.054 902.494 661.195 906.637C646.762 907.581 625.63 906.965 610.874 906.936C583.467 906.974 556.06 906.853 528.655 906.573C528.531 900.341 528.9 893.877 531.152 888.008C534.379 879.598 540.844 872.833 549.1 869.229C560.296 864.389 574.548 865.622 584.443 872.933C590.1 877.112 592.557 882.241 595.16 888.537Z"/><path fill="#3E3C55" d="M528.655 906.573C556.06 906.853 583.467 906.974 610.874 906.936C625.63 906.965 646.762 907.581 661.195 906.637L830.649 906.508L881.938 906.419L946.467 906.406L993.666 906.425C1001.79 906.402 1010.08 906.117 1018.16 906.71C1020.98 906.917 1022.47 908.972 1024 911.044L1024 916.096C1023.12 917.508 1021.35 920.179 1019.61 920.35C1013.94 920.907 1007.26 920.78 1001.55 920.81L962.079 920.94L802.487 920.964L169.283 920.923L56.675 920.865L25.7227 920.765C20.1688 920.757 14.5928 920.74 9.04785 920.659C-1.81474 920.502 -2.58431 906.633 8.77813 906.441C22.0596 906.218 35.3416 906.433 48.6252 906.489L117.472 906.417L358.463 906.468C402.782 906.784 447.103 906.814 491.422 906.559L528.655 906.573Z"/><path fill="#6C63FF" d="M889.243 872.886C889.403 871.969 889.746 869.743 890.212 869.68C899.647 868.416 930.938 870.166 938.985 869.174C941.926 881.466 943.781 894.112 946.467 906.406L881.938 906.419L882.124 906.14C878.899 898.432 872.878 889.072 869.062 881.279C875.802 879.277 882.858 875.892 889.243 872.886Z"/><path fill="#AE9FF8" d="M869.062 881.279C875.802 879.277 882.858 875.892 889.243 872.886C888.433 877.734 884.112 902.67 882.124 906.14C878.899 898.432 872.878 889.072 869.062 881.279Z"/><path fill="#E4E4E4" d="M847.119 857.301C850.735 860.749 864.992 878.852 866.767 879.932L867.869 879.581L869.062 881.279C872.878 889.072 878.899 898.432 882.124 906.14L881.938 906.419L830.649 906.508C830.594 903.488 812.733 883.479 809.683 878.729C815.379 874.681 824.637 870.36 830.845 866.681C835.653 863.831 842.266 859.538 847.119 857.301Z"/><path fill="#CAC2FB" d="M854.626 850.319C869.121 844.639 885.13 839.423 899.897 833.917C898.863 842.602 897.983 852.79 897.319 861.516C904.696 857.805 914.112 852.331 921.315 848.214C921.48 855.04 921.429 862.137 921.476 868.986C925.409 868.972 935.466 868.688 938.985 869.174C930.938 870.166 899.647 868.416 890.212 869.68C889.746 869.743 889.403 871.969 889.243 872.886C882.858 875.892 875.802 879.277 869.062 881.279L867.869 879.581C863.386 870.376 857.957 859.834 854.626 850.319Z"/><path fill="#3E3C55" d="M594.813 325.22C614.465 315.897 633.644 303.432 653.809 295.021C656.972 293.701 662.954 303.87 664.046 306.384C668.512 325.163 650.156 359.278 642.865 376.839C640.775 374.008 638.763 371.38 636.956 368.355C628.208 365.224 617.828 362.589 608.809 360.282C569.995 350.353 521.187 374.215 512.944 415.684C511.617 409.997 508.727 402.733 505.984 397.61C496.393 379.238 479.37 366.836 459.809 360.788C438.039 354.058 405.5 357.474 385.467 368.285C385.176 369.111 381.269 374.054 380.477 375.088C375.742 363.372 356.987 317.605 358.854 308.379C361.419 301.809 363.215 299.128 369.314 295.952C389.495 305.191 409.777 315.698 429.779 324.72C444.667 316.696 458.289 310.415 474.869 306.307C515.77 296.303 558.975 303.115 594.813 325.22Z"/><path fill="#2E2D40" d="M664.046 306.384C668.512 325.163 650.156 359.278 642.865 376.839C640.775 374.008 638.763 371.38 636.956 368.355C633.323 358.381 616.611 343.108 608.552 335.417C627.198 326.006 645.484 315.686 664.046 306.384Z"/><path fill="#2E2D40" d="M358.854 308.379C369.559 312.367 380.249 318.514 390.782 323.063C398.875 326.559 407.531 331.821 415.951 334.316C409.125 340.754 387.828 360.351 385.467 368.285C385.176 369.111 381.269 374.054 380.477 375.088C375.742 363.372 356.987 317.605 358.854 308.379Z"/><path fill="#E4E4E4" d="M650.463 479.752C649.104 489.136 644.958 497.105 639.951 504.937C585.028 590.844 459.473 594.587 393.092 520.288C381.086 506.849 374.136 494.566 370.523 476.901C373.286 480.214 373.303 481.654 375.251 485.13C377.149 488.518 380.722 493.049 383.267 495.963C396.996 511.951 416.559 521.77 437.582 523.224C461.245 524.704 479.541 517.096 496.993 501.717C503.97 494.931 508.404 489.958 512.167 480.798C515.68 488.859 519.71 496.252 526.6 502.005C529.974 504.643 533.293 507.32 536.732 509.81C556.12 523.851 580.034 526.562 602.767 519.661C624.374 513.102 639.655 499.271 650.463 479.752Z"/><path fill="#6C63FF" d="M512.167 480.798C515.68 488.859 519.71 496.252 526.6 502.005C522.12 512.715 516.687 524.002 511.986 534.805C507.297 523.675 501.615 512.931 496.993 501.717C503.97 494.931 508.404 489.958 512.167 480.798Z"/><path d="M480.412 212.099C482.908 212.253 484.823 213.099 487.194 213.924C489.372 212.404 489.508 211.888 491.899 213.08C492.254 213.948 491.39 217.785 491.345 219.707C491.16 226.26 493.298 233.983 491.311 240.275C489.444 246.19 473.414 248.424 471.372 242.316C472.001 240.446 471.437 241.075 472.763 240.088L473.609 240.519C477.109 241.983 483.169 243.031 485.963 239.939C488.137 237.533 487.605 234.702 487.508 231.758C469.811 246.489 460.859 215.541 480.412 212.099Z"/><path fill="#FEFEFE" d="M480.014 216.034C489.946 216.765 490.282 228.473 481.522 231.84C471.181 231.35 471.68 219.279 480.014 216.034Z"/><path d="M415.283 212.419C421.572 212.561 417.64 213.62 420.314 215.114C423.763 213.946 426.176 210.633 429.789 212.392C441.489 218.085 439.859 233.271 427.639 237.237C424.204 236.903 423.445 236.328 420.508 234.384C420.429 238.049 421.352 242.183 419.948 245.158C418.213 246.333 419.181 245.962 416.84 245.991C414.564 244.141 416.785 219.179 414.846 214.423C414.4 213.329 414.701 213.373 415.283 212.419Z"/><path fill="#FEFEFE" d="M426.157 216.035C434.787 217.368 435.554 229.596 427.325 233.367C424.633 232.799 423.025 232.07 420.492 231.061C420.218 224.042 418.208 218.265 426.157 216.035Z"/><path d="M742.307 203.546C744.005 203.511 746.301 203.257 747.718 203.966C748.653 212.336 746.621 224.466 748.624 232.698C749.041 234.415 749.269 233.714 749.309 235.951C748.036 237.04 748.748 236.681 747.066 237.017C745.54 236.545 745.36 236.163 744.307 234.976L743.975 234.594C742.089 234.528 738.98 236.906 734.613 237.02C724.624 234.045 724.378 217.784 733.175 213.376C736.789 211.565 739.933 212.655 743.5 213.818C743.612 208.967 743.467 208.095 742.307 203.546Z"/><path fill="#FEFEFE" d="M735.276 216.512C738.73 216.4 740.055 216.487 743.474 216.896C743.389 222.094 744.363 226.32 742.902 231.072C741.333 232.713 741.5 232.244 738.911 232.929C729.173 233.56 729.504 221.619 735.276 216.512Z"/><path d="M308.193 212.116C324.224 211.572 326.172 232.713 311.252 236.999C294.958 237.421 293.306 216.501 308.193 212.116Z"/><path fill="#FEFEFE" d="M306.907 216.053C318.012 215.244 319.879 227.443 312.226 232.857C301.092 235.38 300.144 221.683 306.907 216.053Z"/><path d="M652.974 212.63C655.387 212.325 657.691 212.043 660.048 212.845C662.988 213.854 665.399 216.005 666.734 218.812C670.247 226.354 666.213 233.391 659.107 236.682C653.491 237.61 648.658 235.791 646.068 230.478C644.428 227.085 644.271 223.163 645.635 219.65C647.178 215.778 649.39 214.269 652.974 212.63Z"/><path fill="#FEFEFE" d="M655.539 216.066C665.997 216.079 666.065 229.049 657.264 233.351C647.962 233.471 646.118 219.693 655.539 216.066Z"/><path d="M575.027 212.614C591.206 210.458 595.628 229.26 581.938 236.6C566.96 240.609 561.371 219.432 575.027 212.614Z"/><path fill="#FEFEFE" d="M576.989 215.993C577.743 215.996 578.496 216.057 579.24 216.175C587.034 217.367 587.726 228.412 580.463 232.845C569.926 233.779 568.705 220.019 576.989 215.993Z"/><path d="M451.169 212.083C467.599 210.354 459.718 227.035 464 234.792C464.578 235.84 464.382 235.072 464.366 236.396C462.812 237.709 463.67 237.409 461.762 237.48C459.439 236.403 459.325 234.857 457.493 234.048C451.49 237.017 453.045 238.517 445.249 236.081C433.189 224.14 455.491 223.514 457.919 219.909C456.618 213.424 450.122 216.51 445.795 216.833C444.178 216.061 444.746 216.644 443.994 215.062L444.34 214.304C447.032 212.787 448.215 212.673 451.169 212.083Z"/><path fill="#FEFEFE" d="M457.937 224.727C458.502 226.245 458.273 228.389 458.223 230.087L457.88 230.357C454.52 232.954 452.722 233.663 448.615 233.112C442.845 226.075 453.702 225.119 457.937 224.727Z"/><path fill="#3E3C55" d="M555.496 450.27C557.377 450.704 560.561 452.321 562.527 453.147C570.447 456.475 575.582 457.078 583.96 456.468C589.4 456.071 598.917 449.869 602.177 450.847C603.778 452.121 603.298 451.324 603.702 453.299C603.184 455.404 603.237 455.297 601.578 456.704C586.85 465.529 574.056 465.876 558.076 458.595C556.024 457.66 554.54 456.149 553.853 453.995C553.951 452.063 554.337 451.799 555.496 450.27Z"/><path d="M507.685 212.099C514.192 212.048 519.453 214.433 520.161 222.803C520.663 228.744 507.469 223.82 503.646 226.812C502.628 230.575 506.187 232.494 509.369 233.099C511.681 233.539 514.195 232.689 516.397 232.028C517.207 231.532 516.729 231.666 517.875 231.839C518.851 233.387 518.688 232.585 518.53 234.29C514.137 240.204 501.487 237.419 498.78 229.21C497.594 225.518 497.94 221.504 499.739 218.069C501.726 214.36 503.868 213.271 507.685 212.099Z"/><path fill="#FEFEFE" d="M506.972 215.982C510.879 215.721 515.177 216.737 514.982 221.509C513.881 222.764 514.306 222.369 512.125 222.601C508.921 222.642 506.5 223.063 503.708 221.723C501.751 219.144 504.938 217.337 506.972 215.982Z"/><path fill="#3E3C55" d="M467.83 450.413C469.513 450.987 471.694 453.026 470.647 454.809C468.533 458.41 461.975 460.653 458.203 461.843C446.817 465.434 435.751 463.369 425.354 457.928C423.098 456.33 422.919 455.902 422.297 453.351C422.661 451.699 422.232 452.342 423.665 451.381C429.442 450.807 430.455 453.306 435.621 454.885C448.518 458.828 456.674 455.603 467.83 450.413Z"/><path d="M280.779 204.682C285.142 204.978 287.191 205.117 291.208 207.095C292.016 208.543 291.721 208.22 291.419 210.287C287.296 211.185 275.964 204.123 274.187 213.813C276.141 220.813 291.508 217.673 292.794 226.937C293.889 234.825 287.177 236.562 280.891 237.419C277.897 237.091 271.354 236.379 269.409 234.255C269.326 232.429 269.261 232.526 269.905 230.838C272.224 230.398 277.256 233.51 280.224 233.372C283.963 233.199 288.384 232.271 287.953 227.673C284.231 222.28 270.739 223.132 269.394 215.622C268.06 208.175 275.385 205.416 280.779 204.682Z"/><path d="M377.02 231.255C379.182 226.241 381.593 210.888 387.978 213.243C388.412 216.261 383.591 226.089 382.185 229.625C380.507 233.892 378.851 238.75 375.754 242.185C373.394 244.803 369.238 247.497 366.148 244.567C366.014 240.741 369.737 242.343 372.323 240.149C373.112 239.48 374.039 237.925 374.591 237.046L374.953 236.46C371.414 229.495 368.215 220.3 365.531 212.936C366.558 212.913 369.674 212.787 369.992 213.222C371.699 215.551 375.985 228.545 377.02 231.255Z"/><path d="M539.453 212.377C541.159 212.348 542.089 212.205 543.709 212.788L544.098 215.26C546.33 215.701 559.247 204.328 560.423 222.219C560.62 225.216 561.254 234.228 559.442 236.359C557.598 236.77 558.486 236.821 556.682 236.159C555.212 234.129 555.836 226.13 555.867 223.022C555.668 213.729 550.329 215.51 544.495 219.437C544.427 223.072 545.09 233.96 543.566 236.506C541.566 236.661 541.659 236.994 540.3 236.152C539.446 230.273 540.032 219.657 539.453 212.377Z"/><path d="M673.56 212.507C675.105 212.482 676.346 212.273 677.67 212.989C678.921 218.298 675.846 230.28 681.254 233.218C683.021 233.449 687.38 231.827 688.154 230.307C690.085 226.51 686.838 213.893 691.21 212.086L692.565 212.877C693.302 215.18 693.003 219.181 692.967 221.75C692.913 224.676 692.431 231.079 693.715 233.342C694.395 234.538 694.363 234.549 694.863 236.008C693.671 237.4 694.39 236.986 692.693 237.391C691.163 236.805 689.079 234.483 689.285 234.46C685.882 234.828 680.397 239.766 676.536 235.606C672.109 230.835 673.455 219.01 673.56 212.507Z"/><path d="M712.869 212.036C723.655 212.591 720.548 225.749 721.09 233.12C721.264 235.494 720.149 237.803 717.448 236.497C714.554 231.332 719.427 220.93 714.235 216.772C711.746 215.885 710.324 216.668 707.988 217.788L707.42 218.066C702.927 221.987 707.08 233.273 704.991 236.508C703.353 237.032 703.469 236.987 701.776 236.611C700.761 230.883 701.811 221.283 700.787 214.268L700.681 213.566C701.141 212.665 701.812 211.814 702.894 212.087C704.153 213.424 704.279 213.561 705.768 214.61C707.013 214.705 711.111 212.663 712.869 212.036Z"/><path d="M636.995 203.08C639.581 202.938 642.409 202.932 643.667 205.618C641.854 208.044 637.175 206.264 635.223 211.073C636.034 216.007 639.361 211.667 641.97 214.26L641.868 216.213C640.547 216.95 637.21 216.857 635.518 216.922L635.526 231.625L635.549 232.203C635.607 234.121 635.584 237.275 632.941 237.285C632.393 237.001 631.203 236.231 631.136 235.701C630.561 231.128 631.979 221.417 630.583 217.399C629.265 216.959 629.123 217.052 628.188 216.077C627.946 213.436 628.018 213.499 630.291 212.842C633.322 207.102 629.264 206.617 636.995 203.08Z"/><path d="M598.664 206.225C600.133 206.351 600.15 206.252 601.411 206.952C602.373 208.646 601.918 211.078 601.789 213.13C605.266 213.015 606.88 212.554 609.755 214.481L609.926 215.351C607.568 217.635 604.652 216.947 601.534 216.836C601.505 220.536 601.202 228.092 601.997 231.35C604.123 233.488 607.937 231.855 610.966 233.296C610.763 235.428 611.218 234.756 610.156 236.123C590.763 240.916 600.315 221.925 596.95 217.045C595.622 216.806 594.556 216.793 593.591 215.909C593.522 214.24 593.354 215.013 594.153 213.513L596.466 213.006C598.426 210.312 595.437 209.353 598.664 206.225Z"/><path d="M349.105 211.625C353.166 212.577 350.643 213.788 352.711 214.908C356.061 213.349 357.751 212.513 361.536 212.531C362.399 213.291 362.548 213.125 362.569 214.632C362.302 218.094 356.089 216.743 354.036 218.689C352.286 220.347 352.481 222.266 352.497 224.375C352.523 228.349 352.512 231.832 352.297 235.794L351.362 236.532C349.547 236.63 350.335 236.881 348.912 235.766C346.738 231.168 348.086 221.093 347.795 215.704C347.658 213.164 347.721 212.942 349.105 211.625Z"/><path d="M338.904 212.532C341.1 212.33 340.187 212.061 341.864 212.888C344.463 219.425 336.997 216.191 334.596 218.031C329.727 221.762 334.388 229.284 332.223 235.744C330.867 236.961 330.976 236.563 328.684 236.761C328.041 235.73 327.665 215.603 327.929 213.165L329.069 212.384C330.965 212.886 330.853 213.591 332.736 215.042C335.23 213.815 336.26 213.334 338.904 212.532Z"/><path d="M394.2 229.565L400.441 230.273C400.189 236.133 400.243 238.045 396.257 242.493C395.502 242.718 394.767 242.843 393.993 243.003L393.446 242.49L393.576 241.279C399.832 233.325 393.784 238.26 394.2 229.565Z"/></svg>