<?xml version="1.0" encoding="utf-8" ?><svg xmlns="http://www.w3.org/2000/svg" xmlns:xlink="http://www.w3.org/1999/xlink" width="240" height="240" viewBox="0 0 240 240"><path fill="#FEFEFE" transform="scale(0.234375 0.234375)" d="M0 0L1024 0L1024 843.724L1024 851.628L1024 904.521L1024 924.984L1024 1024L0 1024L0 924.967L0 904.951L0 851.617L0 843.753L0 0Z"/><path fill="#FEFEFE" transform="scale(0.234375 0.234375)" d="M0 851.617L734.864 851.603L930.113 851.758C961.123 851.751 993.069 851.176 1024 851.628L1024 904.521L1024 924.984L1024 1024L0 1024L0 924.967L0 904.951L0 851.617Z"/><path fill="#E4E4E4" transform="scale(0.234375 0.234375)" d="M0 904.951L569.821 904.916L709.541 904.769L751.465 904.793C754.068 904.795 756.891 904.839 759.474 904.736C767.597 904.412 780.15 903.478 780.03 915.032C779.979 919.852 777.079 922.589 773.099 924.907C745.317 925.923 713.216 924.982 684.936 924.995L507.535 925.018L0 924.967L0 904.951Z"/><path fill="#E4E4E4" transform="scale(0.234375 0.234375)" d="M838.575 924.942C828.697 918.648 830.462 905.636 842.649 904.699C848.986 904.211 855.714 904.477 862.116 904.487L899.33 904.515L1024 904.521L1024 924.984L907.076 925.133C885.157 925.141 860.284 925.723 838.575 924.942Z"/><path fill="#3E3C55" transform="scale(0.234375 0.234375)" d="M428.207 509.449C428.488 505.828 426.814 491.885 426.4 487.66C425.266 476.102 422.381 433.757 426.488 424.887C428.904 438.293 431.208 450.059 435.809 462.939C457.4 523.383 521.464 562.249 584.956 550.652C599.088 548.15 612.685 543.234 625.15 536.12C629.321 533.718 637.235 528.491 641.07 526.737C643.461 533.766 648.36 542.767 652.755 548.743C658.838 540.818 662.978 530.936 666.456 521.648C674.261 529.824 693.863 540.303 704.57 544.661C707.954 546.038 718.013 549.707 720.368 551.578C764.156 504.595 811.31 481.453 875.309 476.179C881.528 475.733 888.354 475.273 894.559 475.793C889.731 559.829 887.801 644.006 888.771 728.175C888.873 752.122 889.142 776.068 889.579 800.011C889.757 814.034 889.604 829.919 890.409 843.758C934.857 843.392 979.66 844.258 1024 843.724L1024 851.628C993.069 851.176 961.123 851.751 930.113 851.758L734.864 851.603L0 851.617L0 843.753L85.3301 843.596C111.833 843.776 138.338 843.755 164.841 843.534L374.417 843.554C391.01 843.908 408.813 843.566 425.499 843.576L542.119 843.628C530.707 833.52 517.947 824.05 506.261 813.737C465.254 777.549 430.744 735.164 413.223 682.649C392.892 621.711 400.769 566.195 428.207 509.449Z"/><path fill="#E4E4E4" transform="scale(0.234375 0.234375)" d="M428.207 509.449C428.488 505.828 426.814 491.885 426.4 487.66C425.266 476.102 422.381 433.757 426.488 424.887C428.904 438.293 431.208 450.059 435.809 462.939C457.4 523.383 521.464 562.249 584.956 550.652C599.088 548.15 612.685 543.234 625.15 536.12C629.321 533.718 637.235 528.491 641.07 526.737C643.461 533.766 648.36 542.767 652.755 548.743C658.838 540.818 662.978 530.936 666.456 521.648C674.261 529.824 693.863 540.303 704.57 544.661C707.954 546.038 718.013 549.707 720.368 551.578C693.567 581.657 675.831 618.71 669.214 658.45C658.299 720.644 677.254 792.167 713.206 843.488L596.235 843.447C576.942 825.716 563.745 810.872 547.596 789.935C500.69 729.139 465.58 660.099 444.08 586.382C439.394 569.647 435.531 552.693 432.503 535.581C431.174 528.164 430.272 516.186 428.207 509.449Z"/><path fill="#2E2D40" transform="scale(0.234375 0.234375)" d="M727.266 605.827C728.263 607.31 728.011 609.666 727.65 611.418C722.528 636.297 719.602 660.227 717.264 685.513L716.671 685.678C712.866 669.99 714.477 637.873 719.531 623.173C721.748 616.727 723.98 611.81 727.266 605.827Z"/><path fill="#FEFEFE" transform="scale(0.234375 0.234375)" d="M807.618 278.499C809.342 280.473 814.165 283.901 816.405 285.549C845.136 306.68 868.09 338.378 879.23 372.361C888.22 399.787 882.276 436.68 875.307 464.256C874.743 466.484 871.489 474.329 872.76 475.849L875.309 476.179C811.31 481.453 764.156 504.595 720.368 551.578C718.013 549.707 707.954 546.038 704.57 544.661C693.863 540.303 674.261 529.824 666.456 521.648C662.978 530.936 658.838 540.818 652.755 548.743C648.36 542.767 643.461 533.766 641.07 526.737C637.235 528.491 629.321 533.718 625.15 536.12C612.685 543.234 599.088 548.15 584.956 550.652C521.464 562.249 457.4 523.383 435.809 462.939C431.208 450.059 428.904 438.293 426.488 424.887C420.033 378.059 444.405 322.729 480.977 293.606C487.267 288.597 493.867 283.841 500.065 278.725C505.856 277.787 513.032 278.365 518.935 278.286C580.357 277.462 633.227 313.113 649.736 373.381C651.261 378.713 652.601 383.238 653.628 388.699L657.934 374.674C661.175 361.815 668.941 346.716 676.459 335.994C698.929 303.611 734.72 282.991 774.006 279.795C780.664 279.285 787.334 278.963 794.01 278.83C796.95 278.801 805.195 279.224 807.618 278.499Z"/><path fill="#CACACA" transform="scale(0.234375 0.234375)" d="M500.065 278.725C505.856 277.787 513.032 278.365 518.935 278.286C580.357 277.462 633.227 313.113 649.736 373.381C647.03 370.772 645.404 366.673 643.283 363.535C628.243 341.283 601.843 326.942 575.001 326.291C552.012 325.826 529.784 334.536 513.231 350.497C469.371 392.504 482.528 467.95 537.411 493.419C568.526 507.858 601.929 503.345 627.695 480.662C630.242 496.003 635.445 512.252 641.07 526.737C637.235 528.491 629.321 533.718 625.15 536.12C612.685 543.234 599.088 548.15 584.956 550.652C521.464 562.249 457.4 523.383 435.809 462.939C431.208 450.059 428.904 438.293 426.488 424.887C420.033 378.059 444.405 322.729 480.977 293.606C487.267 288.597 493.867 283.841 500.065 278.725Z"/><path fill="#CACACA" transform="scale(0.234375 0.234375)" d="M807.618 278.499C809.342 280.473 814.165 283.901 816.405 285.549C845.136 306.68 868.09 338.378 879.23 372.361C888.22 399.787 882.276 436.68 875.307 464.256C874.743 466.484 871.489 474.329 872.76 475.849L875.309 476.179C811.31 481.453 764.156 504.595 720.368 551.578C718.013 549.707 707.954 546.038 704.57 544.661C693.863 540.303 674.261 529.824 666.456 521.648C670.258 513.652 677.289 489.641 679.051 481.01C696.567 493.01 710.482 500.255 732.25 500.993C754.948 501.84 777.02 493.446 793.418 477.729C811.076 460.999 820.266 439.617 820.841 415.306C821.453 392.221 812.811 369.849 796.839 353.169C780.91 337.017 759.334 327.679 736.656 327.121C709.684 326.722 684.426 338.967 667.686 360.087C664.672 363.889 660.739 372.273 657.934 374.674C661.175 361.815 668.941 346.716 676.459 335.994C698.929 303.611 734.72 282.991 774.006 279.795C780.664 279.285 787.334 278.963 794.01 278.83C796.95 278.801 805.195 279.224 807.618 278.499Z"/><path fill="#3E3C55" transform="scale(0.234375 0.234375)" d="M625.768 471.894C641.264 457.098 647.015 447.664 653.921 427.286C658.128 444.546 667.838 459.969 681.584 471.225L679.051 481.01C677.289 489.641 670.258 513.652 666.456 521.648C662.978 530.936 658.838 540.818 652.755 548.743C648.36 542.767 643.461 533.766 641.07 526.737C635.445 512.252 630.242 496.003 627.695 480.662C627.069 478.86 626.196 474.009 625.768 471.894Z"/><path fill="#3E3C55" transform="scale(0.234375 0.234375)" d="M572.822 391.136C586.085 389.916 597.826 399.679 599.046 412.942C600.266 426.205 590.503 437.946 577.239 439.166C563.976 440.386 552.235 430.623 551.015 417.36C549.796 404.096 559.559 392.355 572.822 391.136Z"/><path fill="#FEFEFE" transform="scale(0.234375 0.234375)" d="M565.627 400.903C569.419 400.145 573.101 402.625 573.824 406.424C574.547 410.223 572.032 413.882 568.227 414.569C564.471 415.247 560.871 412.772 560.158 409.024C559.445 405.275 561.885 401.652 565.627 400.903Z"/><path fill="#3E3C55" transform="scale(0.234375 0.234375)" d="M730.151 391.783C743.271 390.56 754.878 400.254 756.013 413.382C757.148 426.511 747.376 438.053 734.24 439.1C721.229 440.137 709.819 430.477 708.695 417.472C707.571 404.468 717.154 392.994 730.151 391.783Z"/><path fill="#FEFEFE" transform="scale(0.234375 0.234375)" d="M721.553 401.357C725.092 399.999 729.064 401.737 730.47 405.256C731.875 408.776 730.192 412.772 726.692 414.225C724.385 415.183 721.741 414.826 719.772 413.289C717.802 411.752 716.813 409.274 717.182 406.803C717.551 404.332 719.221 402.251 721.553 401.357Z"/><path fill="#7471F5" transform="scale(0.234375 0.234375)" d="M51.6561 565.637L52.3225 566.483C63.9482 567.033 81.2606 566.496 93.4226 566.544L190.489 566.582L222.97 566.547C230.75 566.534 244.551 565.204 249.987 571.592C256.099 578.773 259.818 589.326 263.905 597.89C271.57 613.612 278.972 629.461 286.108 645.431C308.11 693.421 330.527 741.22 353.358 788.821C361.084 805.163 368.703 821.491 375.522 838.231C375.788 838.886 376.546 839.574 377.122 839.957L374.417 843.554L164.841 843.534C143.411 794.533 119.756 746.249 97.9723 697.41L62.362 618.82C57.2843 607.765 51.0912 592.288 45.4222 582.222C46.8592 577.524 49.8308 570.374 51.6561 565.637Z"/><path fill="#FEFEFE" transform="scale(0.234375 0.234375)" d="M200.337 679.678C215.75 677.835 235.521 690.039 238.341 705.855C239.308 711.085 238.16 716.486 235.149 720.87C230.762 727.128 224.62 729.108 217.595 730.493C180.284 732.742 160.8 684.616 200.337 679.678Z"/><path fill="#3E3C55" transform="scale(0.234375 0.234375)" d="M746.193 240.776C751.766 236.629 761.098 231.227 767.139 228.34C797.004 214.136 831.245 212.198 862.522 222.941C839.844 235.758 818.826 254.64 807.618 278.499C805.195 279.224 796.95 278.801 794.01 278.83C787.334 278.963 780.664 279.285 774.006 279.795C734.72 282.991 698.929 303.611 676.459 335.994C668.941 346.716 661.175 361.815 657.934 374.674L653.628 388.699C652.601 383.238 651.261 378.713 649.736 373.381C633.227 313.113 580.357 277.462 518.935 278.286C513.032 278.365 505.856 277.787 500.065 278.725C488.158 251.43 471.235 237.544 446.24 223.286C450.745 221.563 458.236 219.777 463.01 219.09C499.084 213.903 532.722 219.842 562.663 241.319C593.882 230.338 618.26 230.691 650.865 230.959C685.186 231.24 713.149 228.805 746.193 240.776Z"/><path fill="#6C63FF" transform="scale(0.234375 0.234375)" d="M51.6561 565.637C54.3696 557.98 60.0764 538.137 67.1557 536.212C76.8966 533.564 98.0314 534.513 108.564 534.524L166.318 534.59L221.564 534.592C231.938 534.595 242.407 534.509 252.775 534.817C255.902 534.909 256.698 535.14 259.514 536.122C262.242 537.073 267.387 541.328 268.604 543.812C272.854 552.488 277.133 561.787 281.287 570.506C291.936 592.723 302.431 615.013 312.773 637.375L357.695 733.778C367.028 753.791 376.63 773.827 385.243 794.154C391.282 808.407 386.219 828.044 377.122 839.957C376.546 839.574 375.788 838.886 375.522 838.231C368.703 821.491 361.084 805.163 353.358 788.821C330.527 741.22 308.11 693.421 286.108 645.431C278.972 629.461 271.57 613.612 263.905 597.89C259.818 589.326 256.099 578.773 249.987 571.592C244.551 565.204 230.75 566.534 222.97 566.547L190.489 566.582L93.4226 566.544C81.2606 566.496 63.9482 567.033 52.3225 566.483L51.6561 565.637Z"/><path fill="#7471F5" transform="scale(0.234375 0.234375)" d="M211.561 220.716C218.257 220.926 218.545 233.946 222.829 239.412C227.789 245.741 240.725 247.232 242.899 252.199C241.817 257.97 230.993 257.275 225.33 262.785C218.594 269.339 218.683 277.09 214.105 284.131C207.725 282.071 207.201 269.718 203.316 264.733C199.05 259.261 185.246 257.571 181.905 252.466C182.215 248.073 194.397 246.8 199.442 242.675C207.449 236.128 205.968 227.767 211.561 220.716Z"/><path fill="#E4E4E4" transform="scale(0.234375 0.234375)" d="M627.316 100.844C635 101.474 634.166 116.315 639.285 121.322C643.278 125.227 656.449 127.006 657.423 132.221C656.19 137.34 643.057 138.064 639.71 141.226C634.168 146.462 635.348 156.196 629.059 161.64C622.516 159.43 623.402 147.46 618.815 142.124C615.022 137.711 597.897 137.259 598.825 130.891C601.873 127.613 612.191 124.873 617.229 122.166L617.826 121.84C621.389 115.153 623.488 104.563 627.316 100.844Z"/><path fill="#E4E4E4" transform="scale(0.234375 0.234375)" d="M274.059 339.436C281.333 339.733 280.756 352.482 285.043 357.946C289.066 363.074 303.353 363.282 304.067 368.476C301.95 374.108 290.959 373.805 286.691 377.538C280.723 382.759 281.339 393.358 275.618 398.918C268.569 395.536 270.055 383.511 264.375 377.862C260.256 373.766 244.975 373.127 245.964 367.329C249.047 363.794 257.316 363.107 262.286 359.857C271.464 353.855 267.465 347.478 274.059 339.436Z"/></svg>