<?xml version="1.0" encoding="utf-8" ?><svg xmlns="http://www.w3.org/2000/svg" xmlns:xlink="http://www.w3.org/1999/xlink" width="240" height="240" viewBox="0 0 240 240"><path fill="#FEFEFE" transform="scale(0.234375 0.234375)" d="M0 0L1024 0L1024 557.141L1024 610.197L1024 630.251L1024 710.884L1024 1024L0 1024L0 700.522L0 136.955L0 0Z"/><path fill="#FEFEFE" transform="scale(0.234375 0.234375)" d="M696.303 466.991C699.656 464.207 702.127 462.1 705.204 459.04C730.776 509.721 790.224 550.246 845.768 520.045C870.863 506.4 885.301 490.926 900.21 467.162C903.013 467.915 904.661 468.577 907.306 469.645C913.233 471.774 925.454 478.393 931.266 481.366C934.485 483.096 946.106 489.302 948.621 491.608C963.58 500.246 974.09 509.259 985.811 521.76L986.552 520.806C988.981 520.567 992.667 524.219 994.669 525.725C1005.79 534.092 1016.13 545.674 1024 557.141L1024 610.197L1024 630.251L1024 710.884L1024 1024L0 1024L0 700.522C3.34284 708.972 6.33248 714.877 16.0066 717.077C27.5031 733.051 40.4732 731.035 58.0315 731.006L91.2016 730.952L212.838 730.953L656.321 731.104C656.296 738.493 655.745 762.024 656.568 768.276C657.146 763.528 656.864 753.339 656.856 748.036C656.889 735.688 656.839 723.339 656.704 710.991C656.502 679.379 656.519 647.766 656.753 616.154C655.932 614.721 656.033 615.148 653.968 614.433C655.808 614.314 656.476 614.969 658.262 614.198C659.109 609.732 658.663 592.374 658.753 587.142C659.026 567.829 659.058 548.513 658.849 529.198C658.834 523.496 659.394 495.285 657.817 491.543C662.39 489.13 668.354 486.194 672.529 483.349C679.117 479.75 690.323 471.569 696.303 466.991Z"/><path fill="#3E3C55" transform="scale(0.234375 0.234375)" d="M696.303 466.991C699.656 464.207 702.127 462.1 705.204 459.04C730.776 509.721 790.224 550.246 845.768 520.045C870.863 506.4 885.301 490.926 900.21 467.162C903.013 467.915 904.661 468.577 907.306 469.645C913.233 471.774 925.454 478.393 931.266 481.366C934.485 483.096 946.106 489.302 948.621 491.608C963.58 500.246 974.09 509.259 985.811 521.76L986.552 520.806C988.981 520.567 992.667 524.219 994.669 525.725C1005.79 534.092 1016.13 545.674 1024 557.141L1024 610.197L1024 630.251C1022.53 639.24 1021.81 647.728 1019.57 656.613C1010.11 692.97 988.178 724.851 957.611 746.69C955.107 748.484 951.628 750.881 949.008 752.492C948.86 757.264 949.054 763.119 949.275 767.943C945.156 767.872 923.619 767.113 921.181 768.185L920.692 769.488L920.239 767.673C913.151 768.033 905.18 767.845 898 767.95L835.578 768.256C828.208 768.231 820.827 768.13 813.46 768.135C810.866 768.136 805.702 767.795 803.732 769.013L803.087 768.734C800.952 768.139 783.167 768.356 779.183 768.354L721.731 768.308C715.302 768.321 708.874 768.287 702.446 768.205C698.608 768.137 691.92 767.735 688.467 768.26C678.484 768.649 666.532 768.502 656.568 768.276C657.146 763.528 656.864 753.339 656.856 748.036C656.889 735.688 656.839 723.339 656.704 710.991C656.502 679.379 656.519 647.766 656.753 616.154C655.932 614.721 656.033 615.148 653.968 614.433C655.808 614.314 656.476 614.969 658.262 614.198C659.109 609.732 658.663 592.374 658.753 587.142C659.026 567.829 659.058 548.513 658.849 529.198C658.834 523.496 659.394 495.285 657.817 491.543C662.39 489.13 668.354 486.194 672.529 483.349C679.117 479.75 690.323 471.569 696.303 466.991Z"/><path fill="#2E2D40" transform="scale(0.234375 0.234375)" d="M949.008 752.492C947.941 750.209 948.049 736.412 948.031 733.205L947.967 695.341L947.958 561.304L947.929 516.24C947.927 512.804 947.455 493.543 948.621 491.608C963.58 500.246 974.09 509.259 985.811 521.76L986.552 520.806C988.981 520.567 992.667 524.219 994.669 525.725C1005.79 534.092 1016.13 545.674 1024 557.141L1024 610.197L1024 630.251C1022.53 639.24 1021.81 647.728 1019.57 656.613C1010.11 692.97 988.178 724.851 957.611 746.69C955.107 748.484 951.628 750.881 949.008 752.492Z"/><path fill="#E4E4E4" transform="scale(0.234375 0.234375)" d="M985.811 521.76L986.552 520.806C988.981 520.567 992.667 524.219 994.669 525.725C1005.79 534.092 1016.13 545.674 1024 557.141L1024 610.197C1022.51 605.177 1021.82 594.786 1020.39 588.633C1013.96 560.837 1003.77 543.124 985.811 521.76Z"/><path fill="#2E2D40" transform="scale(0.234375 0.234375)" d="M803.732 769.013C805.702 767.795 810.866 768.136 813.46 768.135C820.827 768.13 828.208 768.231 835.578 768.256L898 767.95C905.18 767.845 913.151 768.033 920.239 767.673L920.692 769.488C921.297 810.859 923.066 853.369 922.997 894.602L940.501 894.647L1001.26 894.839C1004.84 894.849 1020.51 894.228 1022.16 895.329C1022.97 896.727 1023.29 898.129 1022.03 899.322C1012.3 900.143 997.694 899.581 987.418 899.625L922.698 899.913L724.355 899.67L450.795 899.836L386.72 899.894C378.465 899.921 368.027 900.435 359.773 899.66C358.368 899.528 358.034 898.718 357.479 897.777C357.555 894.516 360.91 894.122 363.695 894.143C373.705 894.219 383.695 894.343 393.707 894.344L465.281 894.339L684.559 894.459C685.64 870.557 686.209 845.93 686.904 822.001C687.52 804.09 688.041 786.176 688.467 768.26C691.92 767.735 698.608 768.137 702.446 768.205C708.874 768.287 715.302 768.321 721.731 768.308L779.183 768.354C783.167 768.356 800.952 768.139 803.087 768.734L803.732 769.013Z"/><path fill="#E4E4E4" transform="scale(0.234375 0.234375)" d="M803.087 768.734L803.732 769.013C807.571 810.282 809.486 852.953 812.636 894.62L794.466 894.596C797.941 864.701 797.371 833.084 800.414 802.997C801.557 791.691 802.555 780.07 803.087 768.734Z"/><path fill="#E4E4E4" transform="scale(0.234375 0.234375)" d="M949.008 752.492C951.628 750.881 955.107 748.484 957.611 746.69C988.178 724.851 1010.11 692.97 1019.57 656.613C1021.81 647.728 1022.53 639.24 1024 630.251L1024 710.884C1008.08 738.478 996.259 750.873 970.083 769.063C970.022 775.164 970.095 781.266 970.303 787.364C961.193 786.769 950.297 787.024 941.033 787.104L940.501 894.647L922.997 894.602C923.066 853.369 921.297 810.859 920.692 769.488L921.181 768.185C923.619 767.113 945.156 767.872 949.275 767.943C949.054 763.119 948.86 757.264 949.008 752.492Z"/><path fill="#FEFEFE" transform="scale(0.234375 0.234375)" d="M0 0L1024 0L1024 557.141C1016.13 545.674 1005.79 534.092 994.669 525.725C992.667 524.219 988.981 520.567 986.552 520.806L985.811 521.76C974.09 509.259 963.58 500.246 948.621 491.608C946.106 489.302 934.485 483.096 931.266 481.366C925.454 478.393 913.233 471.774 907.306 469.645C904.661 468.577 903.013 467.915 900.21 467.162C885.301 490.926 870.863 506.4 845.768 520.045C790.224 550.246 730.776 509.721 705.204 459.04C702.127 462.1 699.656 464.207 696.303 466.991C694.304 461.251 693.411 453.712 692.506 447.606C683.359 438.173 680.025 434.158 674.203 422.512C666.236 402.921 664.197 384.274 668.568 363.383C669.478 359.036 671.981 352.749 673.329 348.252C671.248 344.498 672.592 221.144 672.594 205.399L672.608 174.289C672.632 166.367 673.827 152.817 669.491 145.855C666.341 140.796 658.627 140.338 653.165 139.405C652.014 132.388 645.82 125.056 638.462 124.657C626.997 124.035 615.279 124.442 603.772 124.464L536.211 124.496L134.234 124.513L54.8575 124.477C44.4064 124.438 33.5217 124.468 23.1252 124.346C10.015 124.191 6.34234 125.464 0 136.955L0 0Z"/><path fill="#FEFEFE" transform="scale(0.234375 0.234375)" d="M689.25 324.472C684.584 317.476 663.046 280.841 686.24 282.439C691.555 282.805 698.675 284.958 704.17 285.807C713.434 287.24 722.254 287.668 731.577 287.602C743.572 287.505 755.533 286.301 767.306 284.005C783.272 280.941 792.571 277.054 809.436 277.713C822.574 278.225 830.614 280.208 843.307 283.063C865.486 288.052 889.249 289.344 911.635 285.194C927.683 282.128 935.429 281.989 931.197 301.145C928.036 310.612 926.097 314.729 920.462 322.988C937.394 344.647 945.974 376.57 937.556 403.003C930.461 425.28 918.617 449.274 907.306 469.645C904.661 468.577 903.013 467.915 900.21 467.162C885.301 490.926 870.863 506.4 845.768 520.045C790.224 550.246 730.776 509.721 705.204 459.04C702.127 462.1 699.656 464.207 696.303 466.991C694.304 461.251 693.411 453.712 692.506 447.606C683.359 438.173 680.025 434.158 674.203 422.512C666.236 402.921 664.197 384.274 668.568 363.383C669.478 359.036 671.981 352.749 673.329 348.252C678.297 337.962 681.29 332.599 689.25 324.472Z"/><path fill="#9A99A2" transform="scale(0.234375 0.234375)" d="M689.25 324.472C684.584 317.476 663.046 280.841 686.24 282.439C691.555 282.805 698.675 284.958 704.17 285.807C713.434 287.24 722.254 287.668 731.577 287.602C743.572 287.505 755.533 286.301 767.306 284.005C783.272 280.941 792.571 277.054 809.436 277.713C822.574 278.225 830.614 280.208 843.307 283.063C865.486 288.052 889.249 289.344 911.635 285.194C927.683 282.128 935.429 281.989 931.197 301.145C928.036 310.612 926.097 314.729 920.462 322.988C937.394 344.647 945.974 376.57 937.556 403.003C930.461 425.28 918.617 449.274 907.306 469.645C904.661 468.577 903.013 467.915 900.21 467.162C901.972 463.301 905.174 457.859 907.227 453.812C911.365 445.597 915.214 437.239 918.767 428.755C920.18 425.367 922.648 419.394 923.335 415.948C960.232 335.569 853.765 277.255 810.844 354.275C808.276 358.883 807.196 365.151 804.36 369.75L803.67 369.456C801.933 366.271 801.697 363.505 800.437 360.269C787.782 327.755 752.682 309.267 719.425 321.189C702.817 327.093 689.321 339.491 682.033 355.539C674.286 372.314 673.474 391.469 679.774 408.839C682.558 419.695 690.48 433.02 699.362 440.025C700.923 446.077 702.717 453.388 705.204 459.04C702.127 462.1 699.656 464.207 696.303 466.991C694.304 461.251 693.411 453.712 692.506 447.606C683.359 438.173 680.025 434.158 674.203 422.512C666.236 402.921 664.197 384.274 668.568 363.383C669.478 359.036 671.981 352.749 673.329 348.252C678.297 337.962 681.29 332.599 689.25 324.472Z"/><path fill="#E4E4E4" transform="scale(0.234375 0.234375)" d="M679.774 408.839C682.863 411.452 687.331 419.82 690.234 423.543C702.729 439.757 722.211 449.035 742.674 448.518C753.028 448.214 766.183 444.177 774.804 438.312C778.287 435.943 782.77 431.429 786.583 428.609C789.673 435.79 799.447 463.338 803.112 466.959C803.832 467.162 804.126 467.446 804.836 467.051C808.294 465.124 818.194 434.801 821.045 428.985C849.182 453.211 884.315 456.181 912.444 429.176C916.565 425.22 919.576 419.914 923.335 415.948C922.648 419.394 920.18 425.367 918.767 428.755C915.214 437.239 911.365 445.597 907.227 453.812C905.174 457.859 901.972 463.301 900.21 467.162C885.301 490.926 870.863 506.4 845.768 520.045C790.224 550.246 730.776 509.721 705.204 459.04C702.717 453.388 700.923 446.077 699.362 440.025C690.48 433.02 682.558 419.695 679.774 408.839Z"/><path fill="#3E3C55" transform="scale(0.234375 0.234375)" d="M786.583 428.609C793.261 418.25 798.348 408.081 801.259 396C801.747 393.975 802.431 391.008 804.299 389.935C804.914 390.045 805.48 389.951 805.668 390.586C809.869 404.752 812.077 416.639 821.045 428.985C818.194 434.801 808.294 465.124 804.836 467.051C804.126 467.446 803.832 467.162 803.112 466.959C799.447 463.338 789.673 435.79 786.583 428.609Z"/><path fill="#3E3C55" transform="scale(0.234375 0.234375)" d="M851.491 369.806C860.158 368.293 868.4 374.124 869.858 382.801C871.316 391.477 865.434 399.682 856.749 401.086C848.14 402.477 840.024 396.658 838.578 388.058C837.133 379.459 842.901 371.306 851.491 369.806Z"/><path fill="#3E3C55" transform="scale(0.234375 0.234375)" d="M749.452 370.77C757.71 368.637 766.153 373.522 768.419 381.744C770.686 389.966 765.939 398.486 757.755 400.886C752.342 402.473 746.493 401.018 742.454 397.08C738.415 393.142 736.813 387.331 738.263 381.88C739.713 376.428 743.99 372.181 749.452 370.77Z"/><path fill="#E4E4E4" transform="scale(0.234375 0.234375)" d="M931.197 301.145C935.537 304.602 944.854 294.106 954.544 307.649C954.858 319.31 950.163 326.841 944.163 336.554C960.706 366.833 966.233 386.606 957.677 421.527C953.078 440.296 933.666 464.256 931.266 481.366C925.454 478.393 913.233 471.774 907.306 469.645C918.617 449.274 930.461 425.28 937.556 403.003C945.974 376.57 937.394 344.647 920.462 322.988C926.097 314.729 928.036 310.612 931.197 301.145Z"/><path fill="#CACACA" transform="scale(0.234375 0.234375)" d="M0 136.955C6.34234 125.464 10.015 124.191 23.1252 124.346C33.5217 124.468 44.4064 124.438 54.8575 124.477L134.234 124.513L536.211 124.496L603.772 124.464C615.279 124.442 626.997 124.035 638.462 124.657C645.82 125.056 652.014 132.388 653.165 139.405C658.627 140.338 666.341 140.796 669.491 145.855C673.827 152.817 672.632 166.367 672.608 174.289L672.594 205.399C672.592 221.144 671.248 344.498 673.329 348.252C671.981 352.749 669.478 359.036 668.568 363.383C664.197 384.274 666.236 402.921 674.203 422.512C680.025 434.158 683.359 438.173 692.506 447.606C693.411 453.712 694.304 461.251 696.303 466.991C690.323 471.569 679.117 479.75 672.529 483.349C668.354 486.194 662.39 489.13 657.817 491.543L652.986 493.853C651.604 494.523 650.163 495.25 648.764 495.864C648.068 486.437 648.496 472.623 648.51 462.781L648.615 403.302L648.566 223.675L648.552 169.482C648.549 160.518 648.747 151.009 648.294 142.025C647.951 135.21 644.958 129.486 637.275 129.019C619.87 127.961 602.026 128.416 584.504 128.404L493.117 128.423L258.314 128.366L98.1724 128.386L42.7801 128.457C33.6977 128.484 24.4524 128.486 15.3759 128.605C11.9923 128.844 8.82404 130.547 6.69788 133.175C4.92469 135.367 4.18488 137.326 4.16245 140.121C4.05238 153.832 4.14086 167.554 4.10538 181.266L3.97095 269.086L3.65366 499.159L3.92522 637.893L3.96643 677.563C3.97349 684.745 3.73178 692.195 4.36849 699.32C5.25479 709.237 14.0481 713.727 23.0716 713.824C39.4556 714 55.7909 713.941 72.1551 713.934L162.035 713.95L441.137 713.981L571.097 713.976C584.369 713.972 597.641 713.882 610.913 713.707C622.991 713.552 635.506 715.713 643.425 704.437C645.32 701.685 646.561 698.536 647.051 695.23C647.77 690.655 647.614 674.329 647.506 668.693C647.246 655.108 647.94 638.979 646.942 625.658C634.964 623.749 592.471 605.364 591.304 594.342C608.103 603.835 622.347 609.792 641.514 613.092C644.749 613.648 650.908 614.683 653.968 614.433C656.033 615.148 655.932 614.721 656.753 616.154C656.519 647.766 656.502 679.379 656.704 710.991C656.839 723.339 656.889 735.688 656.856 748.036C656.864 753.339 657.146 763.528 656.568 768.276C655.745 762.024 656.296 738.493 656.321 731.104L212.838 730.953L91.2016 730.952L58.0315 731.006C40.4732 731.035 27.5031 733.051 16.0066 717.077C6.33248 714.877 3.34284 708.972 0 700.522L0 136.955Z"/><path fill="#E4E4E4" transform="scale(0.234375 0.234375)" d="M591.304 594.342C608.103 603.835 622.347 609.792 641.514 613.092C644.749 613.648 650.908 614.683 653.968 614.433C656.033 615.148 655.932 614.721 656.753 616.154C656.519 647.766 656.502 679.379 656.704 710.991C656.839 723.339 656.889 735.688 656.856 748.036C656.864 753.339 657.146 763.528 656.568 768.276C655.745 762.024 656.296 738.493 656.321 731.104L212.838 730.953L91.2016 730.952L58.0315 731.006C40.4732 731.035 27.5031 733.051 16.0066 717.077L415.58 717.091L558.074 717.061L604.154 716.77C612.715 716.753 621.87 716.998 630.385 716.579C636.221 716.291 639.844 714.744 644.026 710.572C647.512 707.064 649.909 702.623 650.929 697.784C652.048 692.573 651.606 678.973 651.571 673.011C651.493 663.166 651.518 653.319 651.645 643.474C651.66 639.092 652.407 627.632 649.508 624.714C647.669 624.751 648.511 624.492 646.942 625.658C634.964 623.749 592.471 605.364 591.304 594.342Z"/><path fill="#E4E4E4" transform="scale(0.234375 0.234375)" d="M653.165 139.405C658.627 140.338 666.341 140.796 669.491 145.855C673.827 152.817 672.632 166.367 672.608 174.289L672.594 205.399C672.592 221.144 671.248 344.498 673.329 348.252C671.981 352.749 669.478 359.036 668.568 363.383C664.197 384.274 666.236 402.921 674.203 422.512C680.025 434.158 683.359 438.173 692.506 447.606C693.411 453.712 694.304 461.251 696.303 466.991C690.323 471.569 679.117 479.75 672.529 483.349C668.354 486.194 662.39 489.13 657.817 491.543L652.986 493.853C652.694 493.05 653.026 462.019 653.025 459.08L653.403 274.599L653.307 177.57C653.341 166.164 652.64 150.328 653.165 139.405Z"/><path fill="#FEFEFE" transform="scale(0.234375 0.234375)" d="M672.529 483.349C671.756 481.143 671.911 473.665 671.965 471.009C672.286 455.253 672.201 439.384 673.332 423.67C673.622 423.284 673.913 422.898 674.203 422.512C680.025 434.158 683.359 438.173 692.506 447.606C693.411 453.712 694.304 461.251 696.303 466.991C690.323 471.569 679.117 479.75 672.529 483.349Z"/><path fill="#2E2D40" transform="scale(0.234375 0.234375)" d="M591.304 594.342C570.502 582.646 561.008 567.93 547.883 549.232L521.857 512.333C516.173 504.299 510.447 496.295 504.68 488.321C501.316 483.676 497.631 479.024 494.813 474.042C490.11 465.731 493.591 456.238 502.227 452.39C506.235 450.642 510.787 450.628 514.806 452.352C520.361 454.715 526.806 460.963 531.515 465.067C537.715 470.403 543.952 475.697 550.225 480.947C564.113 492.645 572.744 500.798 591.013 505.343C613.192 510.862 628.923 504.967 648.764 495.864C650.163 495.25 651.604 494.523 652.986 493.853L657.817 491.543C659.394 495.285 658.834 523.496 658.849 529.198C659.058 548.513 659.026 567.829 658.753 587.142C658.663 592.374 659.109 609.732 658.262 614.198C656.476 614.969 655.808 614.314 653.968 614.433C650.908 614.683 644.749 613.648 641.514 613.092C622.347 609.792 608.103 603.835 591.304 594.342Z"/><path fill="#A9ACFD" transform="scale(0.234375 0.234375)" d="M139.096 625.42L139.109 381.877C139.249 363.48 139.278 345.081 139.198 326.684C139.196 320.758 138.332 291.313 141.217 288.079C143.306 286.984 146.509 286.032 148.847 286.053C171.999 286.263 195.939 285.294 219.03 286.189C223.809 289.087 224.307 291.081 224.478 296.454C230.958 296.554 241.077 296.28 241.385 304.93C241.703 313.847 241.641 322.746 241.649 331.668L241.592 384.441L241.639 540C241.51 559.417 241.49 578.835 241.581 598.252C241.584 606.233 241.151 617.802 241.578 625.444C235.946 625.493 229.56 625.701 224.001 625.302C217.752 624.697 203.607 625.192 196.873 625.227C177.615 625.41 158.355 625.474 139.096 625.42Z"/><path fill="#E4E4E4" transform="scale(0.234375 0.234375)" d="M224.478 296.454C230.958 296.554 241.077 296.28 241.385 304.93C241.703 313.847 241.641 322.746 241.649 331.668L241.592 384.441L241.639 540C241.51 559.417 241.49 578.835 241.581 598.252C241.584 606.233 241.151 617.802 241.578 625.444C235.946 625.493 229.56 625.701 224.001 625.302L224.478 296.454Z"/><path fill="#6C63FF" transform="scale(0.234375 0.234375)" d="M492.15 211.196L496.542 211.224C496.771 244.114 496.772 277.005 496.546 309.895C528.835 310.434 562.546 309.854 595.029 309.938C594.94 337.672 586.443 361.303 567.038 381.516C548.648 400.706 523.443 411.885 496.875 412.637C471.393 413.38 446.549 404.597 427.197 388.003C407.366 370.727 395.248 346.251 393.532 320.006C391.963 292.679 401.302 265.846 419.498 245.398C438.739 223.806 463.603 212.841 492.15 211.196Z"/><path fill="#A9ACFD" transform="scale(0.234375 0.234375)" d="M302.112 625.253L302.291 509.72C302.302 486.293 302.159 462.866 302.223 439.44C302.233 435.91 302.154 429.729 306.791 428.837C312.752 427.69 319.713 428.118 325.842 428.111L360.131 428.161C369.739 428.167 382.96 424.142 385.246 435.791C389.016 435.949 392.523 435.973 396.298 435.964C399.046 437.54 402.079 439.272 402.693 442.659C403.909 449.368 403.565 457.648 403.547 464.493L403.46 496.191L403.471 625.602C397.729 625.733 390.581 625.939 384.919 625.398C378.482 624.874 364.683 625.292 357.83 625.285L302.112 625.253Z"/><path fill="#E4E4E4" transform="scale(0.234375 0.234375)" d="M385.246 435.791C389.016 435.949 392.523 435.973 396.298 435.964C399.046 437.54 402.079 439.272 402.693 442.659C403.909 449.368 403.565 457.648 403.547 464.493L403.46 496.191L403.471 625.602C397.729 625.733 390.581 625.939 384.919 625.398L385.098 502.632L385 460.31C384.987 453.273 384.675 442.492 385.246 435.791Z"/><path fill="#E4E4E4" transform="scale(0.234375 0.234375)" d="M302.112 625.253L357.83 625.285C364.683 625.292 378.482 624.874 384.919 625.398C390.581 625.939 397.729 625.733 403.471 625.602C409.891 625.529 431.646 624.659 436.532 626.358L437.297 627.277C436.903 629.21 435.488 629.946 433.681 630.575C432.329 631.306 432.457 631.302 431.274 632.282L431.235 633.13C435.421 635.478 449.471 632.159 454.322 635.419C458.03 637.91 456.054 642.535 451.84 642.73C438.726 643.339 425.538 642.718 412.418 642.756C393.554 642.81 374.704 642.962 355.836 642.962L275.044 642.704C237.045 642.869 199.019 643.082 161.019 643C158.811 642.995 153.162 643.003 151.563 641.704C150.702 638.691 151.279 633.255 151.464 629.954C146.212 630.17 127.31 631.427 124.189 628.326C123.96 626.52 123.765 627.322 124.76 625.83C128.174 624.094 134.994 625.13 139.096 625.42C158.355 625.474 177.615 625.41 196.873 625.227C203.607 625.192 217.752 624.697 224.001 625.302C229.56 625.701 235.946 625.493 241.578 625.444C253.63 625.587 265.886 625.445 277.957 625.485C285.218 625.509 295.077 625.764 302.112 625.253Z"/><path fill="#CACACA" transform="scale(0.234375 0.234375)" d="M302.112 625.253L357.83 625.285C364.683 625.292 378.482 624.874 384.919 625.398C390.581 625.939 397.729 625.733 403.471 625.602C409.891 625.529 431.646 624.659 436.532 626.358L437.297 627.277C436.903 629.21 435.488 629.946 433.681 630.575C428.221 629.425 408.815 629.611 402.668 629.627L354.493 629.674L151.464 629.954C146.212 630.17 127.31 631.427 124.189 628.326C123.96 626.52 123.765 627.322 124.76 625.83C128.174 624.094 134.994 625.13 139.096 625.42C158.355 625.474 177.615 625.41 196.873 625.227C203.607 625.192 217.752 624.697 224.001 625.302C229.56 625.701 235.946 625.493 241.578 625.444C253.63 625.587 265.886 625.445 277.957 625.485C285.218 625.509 295.077 625.764 302.112 625.253Z"/></svg>