<?xml version="1.0" encoding="utf-8" ?><svg xmlns="http://www.w3.org/2000/svg" xmlns:xlink="http://www.w3.org/1999/xlink" width="240" height="240" viewBox="0 0 240 240"><path fill="#FEFEFE" transform="scale(0.234375 0.234375)" d="M0 0L1024 0L1024 505.895L1024 526.924L1024 1024L0 1024L0 749.783L0 729.735L0 0Z"/><path fill="#3E3C55" transform="scale(0.234375 0.234375)" d="M114.394 472.167L114.354 438.061C114.347 434.542 113.862 423.269 114.679 420.52C119.87 403.058 129.971 416.373 137.272 422.875C148.111 432.53 159.458 444.646 171.461 452.626C175.44 455.272 188.907 454.455 194.281 454.411L222.532 454.254L254.882 454.283C262.384 454.303 272.609 454.981 279.77 453.347C287.602 451.561 294.111 444.254 300.034 438.84C308.818 430.812 317.643 421.243 326.741 413.507C327.558 412.813 329.333 412.434 330.43 412.432C332.341 412.414 334.167 413.219 335.444 414.641C336.417 415.739 337.306 417.662 337.363 419.128C338.026 436.347 337.155 453.69 337.356 470.93C343.4 476.711 349.872 481.326 355.89 487.081C379.228 509.403 393.795 540.353 394.454 572.813C394.696 584.74 394.371 597.363 394.406 609.348C394.416 612.853 394.128 624.169 394.787 626.946L394.73 627.547C394.143 634.267 394.574 642.37 394.475 649.235C394.159 671.314 396.038 692.982 392.183 714.87C390.058 726.934 387.341 736.101 383.289 747.57C381.96 751.334 374.187 767.014 374.048 769.325C370.448 774.921 366.906 780.556 363.425 786.227C360.634 790.41 358.552 793.288 355.399 797.199C349.639 798.251 344.167 801.552 338.487 803.035C314.054 809.416 288.19 802.662 271.088 783.748C269.166 785.639 267.214 787.645 265.185 789.415C240.385 811.048 208.986 810.456 186.189 786.575C185.186 785.52 184.196 784.452 183.221 783.371C167.575 803.779 139.273 808.963 115.402 803.764C112.034 803.031 105.612 800.58 102.528 800.641C100.098 797.98 98.2696 795.401 96.1408 792.502C93.1089 788.714 89.0707 782.165 86.2575 777.898C84.9773 775.526 84.094 773.902 82.5429 771.648C81.1944 766.876 76.1635 758.319 74.0533 753.384C63.7059 729.188 60.4694 706.025 59.8602 680.169C59.6844 672.708 60.49 633.131 58.9487 629.062C59.3434 626.912 59.1802 604.269 59.0842 601.071C57.7684 557.205 61.7938 528.081 91.7974 493.668C96.5842 488.407 99.6349 485.381 105.256 481.058C108.923 478.159 111.661 476.022 114.394 472.167Z"/><path fill="#2E2D40" transform="scale(0.234375 0.234375)" d="M271.597 773.526C276.317 778.233 281.35 783.802 286.706 787.638C306.947 802.137 329.352 801.81 351.078 791.008C355.801 788.66 358.097 785.328 363.425 786.227C360.634 790.41 358.552 793.288 355.399 797.199C349.639 798.251 344.167 801.552 338.487 803.035C314.054 809.416 288.19 802.662 271.088 783.748C269.166 785.639 267.214 787.645 265.185 789.415C240.385 811.048 208.986 810.456 186.189 786.575C185.186 785.52 184.196 784.452 183.221 783.371C167.575 803.779 139.273 808.963 115.402 803.764C112.034 803.031 105.612 800.58 102.528 800.641C100.098 797.98 98.2696 795.401 96.1408 792.502L97.0546 791.77C100.803 791.674 114.029 796.815 119.688 797.763C138.742 801.422 157.335 796.917 172.235 784.374C176.137 781.089 179.681 776.347 183.865 773.65C187.189 776.909 190.105 780.9 193.372 784.219C211.647 802.785 239.738 802.389 258.889 785.303C263.191 781.464 266.927 776.779 271.597 773.526Z"/><path fill="#FEFEFE" transform="scale(0.234375 0.234375)" d="M227.676 559.514C231.145 531.181 252.983 508.584 281.181 504.15C309.379 499.715 337.098 514.518 349.096 540.419C361.095 566.319 354.462 597.036 332.845 615.678C311.228 634.319 279.87 636.365 256.015 620.69C249.049 616.113 243.045 610.217 238.343 603.334C232.171 594.302 228.421 583.836 227.453 572.938L226.106 573.433C226.473 569.297 226.434 565.135 225.992 561.007L227.676 559.514Z"/><path fill="#CACACA" transform="scale(0.234375 0.234375)" d="M225.992 561.007L227.676 559.514C227.13 563.968 227.055 568.468 227.453 572.938L226.106 573.433C226.473 569.297 226.434 565.135 225.992 561.007Z"/><path fill="#3E3C55" transform="scale(0.234375 0.234375)" d="M289.344 538.298C305.342 537.28 319.118 549.466 320.06 565.469C321.002 581.472 308.751 595.189 292.744 596.056C276.844 596.916 263.237 584.765 262.301 568.869C261.366 552.973 273.452 539.309 289.344 538.298Z"/><path fill="#FEFEFE" transform="scale(0.234375 0.234375)" d="M226.106 573.433C223.103 607.299 194.052 632.848 160.08 631.501C126.108 630.154 99.1708 602.384 98.8589 568.387C98.5469 534.39 124.97 506.13 158.911 504.16C192.853 502.19 222.368 527.202 225.992 561.007C226.434 565.135 226.473 569.297 226.106 573.433Z"/><path fill="#3E3C55" transform="scale(0.234375 0.234375)" d="M157.719 539.455C173.256 536.727 188.07 547.088 190.838 562.617C193.606 578.147 183.284 592.988 167.762 595.796C152.182 598.615 137.275 588.247 134.497 572.661C131.718 557.074 142.125 542.194 157.719 539.455Z"/><path fill="#9AA2F9" transform="scale(0.234375 0.234375)" d="M238.343 603.334C243.045 610.217 249.049 616.113 256.015 620.69C256.332 628.819 253.441 632.062 248.874 638.548C241.221 649.415 233.811 660.689 225.714 671.221C220.499 663.763 196.798 631.75 195.847 625.891C197.208 622.052 203.482 620.03 207.034 616.338C210.822 612.4 213.51 608.539 217.086 604.653L217.314 604.302L238.343 603.334Z"/><path fill="#2E2D40" transform="scale(0.234375 0.234375)" d="M226.381 724.764C230.112 726.643 232.78 730.503 235.618 733.462C252.07 750.608 278.028 752.789 298.147 740.869C303.053 737.962 311.151 727.541 315.681 727.861C317.188 729.224 316.68 728.419 317.262 730.365C316.738 733.93 315.028 735.264 312.737 737.725C292.993 758.922 258.964 761.864 236.239 743.706C233.392 741.431 230.105 737.633 227.425 734.884C224.2 738.147 221.286 741.035 217.615 743.812C205.126 753.161 189.436 757.17 173.993 754.955C165.752 753.76 157.758 750.475 150.972 745.688C146.979 742.872 135.22 735.051 136.118 729.597C137.434 727.868 136.622 728.494 138.669 727.681C141.975 727.728 146.998 733.963 149.967 736.532C159.751 745.111 172.531 749.471 185.519 748.662C204.904 747.3 214.769 738.222 226.381 724.764Z"/><defs><linearGradient id="gradient_0" gradientUnits="userSpaceOnUse" x1="959.04803" y1="599.10779" x2="558.50989" y2="688.4726"><stop offset="0" stop-color="#5459C4"/><stop offset="1" stop-color="#6C73E6"/></linearGradient></defs><path fill="url(#gradient_0)" transform="scale(0.234375 0.234375)" d="M752.163 800.602C748.698 801.363 734.651 801.612 730.902 801.5C678.205 799.934 629.952 781.298 593.515 742.612C564.442 711.746 548.378 674.066 550.076 631.326C551.643 597.205 566.701 565.103 591.938 542.083C621.237 515.117 661.912 503.701 701.066 505.85C759.36 509.05 808.626 537.796 844.98 582.121C849.923 588.079 854.544 594.297 858.824 600.748C865.265 610.548 870.414 622.384 882.256 625.925C891.505 628.69 902.04 626.843 908.873 619.838C911.708 616.914 913.691 613.272 914.608 609.304C916.039 603.329 915.364 578.299 915.309 570.827C919.656 570.17 949.298 570.482 954.183 570.955C954.082 583.642 954.318 596.163 952.993 608.792C944.943 685.547 893.639 747.699 826.497 781.653C823.587 783.237 821.949 784.195 818.62 784.168L818.212 784.329C815.963 785.234 810.329 788.185 808.914 788.575C792.99 792.959 769.565 800.922 753.497 800.523L752.163 800.602Z"/><path fill="#2E2D40" transform="scale(0.234375 0.234375)" d="M752.163 800.602C750.236 800.684 748.16 801.05 746.637 800.043C745.381 798.019 745.581 797.899 745.554 795.27C745.446 784.721 745.492 774.106 745.497 763.556L745.536 705.902C745.565 692.508 745.277 678.834 746.146 665.504C746.286 663.353 749.102 662.976 750.788 663.243C755.142 666.432 753.733 681.742 753.727 687.504L753.839 721.403L753.795 771.043C753.792 780.138 754.125 791.652 753.497 800.523L752.163 800.602Z"/><path fill="#2E2D40" transform="scale(0.234375 0.234375)" d="M818.62 784.168C817.271 780.39 817.055 708.646 818.56 705.796C819.076 704.82 819.876 704.196 820.98 704.03C822.117 703.859 823.667 704.549 824.531 705.29C825.574 706.184 825.912 707.059 826.049 708.375C826.711 714.702 826.178 721.504 826.156 727.883C826.094 745.666 825.208 763.933 826.497 781.653C823.587 783.237 821.949 784.195 818.62 784.168Z"/><path fill="#FEFEFE" transform="scale(0.234375 0.234375)" d="M635.573 572.792C661.456 568.616 685.828 586.204 690.02 612.085C694.211 637.967 676.638 662.349 650.759 666.556C624.858 670.768 600.45 653.176 596.255 627.272C592.059 601.368 609.666 576.971 635.573 572.792Z"/><path fill="#3E3C55" transform="scale(0.234375 0.234375)" d="M638.687 600.68C649.22 598.196 659.774 604.711 662.274 615.24C664.774 625.769 658.275 636.334 647.749 638.849C637.202 641.37 626.61 634.854 624.105 624.302C621.6 613.751 628.132 603.169 638.687 600.68Z"/><defs><linearGradient id="gradient_1" gradientUnits="userSpaceOnUse" x1="544.11902" y1="902.21552" x2="521.94586" y2="738.57349"><stop offset="0" stop-color="#2C2C35"/><stop offset="1" stop-color="#50505B"/></linearGradient></defs><path fill="url(#gradient_1)" transform="scale(0.234375 0.234375)" d="M183.221 783.371C184.196 784.452 185.186 785.52 186.189 786.575C208.986 810.456 240.385 811.048 265.185 789.415C267.214 787.645 269.166 785.639 271.088 783.748C288.19 802.662 314.054 809.416 338.487 803.035C344.167 801.552 349.639 798.251 355.399 797.199C346.588 808.219 336.549 818.2 325.478 826.947C321.069 830.438 312.832 836.048 309.078 839.51L771.6 839.787L900.325 839.738L938.973 839.741C945.665 839.741 952.427 839.717 959.12 839.785C960.036 839.794 961.343 840.123 961.937 840.764C963.377 842.32 963.062 841.98 963.224 843.862C962.737 845.13 962.404 845.884 961.145 846.529C958.755 847.754 804.87 847.074 786.535 847.053L333.8 847.073L193.265 846.959L144.6 846.982C136.515 846.984 126.662 847.258 118.724 846.908C121.79 846.152 145.96 846.378 150.519 846.373L149.978 845.65C147.965 842.921 146.048 841.324 143.167 839.495C140.567 836.924 137.747 834.594 134.952 832.241C123.361 822.48 112.117 812.444 102.528 800.641C105.612 800.58 112.034 803.031 115.402 803.764C139.273 808.963 167.575 803.779 183.221 783.371Z"/><path fill="#3E3C55" transform="scale(0.234375 0.234375)" d="M936.566 541.451C938.554 531.47 940.86 524.445 948.317 516.976C952.855 512.39 958.504 509.059 964.714 507.309C972.199 505.248 984.968 505.821 993.074 505.833L1024 505.895L1024 526.924C1020.28 542.862 1015.59 554.573 1000.99 563.885C987.003 572.808 970.28 571.175 954.183 570.955C949.298 570.482 919.656 570.17 915.309 570.827C888.221 571.893 857.388 572.431 851.076 536.455C849.706 528.645 851.12 514.306 851.425 506.029L883.206 505.964C889.332 505.952 897.473 505.659 903.308 506.652C907.829 507.399 912.182 508.941 916.165 511.208C928.514 518.246 933.067 528.371 936.566 541.451Z"/><path fill="#2E2D40" transform="scale(0.234375 0.234375)" d="M58.9487 629.062C60.49 633.131 59.6844 672.708 59.8602 680.169C60.4694 706.025 63.7059 729.188 74.0533 753.384C76.1635 758.319 81.1944 766.876 82.5429 771.648C76.7097 777.236 70.8747 783.744 65.0131 789.168C52.3803 800.856 37.0734 813.898 22.552 823.064C13.2322 806.955 5.78445 786.232 2.49608 767.975C1.42714 762.04 0.899437 755.799 0 749.783L0 729.735C0.840691 723.244 1.75431 716.678 3.05165 710.243C8.39425 683.742 21.5982 659.217 42.0381 641.328C47.4278 636.611 53.009 632.982 58.9487 629.062Z"/><path fill="#2E2D40" transform="scale(0.234375 0.234375)" d="M394.787 626.946C420.345 647.273 437.394 668.507 447.625 700.118C458.468 733.619 455.44 767.412 442.578 799.863C431.815 827.016 429.224 823.246 410.429 805.005L386.91 782.077C383.081 778.291 377.938 772.815 374.048 769.325C374.187 767.014 381.96 751.334 383.289 747.57C387.341 736.101 390.058 726.934 392.183 714.87C396.038 692.982 394.159 671.314 394.475 649.235C394.574 642.37 394.143 634.267 394.73 627.547L394.787 626.946Z"/><path fill="#E4E4E4" transform="scale(0.234375 0.234375)" d="M91.7974 493.668C89.4543 489.996 90.5803 473.556 90.5251 468.197L90.4507 385.109C89.9548 345.976 89.9375 306.838 90.3986 267.704C90.4268 254.824 90.5988 240.173 90.1662 227.376C89.1678 197.84 108.42 176.515 138.15 177.273C130.995 181.344 127.253 182.052 120.833 188.041C103.552 204.161 106.095 222.771 106.123 244.244L106.185 293.813L105.49 407.711C105.381 431.702 105.881 457.151 105.256 481.058C99.6349 485.381 96.5842 488.407 91.7974 493.668Z"/><path fill="#E4E4E4" transform="scale(0.234375 0.234375)" d="M86.2575 777.898C89.0707 782.165 93.1089 788.714 96.1408 792.502C98.2696 795.401 100.098 797.98 102.528 800.641C112.117 812.444 123.361 822.48 134.952 832.241C137.747 834.594 140.567 836.924 143.167 839.495C129.462 839.705 115.391 839.567 101.657 839.593C99.6484 837.262 97.7415 834.845 95.9415 832.349C87.5634 820.833 81.9489 807.269 83.7618 792.964C84.4235 787.743 85.4532 783.058 86.2575 777.898Z"/><path fill="#2E2D40" transform="scale(0.234375 0.234375)" d="M101.657 839.593C115.391 839.567 129.462 839.705 143.167 839.495C146.048 841.324 147.965 842.921 149.978 845.65L150.519 846.373C145.96 846.378 121.79 846.152 118.724 846.908C112.696 847.306 65.1329 847.721 62.025 846.307C60.7242 845.715 60.3663 845.109 59.9713 843.846C60.9375 837.517 71.6525 839.538 76.2502 839.576L101.657 839.593Z"/><path fill="#E4E4E4" transform="scale(0.234375 0.234375)" d="M523.756 425.238L691.116 425.303L748.769 425.223C761.687 425.129 774.608 425.138 787.522 425.464C789.516 425.556 791.616 426.865 791.728 428.944C791.899 432.137 788.473 434.012 785.631 434.409C783.159 434.755 779.812 434.467 777.104 434.468L758.235 434.524L696.875 434.599L550.707 434.614L477.31 434.773C463.584 434.761 449.847 434.792 436.126 434.493C433.17 434.429 429.449 434.136 429.32 430.263C429.286 428.932 429.79 427.643 430.719 426.688C431.532 425.838 432.707 425.426 433.846 425.404C444.172 425.206 454.806 425.334 465.123 425.365C484.667 425.439 504.212 425.396 523.756 425.238Z"/><path fill="#E4E4E4" transform="scale(0.234375 0.234375)" d="M199.72 226.472C211.751 224.947 222.715 233.53 224.122 245.575C225.53 257.62 216.84 268.5 204.782 269.79C192.889 271.062 182.19 262.517 180.802 250.637C179.414 238.757 187.854 227.976 199.72 226.472Z"/><path fill="#6C63FF" transform="scale(0.234375 0.234375)" d="M279.168 226.867C290.692 224.278 302.143 231.485 304.792 242.995C307.442 254.505 300.296 265.993 288.8 268.703C277.218 271.434 265.625 264.222 262.956 252.626C260.286 241.03 267.559 229.476 279.168 226.867Z"/><path fill="#2E2D40" transform="scale(0.234375 0.234375)" d="M3.3072 839.539C11.755 839.497 20.2473 839.447 28.6982 839.371C32.2124 839.34 36.8027 839.246 37.4891 843.386C36.9256 845.377 36.7508 845.44 35.2323 846.955C28.809 846.964 3.26108 849.171 1.24575 843.421C1.52681 841.394 1.91453 841.185 3.3072 839.539Z"/><path fill="#2E2D40" transform="scale(0.234375 0.234375)" d="M989.84 839.611C996.033 839.559 1020.22 837.736 1022.53 843.259C1021.89 845.252 1020.57 845.961 1018.82 846.982C1011.83 846.987 991.862 848.499 987.187 845.157C986.158 843.232 986.38 844.227 986.469 842.066C987.314 840.507 988.197 840.345 989.84 839.611Z"/><path fill="#9AA2F9" transform="scale(0.234375 0.234375)" d="M931.178 797.429C936.437 799.097 937.985 802.702 934.633 807.367C934.022 807.807 933.321 808.196 932.668 808.588L931.855 808.244C931.341 805.892 931.732 801.32 931.178 797.429Z"/></svg>