<?xml version="1.0" encoding="utf-8" ?><svg xmlns="http://www.w3.org/2000/svg" xmlns:xlink="http://www.w3.org/1999/xlink" width="1024" height="1024" viewBox="0 0 1024 1024"><path fill="#5B5B72" d="M0 0L1024 0L1024 7.8583L1024 32.7073L1024 861.704L871.649 864.651C852.954 864.92 834.193 864.234 815.489 864.434C812.92 864.461 810.258 864.333 807.705 864.563L806.498 863.737C804.959 865.418 804.915 864.911 804.866 866.65C801.306 867.622 786.866 866.939 781.932 867.272L779.359 866.785C775.088 867.344 762.47 867.148 757.735 867.137L696.832 866.869C682.549 866.918 661.819 866.381 648.062 867.707C645.634 870.022 621.949 869.042 616.658 869.26C588.78 870.411 560.843 869.954 532.957 869.291C522.422 869.054 511.885 868.951 501.348 868.981C501.23 873.89 501.257 882.706 500.749 887.278L500.978 887.819L503.322 888.538L500.956 888.549C500.021 887.767 499.015 887.19 497.786 887.168C489.689 887.02 481.315 886.995 473.243 886.989L421.685 886.969L279.61 886.804L227.403 886.977C218.215 887.012 207.387 887.345 198.33 886.933C193.627 885.043 183.732 887.432 179.465 886.082C178.642 880.538 179.961 872.794 178.796 868.031C179.492 865.956 179.701 865.183 179.002 863.52C177.016 864.011 164.926 863.538 161.884 863.531C153.769 863.573 145.656 863.735 137.546 864.017C116.167 864.705 95.2726 865.985 73.9976 866.877C49.3405 867.851 24.673 868.542 0 868.949L0 0Z"/><path fill="#5B5B72" d="M707.305 352.03C708.772 351.008 713.317 346.426 714.86 344.92L730.559 329.571C753.277 307.282 775.776 284.771 798.052 262.041L1024 32.7073L1024 861.704L871.649 864.651C852.954 864.92 834.193 864.234 815.489 864.434C812.92 864.461 810.258 864.333 807.705 864.563L806.498 863.737C804.959 865.418 804.915 864.911 804.866 866.65C801.306 867.622 786.866 866.939 781.932 867.272L779.359 866.785C775.088 867.344 762.47 867.148 757.735 867.137L696.832 866.869C682.549 866.918 661.819 866.381 648.062 867.707C648.417 865.974 649.109 865.605 650.377 864.113L652.135 864.728C656.186 859.153 668.01 848.428 673.226 843.468C679.909 837.113 685.685 831.177 692.076 824.497C693.734 823.097 694.438 822.825 694.643 821.109L693.853 820.882C692.172 819.166 690.511 817.431 688.869 815.677C687.461 813.94 685.43 812.122 685.256 810.123C684.019 808.315 681.224 805.659 679.495 804.165C661.896 788.955 649.443 770.558 636.66 751.374C633.302 744.163 628.436 737.423 625.085 729.712C606.052 685.911 598.389 636.789 602.439 589.256C603.229 579.984 599.964 569.489 612.83 569.389C608.137 564.959 603.533 558.128 598.906 553.081C584.196 536.991 565.264 525.355 544.264 519.499C544.707 517.018 556.155 504.936 558.666 502.385C583.68 476.968 608.811 451.637 633.565 425.966C651.669 407.19 668.964 387.665 687.927 369.718C691.779 366.072 701.188 356.283 705.345 353.574C706.137 352.496 706.073 352.567 707.305 352.03Z"/><path fill="#5856D4" d="M753.697 558.119C764.963 564.11 781.981 573.193 794.388 576.29L794.775 576.433C804.378 583.443 831.477 586.864 843.374 586.181C867.252 584.81 879.244 578.174 894.889 561.261C896.944 564.176 897.704 566.552 900.254 569.447C903.857 575.848 905.691 593.353 905.361 600.944L906.054 603.266C905.946 620.879 906.706 642.41 904.236 659.404C901.847 674.068 899.674 688.334 895.391 702.584C889.771 721.276 883.126 740.427 874.282 757.858C872.521 762.823 857.358 790.173 857.258 790.876C855.605 792.909 847.937 803.766 847.296 805.751C845.447 807.454 841.716 810.625 840.742 812.754L840.502 813.364L839.6 813.671C838.313 813.65 838.723 813.617 837.48 813.946L836.242 814.877L834.981 814.576C833.902 815.087 832.027 816.671 831.115 817.402C824.703 822.545 809.079 832.992 800.894 833.315C800.222 841.682 805.815 856.131 806.498 863.737C804.959 865.418 804.915 864.911 804.866 866.65C801.306 867.622 786.866 866.939 781.932 867.272L779.359 866.785C775.088 867.344 762.47 867.148 757.735 867.137L696.832 866.869C682.549 866.918 661.819 866.381 648.062 867.707C648.417 865.974 649.109 865.605 650.377 864.113L652.135 864.728C656.186 859.153 668.01 848.428 673.226 843.468C679.909 837.113 685.685 831.177 692.076 824.497C693.734 823.097 694.438 822.825 694.643 821.109L693.853 820.882C692.172 819.166 690.511 817.431 688.869 815.677C687.461 813.94 685.43 812.122 685.256 810.123C684.019 808.315 681.224 805.659 679.495 804.165C661.896 788.955 649.443 770.558 636.66 751.374C633.302 744.163 628.436 737.423 625.085 729.712C606.052 685.911 598.389 636.789 602.439 589.256C603.229 579.984 599.964 569.489 612.83 569.389C626.529 579.479 640.199 583.663 657.001 585.027C699.863 586.115 717.753 577.645 753.697 558.119Z"/><path fill="#5B5B72" d="M692.076 824.497C692.246 824.568 692.416 824.64 692.586 824.711C701.68 826.194 709.716 833.374 718.308 836.877C718.935 837.132 719.029 837.447 719.448 837.962C718.824 841.483 714.825 862.09 715.431 864.559L715.073 864.633L714.818 866.131C712.558 867.21 700.751 866.547 696.832 866.869C682.549 866.918 661.819 866.381 648.062 867.707C648.417 865.974 649.109 865.605 650.377 864.113L652.135 864.728C656.186 859.153 668.01 848.428 673.226 843.468C679.909 837.113 685.685 831.177 692.076 824.497Z"/><path fill="#FEFEFE" d="M650.377 864.113L652.135 864.728C654.942 865.391 667.626 864.832 671.104 864.745C680.357 864.569 689.611 864.486 698.866 864.496C703.44 864.481 710.628 864.254 715.073 864.633L714.818 866.131C712.558 867.21 700.751 866.547 696.832 866.869C682.549 866.918 661.819 866.381 648.062 867.707C648.417 865.974 649.109 865.605 650.377 864.113Z"/><path fill="#5856D4" d="M719.448 837.962C720.969 837.773 720.978 837.909 722.468 838.413L724.489 839.066L725.157 838.587C728.223 839.794 740.86 843.726 742.619 844.872L743.993 844.9C745.015 846.283 744.672 847.568 744.872 849.653C745.003 847.891 744.514 846.732 745.424 845.252L747.306 845.24L750.557 845.414L750.459 849.955C751.864 850.068 753.077 850.204 754.494 850.133L754.583 856.116C755.979 858.849 753.688 863.854 756.082 865.547L757.735 867.137L696.832 866.869C700.751 866.547 712.558 867.21 714.818 866.131L715.073 864.633L715.431 864.559C714.825 862.09 718.824 841.483 719.448 837.962Z"/><defs><linearGradient id="gradient_0" gradientUnits="userSpaceOnUse" x1="748.75366" y1="862.51282" x2="744.29773" y2="846.4729"><stop offset="0" stop-color="#2F269C"/><stop offset="1" stop-color="#4D3DC2"/></linearGradient></defs><path fill="url(#gradient_0)" d="M744.872 849.653C745.003 847.891 744.514 846.732 745.424 845.252L747.306 845.24L750.557 845.414L750.459 849.955L750.333 850.502C750.373 852.462 750.789 859.628 749.973 860.92C747.147 861.932 749.309 862.285 746.89 864.475C745.44 863.451 746.095 864.068 745.236 862.099C744.88 857.676 744.862 854.108 744.872 849.653Z"/><path fill="#3930A3" d="M747.306 845.24L750.557 845.414L750.459 849.955L750.333 850.502C749.784 852.032 749.935 855.19 749.51 857.501C748.874 853.629 748.035 849.099 747.306 845.24Z"/><path fill="#2D284E" d="M719.448 837.962C720.969 837.773 720.978 837.909 722.468 838.413C721.331 843.741 720.241 849.079 719.199 854.426C718.475 858.203 718.772 862.548 715.431 864.559C714.825 862.09 718.824 841.483 719.448 837.962Z"/><path fill="#FEFEFE" d="M750.459 849.955C751.864 850.068 753.077 850.204 754.494 850.133L754.583 856.116C754.471 858.589 755.043 862.475 754.175 863.922C752.699 864.898 752.497 864.731 750.734 864.71L750.101 864.206C750.036 863.064 749.983 862.068 749.973 860.92C750.789 859.628 750.373 852.462 750.333 850.502L750.459 849.955Z"/><path fill="#FEFEFE" d="M742.619 844.872L743.993 844.9C745.015 846.283 744.672 847.568 744.872 849.653C744.862 854.108 744.88 857.676 745.236 862.099C743.916 862.016 743.688 861.776 742.462 861.206C740.359 858.083 742.113 849.009 742.619 844.872Z"/><path fill="#2D284E" d="M725.157 838.587C728.223 839.794 740.86 843.726 742.619 844.872C738.176 845.119 728.736 840.901 724.489 839.066L725.157 838.587Z"/><path fill="#3930A3" d="M767.833 845.442C768.865 844.933 774.518 843.911 776.207 843.548C775.437 845.79 775.7 854.955 775.91 857.617C780.726 860.344 776.087 864.218 779.359 866.785C775.088 867.344 762.47 867.148 757.735 867.137L756.082 865.547C753.688 863.854 755.979 858.849 754.583 856.116L754.494 850.133C753.077 850.204 751.864 850.068 750.459 849.955L750.557 845.414C751.903 845.193 753.135 844.88 754.445 845.614C757.254 846.048 758.77 846.172 761.619 845.817C762.823 844.907 765.579 845.258 767.115 845.336L767.833 845.442Z"/><path fill="#5856D4" d="M750.557 845.414C751.903 845.193 753.135 844.88 754.445 845.614C757.254 846.048 758.77 846.172 761.619 845.817C761.562 847.051 761.463 848.409 761.482 849.631C761.674 852.975 761.805 860.265 762.723 863.214L764.495 863.391L765.51 864.646L765.728 864.124C767.876 863.818 770.712 863.884 773.169 863.606C774.346 864.307 773.881 864.14 775.233 864.287C776.396 862.807 775.969 859.673 775.91 857.617C780.726 860.344 776.087 864.218 779.359 866.785C775.088 867.344 762.47 867.148 757.735 867.137L756.082 865.547C753.688 863.854 755.979 858.849 754.583 856.116L754.494 850.133C753.077 850.204 751.864 850.068 750.459 849.955L750.557 845.414Z"/><path fill="#3930A3" d="M750.557 845.414C751.903 845.193 753.135 844.88 754.445 845.614C757.254 846.048 758.77 846.172 761.619 845.817C761.562 847.051 761.463 848.409 761.482 849.631C759.66 849.406 759.353 849.454 757.772 848.369C755.534 851.48 759.532 862.642 757.323 865.444L756.082 865.547C753.688 863.854 755.979 858.849 754.583 856.116L754.494 850.133C753.077 850.204 751.864 850.068 750.459 849.955L750.557 845.414Z"/><path fill="#9087CA" d="M750.557 845.414C751.903 845.193 753.135 844.88 754.445 845.614L754.494 850.133C753.077 850.204 751.864 850.068 750.459 849.955L750.557 845.414Z"/><path fill="#FEFEFE" d="M761.619 845.817C762.823 844.907 765.579 845.258 767.115 845.336L764.842 846.107C764.579 846.864 765.83 861.51 765.728 864.124L765.51 864.646L764.495 863.391L762.723 863.214C761.805 860.265 761.674 852.975 761.482 849.631C761.463 848.409 761.562 847.051 761.619 845.817Z"/><path fill="#FEFEFE" d="M767.833 845.442C768.865 844.933 774.518 843.911 776.207 843.548C775.437 845.79 775.7 854.955 775.91 857.617C775.969 859.673 776.396 862.807 775.233 864.287C773.881 864.14 774.346 864.307 773.169 863.606C772.737 858.653 772.151 853.427 772.923 848.518C773.126 847.226 773.27 847.075 772.995 845.778C771.392 845.071 769.704 845.377 767.833 845.442Z"/><path fill="#3930A3" d="M800.894 833.315L800.214 832.686C798.979 832.805 798.86 832.817 797.792 833.368L796.985 833.795L796.806 833.341C798.078 832.356 798.698 831.448 799.693 830.205C817.582 830.542 846.557 799.433 856.729 785.295C858.245 783.188 860.452 779.894 861.824 777.613L862.3 776.812L862.873 776.895C861.819 781.791 853.374 792.715 849.942 796.739C847.483 799.623 844.887 802.193 842.885 805.5L843.662 807.17C842.047 811.405 840.37 808.794 837.515 812.722L837.48 813.946L836.242 814.877L834.981 814.576C833.902 815.087 832.027 816.671 831.115 817.402C824.703 822.545 809.079 832.992 800.894 833.315Z"/><path fill="#E2DFF6" d="M842.885 805.5L843.662 807.17C842.047 811.405 840.37 808.794 837.515 812.722L837.48 813.946L836.242 814.877L834.981 814.576C835.477 810.812 839.408 809.577 842.885 805.5Z"/><path fill="#E2DFF6" d="M903.204 659.466L904.236 659.404C901.847 674.068 899.674 688.334 895.391 702.584C889.771 721.276 883.126 740.427 874.282 757.858C874.251 755.828 884.826 729.945 886.403 725.785C894.797 703.655 899.457 682.786 903.204 659.466Z"/><defs><linearGradient id="gradient_1" gradientUnits="userSpaceOnUse" x1="710.08496" y1="827.40369" x2="704.98364" y2="833.02081"><stop offset="0" stop-color="#2C2B39"/><stop offset="1" stop-color="#3E4069"/></linearGradient></defs><path fill="url(#gradient_1)" d="M694.758 819.762C702.212 826.338 716.308 833.555 725.157 838.587L724.489 839.066L722.468 838.413C720.978 837.909 720.969 837.773 719.448 837.962C719.029 837.447 718.935 837.132 718.308 836.877C709.716 833.374 701.68 826.194 692.586 824.711C692.416 824.64 692.246 824.568 692.076 824.497C693.734 823.097 694.438 822.825 694.643 821.109L694.758 819.762Z"/><path fill="#9087CA" d="M903.204 659.466C903.414 656.542 903.972 653.404 904.237 650.429C905.697 634.029 904.458 617.363 905.361 600.944L906.054 603.266C905.946 620.879 906.706 642.41 904.236 659.404L903.204 659.466Z"/><path fill="#3930A3" d="M776.207 843.548L777.325 843.705C777.83 846.074 777.38 848.396 777.65 850.867C778.286 856.678 779.896 861.846 781.932 867.272L779.359 866.785C776.087 864.218 780.726 860.344 775.91 857.617C775.7 854.955 775.437 845.79 776.207 843.548Z"/><path fill="#161526" d="M688.869 815.677C687.461 813.94 685.43 812.122 685.256 810.123C687.923 813.138 691.569 817.536 694.758 819.762L694.643 821.109L693.853 820.882C692.172 819.166 690.511 817.431 688.869 815.677Z"/><path fill="#5B5B72" d="M544.264 519.499C544.707 517.018 556.155 504.936 558.666 502.385C583.68 476.968 608.811 451.637 633.565 425.966C651.669 407.19 668.964 387.665 687.927 369.718C691.779 366.072 701.188 356.283 705.345 353.574C706.48 362.281 708.45 370.868 709.812 379.543C711.233 388.596 718.17 435.492 714.68 441.286C714.638 441.355 714.604 441.429 714.566 441.5C708.761 444.527 703.457 446.612 697.488 450.068C678.503 461.057 668.578 474.481 661.852 495.251C654.485 517.998 654.638 539.342 655.149 562.881C655.299 569.792 656.853 578.213 657.001 585.027C640.199 583.663 626.529 579.479 612.83 569.389C608.137 564.959 603.533 558.128 598.906 553.081C584.196 536.991 565.264 525.355 544.264 519.499Z"/><path fill="#3F3F59" d="M714.566 441.5C725.552 438.89 740.252 441.712 749.638 447.732C771.799 461.944 785.091 493.636 791.039 518.417C796.161 539.756 796.772 554.752 794.388 576.29C781.981 573.193 764.963 564.11 753.697 558.119C717.753 577.645 699.863 586.115 657.001 585.027C656.853 578.213 655.299 569.792 655.149 562.881C654.638 539.342 654.485 517.998 661.852 495.251C668.578 474.481 678.503 461.057 697.488 450.068C703.457 446.612 708.761 444.527 714.566 441.5Z"/><path fill="#F2F2F2" d="M899.115 747.949L899.575 748.068L899.567 748.448C911.649 751.156 920.877 800.831 920.946 812.453C921.007 822.737 920.094 831.36 916.558 841.014C914.622 845.04 910.54 854.479 907.557 857.249L906.636 857.318L906.314 856.69C905.837 855.783 906.041 856.135 905.449 855.27L904.584 857.252L903.739 857.365C902.388 855.805 901.956 854.195 901.214 852.257C895.635 839.535 890.373 820.299 887.223 806.592C883.728 791.38 883.476 766.619 892.462 752.894C894.161 750.299 896.01 748.47 899.115 747.949Z"/><path fill="#3F3F59" d="M899.115 747.949L899.575 748.068L899.567 748.448C899.391 753.457 897.307 762.868 896.663 768.29C895.232 780.346 895.015 791.004 896.073 803.129C896.984 813.6 898.574 824 900.834 834.264C902.072 839.978 904.512 847.226 904.897 852.624L904.531 852.265C897.427 826.318 892.513 803.28 894.863 776.049C895.672 766.668 897.498 757.226 899.115 747.949Z"/><path fill="#FEFEFE" d="M918.666 842.294C921.959 836.693 925.695 831.172 930.258 826.517C943.259 813.254 964.602 804.062 983.124 803.713L978.706 807.574L979.025 808.528C977.299 810.044 975.562 811.551 973.842 813.073C955.937 828.92 935.584 842.748 915.024 854.929L914.068 854.638C913.392 854.814 913.191 854.762 912.483 854.781C912.207 852.434 917.221 844.737 918.666 842.294Z"/><path fill="#5B5B72" d="M978.706 807.574L979.025 808.528C977.299 810.044 975.562 811.551 973.842 813.073C955.937 828.92 935.584 842.748 915.024 854.929L914.068 854.638C915.188 853.566 921.962 849.641 923.626 848.629C928.452 845.75 933.177 842.704 937.79 839.496C945.49 834.18 954.19 828.224 961.448 822.468C967.133 817.959 973.001 812.369 978.706 807.574Z"/><path fill="#F2F2F2" d="M847.296 805.751C867.109 813.527 878.472 820.702 890.665 839.108C892.929 842.526 896.237 849.577 898.225 852.238C898.906 852.331 900.455 852.265 901.214 852.257C901.956 854.195 902.388 855.805 903.739 857.365L904.584 857.252L905.449 855.27C906.041 856.135 905.837 855.783 906.314 856.69L906.636 857.318L907.557 857.249C910.54 854.479 914.622 845.04 916.558 841.014L918.666 842.294C917.221 844.737 912.207 852.434 912.483 854.781C913.191 854.762 913.392 854.814 914.068 854.638L915.024 854.929C912.753 856.544 912.103 857.081 910.177 859.088C916.551 858.963 922.908 858.378 929.198 857.339L929.589 857.59C927.765 859.015 917.736 859.719 914.98 859.93C908.798 860.402 903.9 860.698 898.365 857.385C889.025 851.361 879.649 844.24 870.63 837.694C859.485 829.605 850.379 823.034 840.502 813.364L840.742 812.754C841.716 810.625 845.447 807.454 847.296 805.751Z"/><path fill="#2D284E" d="M840.742 812.754C842.673 814.518 849.658 820.783 851.168 821.902C857.016 826.235 893.72 854.228 899.014 855.849L899.42 855.274C898.976 853.955 898.866 853.497 898.225 852.238C898.906 852.331 900.455 852.265 901.214 852.257C901.956 854.195 902.388 855.805 903.739 857.365L904.584 857.252L905.449 855.27C906.041 856.135 905.837 855.783 906.314 856.69L906.636 857.318L907.557 857.249C910.54 854.479 914.622 845.04 916.558 841.014L918.666 842.294C917.221 844.737 912.207 852.434 912.483 854.781C913.191 854.762 913.392 854.814 914.068 854.638L915.024 854.929C912.753 856.544 912.103 857.081 910.177 859.088C916.551 858.963 922.908 858.378 929.198 857.339L929.589 857.59C927.765 859.015 917.736 859.719 914.98 859.93C908.798 860.402 903.9 860.698 898.365 857.385C889.025 851.361 879.649 844.24 870.63 837.694C859.485 829.605 850.379 823.034 840.502 813.364L840.742 812.754Z"/><path fill="#FEFEFE" d="M979.025 808.528C980.578 807.048 982.142 805.592 983.623 804.04C978.639 827.965 964.865 845.185 941.803 853.901C939.638 854.72 930.274 856.663 929.198 857.339C922.908 858.378 916.551 858.963 910.177 859.088C912.103 857.081 912.753 856.544 915.024 854.929C935.584 842.748 955.937 828.92 973.842 813.073C975.562 811.551 977.299 810.044 979.025 808.528Z"/><path fill="#F2F2F2" d="M840.502 813.364C850.379 823.034 859.485 829.605 870.63 837.694C879.649 844.24 889.025 851.361 898.365 857.385C870.841 862.914 847.964 838.747 836.07 816.884C836.975 815.96 838.593 814.58 839.6 813.671L840.502 813.364Z"/><path fill="#FEFEFE" d="M705.345 353.574C706.137 352.496 706.073 352.567 707.305 352.03C710.688 369.747 713.363 387.592 715.324 405.522C716.29 414.196 717.67 430.513 717.249 439.131C731.01 437.376 744.911 441.086 755.968 449.464C786.606 472.663 803.911 538.563 796.529 575.927L794.775 576.433L794.388 576.29C796.772 554.752 796.161 539.756 791.039 518.417C785.091 493.636 771.799 461.944 749.638 447.732C740.252 441.712 725.552 438.89 714.566 441.5C714.604 441.429 714.638 441.355 714.68 441.286C718.17 435.492 711.233 388.596 709.812 379.543C708.45 370.868 706.48 362.281 705.345 353.574Z"/><path fill="#2D284E" d="M906.054 603.266C907.757 609.039 907.233 643.631 906.578 651.311C904.519 675.476 898.599 702.355 890.479 725.255C884.46 741.271 875.643 758.571 868.029 773.997C865.724 778.668 861.019 786.855 857.816 790.771L857.258 790.876C857.358 790.173 872.521 762.823 874.282 757.858C883.126 740.427 889.771 721.276 895.391 702.584C899.674 688.334 901.847 674.068 904.236 659.404C906.706 642.41 905.946 620.879 906.054 603.266Z"/><path fill="#FEFEFE" d="M895.433 558.422C898.32 562.549 898.901 564.748 900.254 569.447C897.704 566.552 896.944 564.176 894.889 561.261C879.244 578.174 867.252 584.81 843.374 586.181C831.477 586.864 804.378 583.443 794.775 576.433L796.529 575.927C805.75 580.995 822.279 583.726 832.803 584.399C850.129 585.508 868.812 582.114 882.714 571.101C886.685 567.955 890.639 562.616 894.887 558.896L895.433 558.422Z"/><path fill="#161526" d="M837.48 813.946C838.723 813.617 838.313 813.65 839.6 813.671C838.593 814.58 836.975 815.96 836.07 816.884L835.674 817.356L835.042 816.414C826.549 823.117 813.002 830.842 802.718 834.177C803.789 840.503 807.546 859.725 807.705 864.563L806.498 863.737C805.815 856.131 800.222 841.682 800.894 833.315C809.079 832.992 824.703 822.545 831.115 817.402C832.027 816.671 833.902 815.087 834.981 814.576L836.242 814.877L837.48 813.946Z"/><path fill="#FEFEFE" d="M811.196 365.153C815.302 366.943 817.78 378.769 819.439 383.215C824.041 385.388 832.019 386.443 835.439 389.653C839.349 393.321 826.73 400.525 824.335 402.179C824.575 412.318 827.664 432.329 812.732 416.264C811.165 414.577 809.144 412.857 807.423 411.283C802.389 412.109 793.04 419.707 789.323 417.441C787.661 413.506 791.541 403.603 792.947 399.251C789.482 394.028 775.517 381.797 789.786 382.094C793.352 382.168 796.996 382.287 800.563 382.423C805.04 376.722 806.69 368.898 811.196 365.153Z"/><path fill="#5B5B72" d="M811.182 368.21C814.197 370.484 815.821 380.372 818.077 385.057L818.579 385.327C823.028 387.743 831.625 387.839 833.678 392.087C832.628 395.039 825.372 398.33 822.445 401.213C822.365 405.576 823.172 416.582 821.528 419.759L820.545 420.026C816.512 417.815 812.565 412.256 807.704 409.256C800.163 410.12 798.662 414.021 792.072 416.138C791.38 416.361 791.359 416.135 790.606 415.576C790.26 413.564 793.342 405.394 794.008 402.317C795.556 395.174 788.702 391.229 784.286 384.582C790.011 384.518 795.736 384.519 801.461 384.584C804.929 380.474 808.555 373.123 811.182 368.21Z"/><defs><linearGradient id="gradient_2" gradientUnits="userSpaceOnUse" x1="772.37854" y1="639.09503" x2="446.7511" y2="278.48242"><stop offset="0" stop-color="#BEBEBF"/><stop offset="1" stop-color="#E0E0DF"/></linearGradient></defs><path fill="url(#gradient_2)" d="M912.886 121.509C913.921 120.09 920.863 113.132 922.381 111.565C931.429 102.297 940.565 93.1135 949.787 84.0175C962.836 70.8987 975.763 57.6583 988.565 44.2978C1000.47 32.2461 1012.29 20.0992 1024 7.8583L1024 32.7073L798.052 262.041C775.776 284.771 753.277 307.282 730.559 329.571L714.86 344.92C713.317 346.426 708.772 351.008 707.305 352.03C706.073 352.567 706.137 352.496 705.345 353.574C701.188 356.283 691.779 366.072 687.927 369.718C668.964 387.665 651.669 407.19 633.565 425.966C608.811 451.637 583.68 476.968 558.666 502.385C556.155 504.936 544.707 517.018 544.264 519.499C565.264 525.355 584.196 536.991 598.906 553.081C603.533 558.128 608.137 564.959 612.83 569.389C599.964 569.489 603.229 579.984 602.439 589.256C598.389 636.789 606.052 685.911 625.085 729.712C628.436 737.423 633.302 744.163 636.66 751.374C649.443 770.558 661.896 788.955 679.495 804.165C681.224 805.659 684.019 808.315 685.256 810.123C685.43 812.122 687.461 813.94 688.869 815.677C690.511 817.431 692.172 819.166 693.853 820.882L694.643 821.109C694.438 822.825 693.734 823.097 692.076 824.497C685.685 831.177 679.909 837.113 673.226 843.468C668.01 848.428 656.186 859.153 652.135 864.728L650.377 864.113C649.109 865.605 648.417 865.974 648.062 867.707C645.634 870.022 621.949 869.042 616.658 869.26C588.78 870.411 560.843 869.954 532.957 869.291C522.422 869.054 511.885 868.951 501.348 868.981C501.23 873.89 501.257 882.706 500.749 887.278L500.978 887.819L503.322 888.538L500.956 888.549C500.021 887.767 499.015 887.19 497.786 887.168C489.689 887.02 481.315 886.995 473.243 886.989L421.685 886.969L279.61 886.804L227.403 886.977C218.215 887.012 207.387 887.345 198.33 886.933C193.627 885.043 183.732 887.432 179.465 886.082C178.642 880.538 179.961 872.794 178.796 868.031C179.492 865.956 179.701 865.183 179.002 863.52C180.889 860.901 192.028 850.392 194.887 847.595L226.839 816.31C244.549 799.297 260.896 781.971 278.241 765.031C241.587 706.041 214.302 647.617 212.346 576.084C211.068 529.355 219.262 469.226 266.95 445.056C272.724 442.13 285.83 438.456 292.285 439.75L292.673 440.722C293.74 439.265 293.674 436.838 293.836 434.935C295.218 421.033 294.747 403.266 295.749 388.535C298.659 345.735 310.619 311.944 331.799 274.769C336.349 266.784 342.048 258.88 346.882 250.625C346.467 249.084 346.692 248.781 345.692 248.024C344.136 244.191 341.605 235.986 340.532 232.037L341.758 232.808C339.853 225.008 330.021 185.604 331.608 179.309L332.517 179.546C336.199 180.396 340.852 182.284 344.32 183.87C355.303 188.225 366.559 192.212 377.578 196.566C383.438 198.883 391.131 202.655 396.868 204.421C402.951 202.321 410.147 198.488 416.897 196.068C444.953 186.008 471.683 180.847 501.395 180.963L501.98 182.234L502.15 211.649C502.168 214.653 502.362 223.991 501.901 226.492C501.522 231.893 499.665 272.378 501.228 275.794C501.895 276.475 502.677 277.322 503.364 277.953L503.642 278.258C507.06 276.336 513.868 268.614 516.998 265.684C530.686 252.87 545.333 246.698 563.702 245.551C565.775 244.39 567.485 244.946 569.51 246.067C588.543 244.228 610.214 254.583 624.767 266.232C657.905 292.757 667.711 336.526 660.919 377.088C673.568 365.332 687.66 350.46 700.159 338.13L703.818 334.468C707.188 330.443 712.003 326.52 715.153 323.434C719.736 318.945 732.089 307.572 735.57 304.009C753.185 285.974 912.187 126.878 913.582 122.778L912.886 121.509Z"/><path fill="#FEFEFE" d="M563.702 245.551C565.775 244.39 567.485 244.946 569.51 246.067C588.543 244.228 610.214 254.583 624.767 266.232C657.905 292.757 667.711 336.526 660.919 377.088C660.549 377.892 657.181 380.101 656.036 381.338C639.124 399.604 621.296 417.053 603.944 434.84C585.554 453.803 567.418 473.012 549.541 492.46L549.095 492.436L548.775 491.417L547.913 491.838C534.507 498.163 524.788 501.055 509.854 502.285C467.721 505.675 426.002 491.925 394.141 464.147C364.14 438.185 345.732 401.329 342.998 361.748C340.582 330.387 350.856 299.369 371.514 275.65C386.315 258.876 407.764 246.909 430.297 245.539C448.915 244.513 467.346 249.707 482.689 260.304C488.628 264.473 495.642 270.881 501.228 275.794C501.895 276.475 502.677 277.322 503.364 277.953L503.642 278.258C507.06 276.336 513.868 268.614 516.998 265.684C530.686 252.87 545.333 246.698 563.702 245.551Z"/><path fill="#FEFEFE" d="M411.587 256.628C426.074 250.163 440.421 248.155 455.598 254.056C461.769 256.516 467.456 260.047 472.397 264.487L471.378 266.057C471.872 267.391 472.201 267.644 471.377 269.213C468.219 275.252 462.957 280.168 459.366 285.883C455.533 291.986 453.719 299.42 451.23 306.165C450.006 309.481 446.682 316.114 447.324 319.35L446.021 321.652C442.704 322.448 446.174 320.466 441.905 321.629C439.609 319.604 439.132 319.193 436.419 317.818C423.744 315.585 417.126 320.664 412.957 332.379C401.905 329.063 392.019 321.754 386.354 311.69C373.188 288.302 392.234 267.288 411.587 256.628Z"/><path fill="#D8D7D9" d="M471.378 266.057C471.872 267.391 472.201 267.644 471.377 269.213C468.219 275.252 462.957 280.168 459.366 285.883C455.533 291.986 453.719 299.42 451.23 306.165C450.006 309.481 446.682 316.114 447.324 319.35L446.021 321.652C442.704 322.448 446.174 320.466 441.905 321.629C439.609 319.604 439.132 319.193 436.419 317.818C436.463 315.843 436.823 313.793 437.999 312.201C448.957 297.368 460.037 280.445 471.378 266.057Z"/><path fill="#F2F2F2" d="M401.08 294.628C404.541 291.127 407.749 289.845 412.174 292.582C418.109 293.47 422.569 293.548 428.592 293.159C429.777 293.083 432.729 292.538 433.398 292.542C437.611 291.185 439.787 290.544 443.587 293.051L444.394 293.813C443.435 303.946 407.244 302.986 401.191 297.095C400.594 295.408 400.572 296.204 401.08 294.628Z"/><path fill="#161526" d="M401.08 294.628C404.541 291.127 407.749 289.845 412.174 292.582C406.537 292.646 406.743 292.345 401.08 294.628Z"/><path fill="#6D6E7C" d="M433.398 292.542C437.611 291.185 439.787 290.544 443.587 293.051C439.066 292.093 438.377 292.751 434.192 292.578L433.398 292.542Z"/><defs><linearGradient id="gradient_3" gradientUnits="userSpaceOnUse" x1="381.37253" y1="286.772" x2="452.92429" y2="315.646"><stop offset="0" stop-color="#2F2758"/><stop offset="1" stop-color="#565870"/></linearGradient></defs><path fill="url(#gradient_3)" d="M412.739 334.766C400.82 331.189 390.236 323.295 384.297 312.249C379.949 304.221 379.015 294.781 381.705 286.056C385.989 272.454 398.904 261.483 411.248 255.178L411.587 256.628C392.234 267.288 373.188 288.302 386.354 311.69C392.019 321.754 401.905 329.063 412.957 332.379C417.126 320.664 423.744 315.585 436.419 317.818C439.132 319.193 439.609 319.604 441.905 321.629C445.648 326.954 447.683 331.968 445.164 338.469C443.581 342.667 440.361 346.042 436.243 347.82C432.213 349.56 427.653 349.606 423.589 347.95C417.517 345.412 414.995 340.418 412.739 334.766Z"/><path fill="#F2F2F2" d="M472.397 264.487C475.33 267.097 477.619 269.119 480.269 271.997C477.512 275.435 474.156 280.841 471.424 284.669C463.2 296.095 455.165 307.657 447.324 319.35C446.682 316.114 450.006 309.481 451.23 306.165C453.719 299.42 455.533 291.986 459.366 285.883C462.957 280.168 468.219 275.252 471.377 269.213C472.201 267.644 471.872 267.391 471.378 266.057L472.397 264.487Z"/><path fill="#2D284E" d="M563.702 245.551C565.775 244.39 567.485 244.946 569.51 246.067C544.533 248.721 526.731 257.917 509.956 276.804C504.792 282.618 501.975 290.364 497.574 296.466C496.095 296.211 495.761 295.803 494.717 294.201C489.823 286.683 486.067 278.953 480.269 271.997C477.619 269.119 475.33 267.097 472.397 264.487C467.456 260.047 461.769 256.516 455.598 254.056C440.421 248.155 426.074 250.163 411.587 256.628L411.248 255.178C439.308 241.468 468.326 251.899 485.622 276.867C489.799 282.897 492.928 290.066 497.439 295.779C508.499 272.352 523.947 257.906 548.771 248.899C552.441 247.567 561.142 247.437 563.702 245.551Z"/><path fill="#5B5B72" d="M501.463 339.19C507.233 341.462 525.817 351.992 529.183 358.024C529.992 359.473 528.112 364.264 527.236 365.859C522.335 374.781 508.332 402.268 502.122 409.398C501.731 410.01 501.614 409.971 500.984 410.44C500.714 410.322 500.114 410.102 499.964 409.804C495.263 400.438 474.903 368.832 475.035 360.427C475.092 356.814 497.317 341.426 501.463 339.19Z"/><path fill="#6D6E7C" d="M502.122 409.398C501.731 410.01 501.614 409.971 500.984 410.44C500.714 410.322 500.114 410.102 499.964 409.804C495.263 400.438 474.903 368.832 475.035 360.427C475.092 356.814 497.317 341.426 501.463 339.19C501.099 361.98 502.752 384.969 501.641 407.766C501.618 408.24 501.948 408.976 502.122 409.398Z"/><path fill="#2D284E" d="M583.489 356.648C591.614 355.535 603.25 356.796 609.996 361.533C628.896 374.807 609.84 386.945 595.624 388.822C566.065 394.859 543.631 363.806 583.489 356.648Z"/><defs><linearGradient id="gradient_4" gradientUnits="userSpaceOnUse" x1="589.80487" y1="387.07474" x2="589.21533" y2="357.92487"><stop offset="0" stop-color="#CFCDCE"/><stop offset="1" stop-color="white"/></linearGradient></defs><path fill="url(#gradient_4)" d="M582.214 387.808C573.081 386.651 558.284 379.021 564.443 367.103C568.033 361.248 575.85 360.197 580.947 358.289C591.532 354.326 626.122 362.315 614.525 378.538C605.593 386.735 594.204 389.995 582.214 387.808Z"/><path fill="#D8D7D9" d="M582.214 387.808C585.035 386.785 593.757 387.882 597.293 386.874C602.344 385.434 600.512 382.017 602.206 380.075C604.495 377.452 611.54 378.335 614.525 378.538C605.593 386.735 594.204 389.995 582.214 387.808Z"/><path fill="#2D284E" d="M409.785 357.646C419.332 356.865 427.864 357.597 436.27 362.506C448.24 369.497 446.319 379.884 434.285 385.186C430.433 386.884 427.868 387.526 423.671 388.436C415.124 389.022 402.523 389.018 395.521 383.598C376.73 369.055 396.266 359.875 409.785 357.646Z"/><defs><linearGradient id="gradient_5" gradientUnits="userSpaceOnUse" x1="425.18726" y1="383.21487" x2="402.58768" y2="357.84891"><stop offset="0" stop-color="#C7C3C5"/><stop offset="1" stop-color="white"/></linearGradient></defs><path fill="url(#gradient_5)" d="M410.92 387.297C406.645 387.914 399.514 384.666 395.955 382.347C379.17 371.401 397.238 359.989 409.576 358.868C420.027 357.919 429.642 358.458 438.335 364.945C455.669 381.472 423.765 389.699 410.92 387.297Z"/><path fill="#D8D7D9" d="M438.335 364.945C455.669 381.472 423.765 389.699 410.92 387.297C414.465 385.877 420.486 388.433 422.021 386.311C420.888 385.574 420.602 385.364 419.599 384.462C419.654 384.162 419.71 383.862 419.765 383.562C425.984 379.425 431.775 374.316 436.853 368.916C438.912 366.727 438.383 366.242 438.335 364.945Z"/><path fill="#5B5B72" d="M574.734 316.001C587.141 315.741 593.998 322.196 594.005 334.708C594.004 335.738 593.997 336.767 593.982 337.796L595.265 339.003C591.607 340.769 588.786 343.513 585.158 345.483C576.784 350.031 569.649 346.984 563.468 340.654L564.663 339.921C564.761 338.578 564.074 333.575 563.884 331.953C563.964 323.519 566.974 318.857 574.734 316.001Z"/><path fill="#5F5E91" d="M563.884 331.953C563.964 323.519 566.974 318.857 574.734 316.001C574.785 316.665 574.836 317.329 574.886 317.994C572.555 322.334 568.762 326.431 566.442 330.954C565.855 332.1 564.523 331.939 563.884 331.953Z"/><path fill="#2D284E" d="M593.982 337.796C606.5 331.849 614.643 326.339 619.738 312.925C629.958 286.019 605.603 247.094 574.831 263.763C569.695 266.544 565.89 270.68 562.202 275.061C557.287 280.034 549.227 297.55 542.454 296.11C541.193 295.842 540.675 295.414 540.009 294.4L540.759 293.723C541.572 294.29 542.396 294.791 543.272 295.253C551.956 292.895 560.221 261.081 586.331 258.329C592.316 257.648 598.363 258.902 603.583 261.909C612.714 267.142 619.634 277.149 622.267 287.251C625.279 298.544 623.652 310.572 617.749 320.66C612.428 329.583 604.937 335.414 595.265 339.003L593.982 337.796Z"/><path fill="#2D284E" d="M563.468 340.654C553.406 329.022 562.054 308.259 573.763 312.862C573.705 313.302 566.491 314.979 564.264 317.474C558.176 324.291 557.775 333.183 564.663 339.921L563.468 340.654Z"/><path fill="#F2F2F2" d="M544.264 519.499C565.264 525.355 584.196 536.991 598.906 553.081C603.533 558.128 608.137 564.959 612.83 569.389C599.964 569.489 603.229 579.984 602.439 589.256C598.389 636.789 606.052 685.911 625.085 729.712C628.436 737.423 633.302 744.163 636.66 751.374C649.443 770.558 661.896 788.955 679.495 804.165C681.224 805.659 684.019 808.315 685.256 810.123C685.43 812.122 687.461 813.94 688.869 815.677C690.511 817.431 692.172 819.166 693.853 820.882L694.643 821.109C694.438 822.825 693.734 823.097 692.076 824.497C685.685 831.177 679.909 837.113 673.226 843.468C668.01 848.428 656.186 859.153 652.135 864.728L650.377 864.113C649.109 865.605 648.417 865.974 648.062 867.707C645.634 870.022 621.949 869.042 616.658 869.26C588.78 870.411 560.843 869.954 532.957 869.291C522.422 869.054 511.885 868.951 501.348 868.981C501.407 865.342 501.159 847.523 502.364 845.604C502.073 843.503 502.474 827.762 502.496 824.988C502.689 808.748 502.773 792.507 502.747 776.265L502.947 562.531C506.306 557.827 541.608 520.721 544.264 519.499Z"/><path fill="#5B5B72" d="M636.66 751.374C649.443 770.558 661.896 788.955 679.495 804.165C681.224 805.659 684.019 808.315 685.256 810.123C685.43 812.122 687.461 813.94 688.869 815.677C690.511 817.431 692.172 819.166 693.853 820.882L694.643 821.109C694.438 822.825 693.734 823.097 692.076 824.497C685.685 831.177 679.909 837.113 673.226 843.468C668.01 848.428 656.186 859.153 652.135 864.728L650.377 864.113C649.109 865.605 648.417 865.974 648.062 867.707C645.634 870.022 621.949 869.042 616.658 869.26C588.78 870.411 560.843 869.954 532.957 869.291C522.422 869.054 511.885 868.951 501.348 868.981C501.407 865.342 501.159 847.523 502.364 845.604C520.276 845.314 536.496 847.042 553.706 840.379C581.486 829.623 604.713 810.248 620.071 784.635C627.329 772.53 630.877 763.584 636.66 751.374Z"/><path fill="#F2F2F2" d="M693.853 820.882L694.643 821.109C694.438 822.825 693.734 823.097 692.076 824.497C685.685 831.177 679.909 837.113 673.226 843.468C668.01 848.428 656.186 859.153 652.135 864.728L650.377 864.113C658.852 853.428 671.896 844.116 680.571 833.958C684.104 831.001 690.52 822.161 693.853 820.882Z"/><path fill="#6D6E7C" d="M680.571 833.958C681.33 828.843 684.494 828.653 687.261 824.868C689.774 821.432 683.061 816.07 685.132 813.23C686.912 813.472 687.207 814.248 688.869 815.677C690.511 817.431 692.172 819.166 693.853 820.882C690.52 822.161 684.104 831.001 680.571 833.958Z"/><path fill="#5B5B72" d="M341.758 232.808C339.853 225.008 330.021 185.604 331.608 179.309L332.517 179.546C336.199 180.396 340.852 182.284 344.32 183.87C355.303 188.225 366.559 192.212 377.578 196.566C383.438 198.883 391.131 202.655 396.868 204.421C402.951 202.321 410.147 198.488 416.897 196.068C444.953 186.008 471.683 180.847 501.395 180.963L501.98 182.234L502.15 211.649C502.168 214.653 502.362 223.991 501.901 226.492C501.522 231.893 499.665 272.378 501.228 275.794C495.642 270.881 488.628 264.473 482.689 260.304C467.346 249.707 448.915 244.513 430.297 245.539C407.764 246.909 386.315 258.876 371.514 275.65C350.856 299.369 340.582 330.387 342.998 361.748C345.732 401.329 364.14 438.185 394.141 464.147C426.002 491.925 467.721 505.675 509.854 502.285C524.788 501.055 534.507 498.163 547.913 491.838L548.096 492.545C538.855 503.522 524.234 516.475 516.622 526.307C507 526.679 494.891 527.03 485.396 528.4C452.133 533.009 421.472 548.936 398.575 573.501C369.169 605.113 355.1 645.877 354.371 688.667L350.738 692.383C349.826 689.102 350.128 658.729 350.066 653.539C349.768 628.809 349.112 603.706 349.071 579.002L349.021 541.99C349.001 528.122 349.506 516.132 346.601 503.3C339.766 473.106 322.209 451.751 292.374 442.703C292.228 442.574 292.082 442.444 291.936 442.315L292.673 440.722C293.74 439.265 293.674 436.838 293.836 434.935C295.218 421.033 294.747 403.266 295.749 388.535C298.659 345.735 310.619 311.944 331.799 274.769C336.349 266.784 342.048 258.88 346.882 250.625C346.467 249.084 346.692 248.781 345.692 248.024C344.136 244.191 341.605 235.986 340.532 232.037L341.758 232.808Z"/><path fill="#6D6E7C" d="M332.517 179.546C336.199 180.396 340.852 182.284 344.32 183.87C342.32 186.917 339.441 187.286 336.996 184.426C338.774 179.448 335.082 182.995 332.517 179.546Z"/><path fill="#AEACBB" d="M340.532 232.037L341.758 232.808C342.932 237.607 344.195 242.089 346.789 246.342C347.713 247.858 347.622 248.997 346.882 250.625C346.467 249.084 346.692 248.781 345.692 248.024C344.136 244.191 341.605 235.986 340.532 232.037Z"/><path fill="#3F3F59" d="M225.225 498.401C225.514 497.114 227.642 492.074 228.219 490.813C234.269 477.578 243.007 464.055 254.596 455.036C264.576 447.269 279.098 440.848 291.936 442.315C292.082 442.444 292.228 442.574 292.374 442.703C322.209 451.751 339.766 473.106 346.601 503.3C349.506 516.132 349.001 528.122 349.021 541.99L349.071 579.002C349.112 603.706 349.768 628.809 350.066 653.539C350.128 658.729 349.826 689.102 350.738 692.383C327.686 716.549 302.738 739.417 279.873 763.489C258.755 727.874 240.328 696.555 228.219 656.072C226.004 648.666 222.994 639.389 221.915 631.797C221.827 631.667 221.739 631.538 221.651 631.408C212.246 597.034 210.888 528.316 225.225 498.401Z"/><path fill="#5F5E91" d="M225.225 498.401C225.114 500.363 224.59 502.584 224.96 504.218L225.335 502.935C225.097 505.366 224.838 507.951 224.113 510.28C221.759 517.834 220.567 525.418 218.95 533.134C216.942 529.23 222.003 514.541 222.929 509.456L222.448 509.384C221.079 512.281 217.998 527.141 217.551 530.628C215.225 548.792 214.509 567.554 216.017 585.827C216.385 590.18 216.681 596.699 217.615 600.804C218.379 598.231 217.057 579.206 218.292 576.068C219.366 584.308 218.269 594.83 219.254 603.576C219.731 607.818 222.696 630.145 222.129 631.643L221.915 631.797C221.827 631.667 221.739 631.538 221.651 631.408C212.246 597.034 210.888 528.316 225.225 498.401Z"/><path fill="#5B5B72" d="M202.85 869.087C223.512 849.39 268.757 796.421 291.75 787.802C301.609 807.811 337.047 851.058 355.233 863.023C341.786 864.795 329.925 865.98 316.4 866.706C308.228 867.145 292.09 866.725 285.14 867.827L286.395 868.521L286.057 868.984C278.303 870.159 212.04 870.898 208.525 869.03C206.982 868.88 204.48 869.04 202.85 869.087Z"/><path fill="#F2F2F2" d="M208.525 869.03C234.066 868.823 259.605 868.422 285.14 867.827L286.395 868.521L286.057 868.984C278.303 870.159 212.04 870.898 208.525 869.03Z"/><path fill="#5B5B72" d="M605 204.473C624.838 195.477 646.602 190.012 665.955 179.756C667.551 178.91 672.042 175.937 673.427 176.271L674.041 178.206C673.542 183.856 673.881 191.394 672.947 196.578C672.479 205.75 669.808 216.118 667.529 225.003C665.816 231.679 661.049 242.66 661.096 248.974L661.334 249.871C660.745 254.091 662.312 255.354 665.015 259.143C679.591 279.581 689.455 302.09 697.868 325.437C699.785 330.01 700.032 331.138 703.818 334.468L700.159 338.13C687.66 350.46 673.568 365.332 660.919 377.088C667.711 336.526 657.905 292.757 624.767 266.232C610.214 254.583 588.543 244.228 569.51 246.067C567.485 244.946 565.775 244.39 563.702 245.551C545.333 246.698 530.686 252.87 516.998 265.684C513.868 268.614 507.06 276.336 503.642 278.258L503.364 277.953C502.677 277.322 501.895 276.475 501.228 275.794C499.665 272.378 501.522 231.893 501.901 226.492C502.362 223.991 502.168 214.653 502.15 211.649L501.98 182.234L501.395 180.963C512.588 181.018 523.762 181.885 534.83 183.558C553.535 186.576 562.871 189.279 581.01 195.05C586.45 197.054 591.069 198.835 596.391 201.152C599.733 202.651 601.505 203.419 605 204.473Z"/><path fill="#5F5E91" d="M534.83 183.558C553.535 186.576 562.871 189.279 581.01 195.05L579.265 196.629C572.702 193.979 543.652 186.539 536.788 185.737L534.83 183.558Z"/><path fill="#3F3F59" d="M501.395 180.963C512.588 181.018 523.762 181.885 534.83 183.558L536.788 185.737C534.284 185.834 527.715 184.917 525.324 184.216C526.205 183.831 525.845 184.103 526.434 183.439C525.846 182.955 524.321 183.208 523.304 183.228L522.662 183.707C516.846 184.293 507.751 183.275 501.98 182.234L501.395 180.963Z"/><path fill="#908EA1" d="M501.901 226.492C501.792 239.941 501.269 265.611 503.364 277.953C502.677 277.322 501.895 276.475 501.228 275.794C499.665 272.378 501.522 231.893 501.901 226.492Z"/><path fill="#3F3F59" d="M581.01 195.05C586.45 197.054 591.069 198.835 596.391 201.152C591.202 202.962 584.433 198.943 579.265 196.629L581.01 195.05Z"/><path fill="#3F3F59" d="M697.868 325.437C699.785 330.01 700.032 331.138 703.818 334.468L700.159 338.13C697.529 335.125 696.36 329.159 697.868 325.437Z"/><path fill="#5F5E91" d="M674.041 178.206C673.542 183.856 673.881 191.394 672.947 196.578C669.361 192.436 673.938 189.198 669.991 183.982C670.634 182.29 672.836 180.777 674.041 178.206Z"/><path fill="#FEFEFE" d="M604.461 202.476C621.208 195.743 637.945 189.881 654.574 182.887C661.912 179.8 669.502 174.245 675.876 171.709C676.732 196.021 674.002 213.501 666.249 236.485C665.403 238.991 662.444 247.154 661.096 248.974C661.049 242.66 665.816 231.679 667.529 225.003C669.808 216.118 672.479 205.75 672.947 196.578C673.881 191.394 673.542 183.856 674.041 178.206L673.427 176.271C672.042 175.937 667.551 178.91 665.955 179.756C646.602 190.012 624.838 195.477 605 204.473C601.505 203.419 599.733 202.651 596.391 201.152C591.069 198.835 586.45 197.054 581.01 195.05C562.871 189.279 553.535 186.576 534.83 183.558C523.762 181.885 512.588 181.018 501.395 180.963C471.683 180.847 444.953 186.008 416.897 196.068C410.147 198.488 402.951 202.321 396.868 204.421C391.131 202.655 383.438 198.883 377.578 196.566C366.559 192.212 355.303 188.225 344.32 183.87C340.852 182.284 336.199 180.396 332.517 179.546L331.608 179.309C330.021 185.604 339.853 225.008 341.758 232.808L340.532 232.037C337.992 223.448 326.208 182.498 328.927 175.814C330.217 175.224 330.383 175.394 331.816 175.984C346.726 182.112 361.855 187.631 376.889 193.434C383.56 196.008 390.085 199.436 396.722 201.949C408.614 197.145 415.605 193.556 428.298 189.695C482.294 172.96 540.439 175.606 592.691 197.176C596.647 198.869 600.571 200.637 604.461 202.476Z"/><path fill="#FEFEFE" d="M912.886 121.509L913.582 122.778C912.187 126.878 753.185 285.974 735.57 304.009C732.089 307.572 719.736 318.945 715.153 323.434C712.003 326.52 707.188 330.443 703.818 334.468C700.032 331.138 699.785 330.01 697.868 325.437C689.455 302.09 679.591 279.581 665.015 259.143C662.312 255.354 660.745 254.091 661.334 249.871C662.792 251.064 664.294 253.488 665.463 255.092C679.638 274.541 689.726 296.615 697.741 319.213C699.22 323.385 700.605 327.564 702.462 331.551L702.795 332.257C706.72 329.721 714.298 322.028 718.147 318.423C731.458 305.957 744.027 292.68 756.928 279.798L912.886 121.509Z"/><path fill="#FEFEFE" d="M345.692 248.024C346.692 248.781 346.467 249.084 346.882 250.625C342.048 258.88 336.349 266.784 331.799 274.769C310.619 311.944 298.659 345.735 295.749 388.535C294.747 403.266 295.218 421.033 293.836 434.935C292.182 432.784 293.683 419.94 292.59 414.724C291.45 364.294 302.811 320.554 327.841 276.835C330.632 271.961 345.332 251.505 345.692 248.024Z"/><path fill="#D8D7D9" d="M292.59 414.724C293.683 419.94 292.182 432.784 293.836 434.935C293.674 436.838 293.74 439.265 292.673 440.722L292.285 439.75C292.951 433.956 292.553 421.153 292.59 414.724Z"/><path fill="#FEFEFE" d="M177.988 61.1185C183.093 62.1388 193.648 70.2173 198.817 73.6979C205.114 71.0265 211.506 68.5019 217.859 65.963C220.319 64.9797 222.273 64.3413 224.592 65.7556C226.336 69.4362 220.498 87.2888 219.086 92.4313C223.669 97.1675 227.937 102.648 232.174 107.718C233.841 109.713 234.718 111.36 233.696 113.816C229.808 117.119 215.806 116.02 209.875 115.967L205.13 116.042C201.274 121.013 196.978 125.998 192.821 130.732C190.856 132.97 189.018 134.706 186.186 133.11C183.457 129.282 181.656 116.212 180.803 110.964C173.775 108.259 166.304 106.378 159.44 103.532C158.025 102.945 157.858 102.192 157.626 101.075C159.247 97.9141 173.569 89.5002 177.447 86.9862C177.38 81.2136 176.925 66.4052 177.988 61.1185Z"/><path fill="#5B5B72" d="M179.894 63.9797C184.912 67.3687 192.965 72.9385 198.175 75.5762C206.907 72.9962 214.818 69.72 223.36 66.6454C221.594 75.0379 218.873 84.2276 216.581 92.5692C221.875 99.6797 227.453 105.206 232.847 113.056C225.899 113.848 216.599 114.05 209.619 113.998C208.709 113.982 205.941 113.923 205.27 114.385C198.685 118.919 194.186 126.201 187.783 131.916C185.427 124.645 184.699 116.571 182.14 108.635C174.66 106.033 167.111 103.634 159.502 101.439C162.504 99.2537 178.759 89.7764 179.032 87.0049C179.723 79.9826 178.81 71.1907 179.894 63.9797Z"/><path fill="#FEFEFE" d="M121.926 299.621C127.06 300.296 134.211 307.978 137.191 311.98C142.152 311.146 146.631 310.323 151.453 308.907C153.796 308.218 156.952 307.112 158.724 309.03C159.14 312.993 153.495 322.269 151.342 326.131C153.517 329.422 155.788 332.707 157.889 336.037C159.457 338.525 161.932 341.115 160.264 343.906C156.504 345.655 147.102 344.065 142.617 343.574C134.197 342.717 131.041 359.548 125.051 356.056C122.726 352.395 122.281 341.504 121.117 335.963C117.917 334.593 104.27 330.816 104.985 326.699C108.06 323.393 115.983 321.368 120.426 318.956C120.493 313.111 119.847 304.799 121.926 299.621Z"/><path fill="#5B5B72" d="M123.454 301.92C126.987 303.853 134.361 311.182 137.641 314.252C145.452 313.134 149.586 311.954 156.992 309.611C146.995 330.12 148.33 323.606 159.245 342.512C152.739 342.515 146.596 341.848 140.124 341.252L138.967 341.345C135.941 343.389 129.219 351.7 126.486 354.946C124.268 348.316 124.846 343.027 123.344 336.925C122.34 332.849 111.014 329.044 106.745 327.108C112.605 325.196 116.839 323.542 122.271 320.626C123.252 314.104 122.136 308.271 123.454 301.92Z"/><path fill="#FEFEFE" d="M461.661 43.2581C467.508 43.6165 470.608 49.3699 473.803 53.7125C477.966 53.2499 487.759 50.2089 489.975 54.6425C489.917 58.0871 484.459 65.9013 482.418 69.48C490.302 85.8655 489.333 90.7505 470.493 82.1731C467.861 84.9325 459.85 94.5808 456.174 91.7261C453.944 85.6648 458.505 79.2764 451.642 75.358C448.592 73.6165 443.846 71.6539 441.483 69.3077C440.198 64.7514 451.945 60.881 455.496 59.3977C457.004 53.7087 457.907 47.6664 461.661 43.2581Z"/><path fill="#5B5B72" d="M462.547 45.4176C467.646 47.7252 469.907 51.7988 473.003 56.3742C478.33 55.6929 483.307 54.9758 488.693 54.8206C485.925 59.8689 482.562 63.8975 480.012 69.3463C481.647 73.1812 484.848 78.3526 485.238 82.3552C483.463 86.2646 473.352 81.2605 470.062 79.9807C466.904 82.1065 461.137 89.3799 458.937 89.7321C456.824 86.9996 457.303 80.441 456.872 76.5974C453.781 74.2562 445.826 71.2185 445.134 67.7793C446.42 65.0019 453.939 62.3389 457.068 60.9565C459.214 55.9927 459.749 50.2153 462.547 45.4176Z"/><path fill="#FEFEFE" d="M716.93 139.397C721.304 140.635 725.009 147.372 728.624 151.486C748.478 150.245 744.697 155.805 735.282 168.497C736.094 172.342 739.06 181.185 735.962 183.822C732.021 184.474 729.317 182.347 725.723 180.384C720.627 179.25 717.294 184.001 712.006 185.454C707.227 184.605 709.07 173.903 709.379 170.007C706.158 167.084 698.796 162.398 699.422 158.04C701.887 154.754 708.036 154.362 711.938 153.797C713.085 149.38 714.463 143.204 716.93 139.397Z"/><path fill="#5B5B72" d="M717.944 141.744C720.225 143.772 724.549 150.145 727.754 153.42C731.401 153.389 737.915 152.576 740.449 155.372C740.71 158.219 735.194 164.747 733.142 168.009C733.602 172.878 734.877 177.215 735.318 182.549C731.315 180.825 728.362 179.148 724.053 177.519C719.942 178.648 714.376 182.851 711.762 182.27C710.079 180.337 710.963 171.542 711.027 168.394C708.7 166.025 700.282 161.142 701.529 157.914C707.296 154.906 714.248 160.056 715.441 149.289C715.694 147.005 716.95 143.827 717.944 141.744Z"/><path fill="#FEFEFE" d="M96.0297 646.095C98.6425 647.284 103.437 651.455 106.35 653.515C110.006 653.417 117.996 651.791 120.407 654.384C120.758 657.613 117.643 662.001 115.908 665.015C117.244 668.969 120.952 673.414 121.349 677.979C120.118 679.117 110.373 678.109 107.291 678.793C105.208 681.235 101.373 686.38 98.127 686.303C95.5683 684.892 94.1611 677.992 93.0582 674.665C89.8259 672.828 84.5083 670.594 83.6942 666.833C84.8669 663.787 90.8201 661.105 93.9309 659.368C94.1124 654.076 94.083 651.008 96.0297 646.095Z"/><path fill="#5B5B72" d="M96.877 648.682C97.8627 649.227 103.835 654.663 105.565 656.06C110.154 655.512 114.034 655.096 118.658 654.835C117.458 658.258 115.199 662.645 113.589 666.009C116.091 669.115 118.575 673.526 120.306 677.138C115.861 677.065 112.193 676.777 107.753 676.381C103.725 678.63 102.375 682.12 99.5101 683.698C96.3206 682.708 96.2132 675.387 94.3785 673.746C92.0028 671.62 87.8477 669.09 85.0469 666.929C88.3118 664.448 91.8316 662.321 95.5469 660.586C95.8754 656.268 96.222 652.954 96.877 648.682Z"/><path fill="#5B5B72" d="M1024 861.704L1024 865.045L1024 886.554L1024 889.461L1024 1024L0 1024L0 899.477L0 896.07L0 871.381L0 868.949C24.673 868.542 49.3405 867.851 73.9976 866.877C95.2726 865.985 116.167 864.705 137.546 864.017C145.656 863.735 153.769 863.573 161.884 863.531C164.926 863.538 177.016 864.011 179.002 863.52C179.701 865.183 179.492 865.956 178.796 868.031C179.961 872.794 178.642 880.538 179.465 886.082C183.732 887.432 193.627 885.043 198.33 886.933C207.387 887.345 218.215 887.012 227.403 886.977L279.61 886.804L421.685 886.969L473.243 886.989C481.315 886.995 489.689 887.02 497.786 887.168C499.015 887.19 500.021 887.767 500.956 888.549L503.322 888.538L500.978 887.819L500.749 887.278C501.257 882.706 501.23 873.89 501.348 868.981C511.885 868.951 522.422 869.054 532.957 869.291C560.843 869.954 588.78 870.411 616.658 869.26C621.949 869.042 645.634 870.022 648.062 867.707C661.819 866.381 682.549 866.918 696.832 866.869L757.735 867.137C762.47 867.148 775.088 867.344 779.359 866.785L781.932 867.272C786.866 866.939 801.306 867.622 804.866 866.65C804.915 864.911 804.959 865.418 806.498 863.737L807.705 864.563C810.258 864.333 812.92 864.461 815.489 864.434C834.193 864.234 852.954 864.92 871.649 864.651L1024 861.704Z"/><path fill="#3F3F59" d="M1024 861.704L1024 865.045L1024 886.554L1024 889.461L752.657 889.496L584.827 888.494C557.659 888.308 530.49 888.323 503.322 888.538L500.978 887.819L500.749 887.278C501.257 882.706 501.23 873.89 501.348 868.981C511.885 868.951 522.422 869.054 532.957 869.291C560.843 869.954 588.78 870.411 616.658 869.26C621.949 869.042 645.634 870.022 648.062 867.707C661.819 866.381 682.549 866.918 696.832 866.869L757.735 867.137C762.47 867.148 775.088 867.344 779.359 866.785L781.932 867.272C786.866 866.939 801.306 867.622 804.866 866.65C804.915 864.911 804.959 865.418 806.498 863.737L807.705 864.563C810.258 864.333 812.92 864.461 815.489 864.434C834.193 864.234 852.954 864.92 871.649 864.651L1024 861.704Z"/><path fill="#FEFEFE" d="M500.749 887.278C504.599 886.585 511.977 886.751 516.076 886.735L540.423 886.625L650.13 886.439L1024 886.554L1024 889.461L752.657 889.496L584.827 888.494C557.659 888.308 530.49 888.323 503.322 888.538L500.978 887.819L500.749 887.278Z"/><path fill="#FEFEFE" d="M1024 861.704L1024 865.045L862.759 866.925C845.866 867.148 828.893 866.538 811.993 866.534C809.727 866.534 807.089 866.379 804.866 866.65C804.915 864.911 804.959 865.418 806.498 863.737L807.705 864.563C810.258 864.333 812.92 864.461 815.489 864.434C834.193 864.234 852.954 864.92 871.649 864.651L1024 861.704Z"/><path fill="#3F3F59" d="M0 868.949C24.673 868.542 49.3405 867.851 73.9976 866.877C95.2726 865.985 116.167 864.705 137.546 864.017C145.656 863.735 153.769 863.573 161.884 863.531C164.926 863.538 177.016 864.011 179.002 863.52C179.701 865.183 179.492 865.956 178.796 868.031C179.961 872.794 178.642 880.538 179.465 886.082C183.732 887.432 193.627 885.043 198.33 886.933L186.286 887.097C181.231 886.922 175.558 887.552 170.469 887.974C164.797 888.013 147.69 888.42 143.243 887.074C134.213 886.701 123.652 887.838 114.502 888.18C112.151 888.268 104.026 888.622 102.326 888.967C79.5577 889.096 57.2429 890.087 34.6844 893.069C27.8565 893.971 18.3544 894.026 11.8753 895.445L0 896.07L0 871.381L0 868.949Z"/><path fill="#FEFEFE" d="M0 868.949C24.673 868.542 49.3405 867.851 73.9976 866.877C95.2726 865.985 116.167 864.705 137.546 864.017C145.656 863.735 153.769 863.573 161.884 863.531C164.926 863.538 177.016 864.011 179.002 863.52C179.701 865.183 179.492 865.956 178.796 868.031L177.425 867.591L177.198 867.107C174.399 864.625 117.233 867.786 109.556 868C96.4322 868.105 83.3826 869.349 70.2702 869.844C67.1636 869.961 63.9607 870.208 60.8749 870.565C40.2649 870.734 20.8804 871.662 0 871.381L0 868.949Z"/><path fill="#5F5E91" d="M60.8749 870.565C63.9607 870.208 67.1636 869.961 70.2702 869.844C83.3826 869.349 96.4322 868.105 109.556 868C105.305 872.113 85.9654 870.461 79.2645 871.033C75.1612 871.384 64.1591 872.44 60.8749 870.565Z"/><path fill="#D8D7D9" d="M177.425 867.591L178.796 868.031C179.961 872.794 178.642 880.538 179.465 886.082C183.732 887.432 193.627 885.043 198.33 886.933L186.286 887.097C181.231 886.922 175.558 887.552 170.469 887.974C164.797 888.013 147.69 888.42 143.243 887.074C153.393 886.946 168.626 886.938 178.39 885.884C178.536 879.442 177.344 873.37 177.425 867.591Z"/><defs><linearGradient id="gradient_6" gradientUnits="userSpaceOnUse" x1="146.62" y1="901.72009" x2="135.26773" y2="878.57056"><stop offset="0" stop-color="#93919E"/><stop offset="1" stop-color="#D2D0D0"/></linearGradient></defs><path fill="url(#gradient_6)" d="M102.326 888.967C104.026 888.622 112.151 888.268 114.502 888.18C123.652 887.838 134.213 886.701 143.243 887.074C147.69 888.42 164.797 888.013 170.469 887.974C170.72 889.463 170.746 889.358 170.255 890.779C169.127 891.675 169.141 891.575 167.699 891.857C146.819 892.09 123.891 893.235 103.343 891.605C106.248 891.478 106.924 891.425 109.71 890.649L109.879 889.704L110.241 890.514L111.054 890.131L110.668 889.862L110.944 890.258L111.031 889.999C108.7 889.045 105.03 889.127 102.326 888.967Z"/><defs><linearGradient id="gradient_7" gradientUnits="userSpaceOnUse" x1="65.34935" y1="895.4339" x2="65.20076" y2="890.29797"><stop offset="0" stop-color="#A4A3AF"/><stop offset="1" stop-color="white"/></linearGradient></defs><path fill="url(#gradient_7)" d="M11.8753 895.445C18.3544 894.026 27.8565 893.971 34.6844 893.069C57.2429 890.087 79.5577 889.096 102.326 888.967C105.03 889.127 108.7 889.045 111.031 889.999L110.944 890.258L110.668 889.862L111.054 890.131L110.241 890.514L109.879 889.704L109.71 890.649C106.924 891.425 106.248 891.478 103.343 891.605C92.9502 891.75 82.109 891.757 71.7417 892.079C64.7375 891.972 34.6099 893.609 28.1269 895.413L28.709 895.716C29.589 896.186 30.6276 896.672 31.2699 897.399L30.1188 897.754C22.7337 897.44 18.9027 896.533 11.8753 895.445Z"/><defs><linearGradient id="gradient_8" gradientUnits="userSpaceOnUse" x1="26.160168" y1="889.34821" x2="12.857591" y2="906.78387"><stop offset="0" stop-color="#D2D1D6"/><stop offset="1" stop-color="#FCF8FD"/></linearGradient></defs><path fill="url(#gradient_8)" d="M0 896.07L11.8753 895.445C18.9027 896.533 22.7337 897.44 30.1188 897.754C33.7461 897.875 37.3743 897.966 41.0031 898.026L42.8865 899.496C28.5914 899.649 14.295 899.642 0 899.477L0 896.07Z"/><path fill="#908EA1" d="M30.1188 897.754L31.2699 897.399C30.6276 896.672 29.589 896.186 28.709 895.716L28.1269 895.413C34.6099 893.609 64.7375 891.972 71.7417 892.079C67.6884 892.816 57.143 895.134 53.5638 896.677L53.2367 896.051C54.7375 895.278 55.7623 895.042 57.2434 894.069C58.0946 894.049 60.2546 894.18 60.7114 893.781C56.2631 893.648 51.7217 892.902 48.1625 895.486L47.9099 896.453C49.5859 898.224 51.2222 897.13 54.1085 897.977C50.7567 898.471 44.9654 897.926 41.0031 898.026C37.3743 897.966 33.7461 897.875 30.1188 897.754Z"/><path fill="#908EA1" d="M170.469 887.974C175.558 887.552 181.231 886.922 186.286 887.097C182.603 887.821 176.203 887.957 173.51 889.851L173.411 890.586C175.206 890.947 175.938 891.064 177.759 891.174C176.17 891.861 169.77 891.862 167.699 891.857C169.141 891.575 169.127 891.675 170.255 890.779C170.746 889.358 170.72 889.463 170.469 887.974Z"/><path fill="#AEACBB" d="M41.0031 898.026C44.9654 897.926 50.7567 898.471 54.1085 897.977C55.3559 898.006 58.0591 897.848 58.8756 898.409C54.6004 899.11 47.2856 899.558 42.8865 899.496L41.0031 898.026Z"/><defs><linearGradient id="gradient_9" gradientUnits="userSpaceOnUse" x1="515.12366" y1="940.09955" x2="484.17169" y2="950.64044"><stop offset="0" stop-color="#C0BCC2"/><stop offset="1" stop-color="#F1F0EF"/></linearGradient></defs><path fill="url(#gradient_9)" d="M503.728 901.811C505.731 900.419 504.681 900.679 506.914 900.745C510.773 902.787 514.223 911.68 515.436 915.783C521.091 934.91 518.057 967.705 504.085 982.926C502.498 984.93 500.227 986.406 498.088 987.73C495.548 984.693 494.474 982.369 492.895 978.862C492.508 977.928 492.141 976.986 491.796 976.037C483.518 953.181 489.931 928.039 499.806 906.875C500.463 904.967 502.323 903.244 503.728 901.811Z"/><path fill="#FEFEFE" d="M503.728 901.811C505.731 900.419 504.681 900.679 506.914 900.745C510.773 902.787 514.223 911.68 515.436 915.783C521.091 934.91 518.057 967.705 504.085 982.926C502.812 980.517 507.379 965.256 507.87 959.687L506.914 960.233C507.509 958.269 507.632 955.613 507.789 953.546L505.963 951.163C506.732 934.761 504.892 918.102 503.728 901.811Z"/><path fill="#6D6E7C" d="M507.789 953.546C509.448 939.054 510.251 926.429 508.422 911.749C508.162 909.662 506.879 904.239 507.225 902.716C511.891 907.974 510.335 939.855 509.187 948.12C508.697 951.648 508.074 956.089 507.87 959.687L506.914 960.233C507.509 958.269 507.632 955.613 507.789 953.546Z"/><path fill="#FEFEFE" d="M499.806 906.875C499.964 907.335 500.122 907.795 500.28 908.255C496.394 916.868 496.198 924.49 495.788 933.7C495.419 941.986 494.188 950.853 494.335 959.257C494.256 963.147 495.323 974.04 494.808 976.443L492.895 978.862C492.508 977.928 492.141 976.986 491.796 976.037C483.518 953.181 489.931 928.039 499.806 906.875Z"/><path fill="#D8D7D9" d="M505.963 951.163L507.789 953.546C507.632 955.613 507.509 958.269 506.914 960.233C505.614 957.633 505.89 954.05 505.963 951.163Z"/><path fill="#FEFEFE" d="M519.088 901.07C529.9 900.75 540.661 902.674 550.692 906.721C568.555 914.056 583.171 926.766 591.874 944.709C592.724 946.461 592.668 947.934 591.916 949.612C562.267 957.68 527.153 928.213 519.088 901.07Z"/><path fill="#161526" d="M522.726 904.102C523.968 904.402 524.12 904.307 525.053 905.127C538.406 912.886 552.285 923.288 565.204 931.967C567.214 933.317 575.523 938.682 576.81 939.933C570.613 937.066 527.74 908.917 522.726 904.102Z"/><path fill="#AEACBB" d="M522.726 904.102L522.08 903.57C526.085 902.661 552.404 912.913 554.101 916.215L553.728 916.803C552.083 916.136 552.065 916.039 550.787 915.134C546.394 912.024 530.061 904.975 525.053 905.127C524.12 904.307 523.968 904.402 522.726 904.102Z"/><path fill="#FEFEFE" d="M437.417 951.878C440.784 928.773 467.711 902.92 490.689 899.705C495.891 901.423 488.322 916.304 486.892 919.468C488.177 929.164 460.696 952.791 450.345 951.737C447.299 952.656 442.238 954.404 439.249 954.359C438.026 953.561 438.375 954.116 437.959 952.825L437.417 951.878Z"/><path fill="#2D284E" d="M486.892 919.468C488.177 929.164 460.696 952.791 450.345 951.737C468.665 944.228 476.96 935.992 486.892 919.468Z"/><path fill="#AEACBB" d="M437.417 951.878C439.841 950.242 456.416 929.1 461.792 923.782L462.164 924.567C454.253 933.34 445.717 944.765 437.959 952.825L437.417 951.878Z"/><path fill="#5B5B72" d="M461.792 923.782C466.567 918.546 474.99 909.787 480.702 905.82L481.276 905.952C475.593 911.348 466.986 918.798 462.164 924.567L461.792 923.782Z"/><path fill="#5B5B72" d="M457.989 938.742C465.143 931.682 471.992 924.321 478.519 916.677C482.191 912.397 486.568 906.547 490.457 902.768C487.353 909.286 464.939 933.023 458.906 938.999L457.989 938.742Z"/><path fill="#D8D7D9" d="M458.906 938.999C456.641 941.576 448.146 948.47 444.879 949.652L444.773 949.365L457.989 938.742L458.906 938.999Z"/></svg>