<?xml version="1.0" encoding="utf-8" ?><svg xmlns="http://www.w3.org/2000/svg" xmlns:xlink="http://www.w3.org/1999/xlink" width="240" height="240" viewBox="0 0 240 240"><path fill="#FEFEFE" transform="scale(0.234375 0.234375)" d="M0 0L1024 0L1024 7.32084L1024 28.9811L1024 868.097L1024 884.946L1024 1024L0 1024L0 884.432L0 868.509L0 0Z"/><path fill="#FEFEFE" transform="scale(0.234375 0.234375)" d="M702.844 355.504C724.236 336.224 743.895 314.915 764.092 294.336L855.031 202.266C897.477 159.545 939.627 116.531 981.479 73.2285C994.643 59.4802 1011.73 42.8699 1024 28.9811L1024 868.097L764.872 868.164C751.681 867.762 736.832 868.105 723.542 868.114L646.276 868.155C650.368 863.42 655.51 858.748 659.758 853.711C670.688 840.751 681.149 826.368 688.28 810.977C668.131 797.099 649.106 771.645 636.684 750.997C631.276 741.494 625.117 730.418 621.161 720.069C605.442 678.943 599.014 633.125 602.457 589.233C602.902 583.556 601.978 575.496 605.729 571.092C607.49 569.023 610.301 569.253 612.764 569.263C608.331 564.334 604.732 558.865 600.274 553.855C585.794 537.507 566.913 525.673 545.888 519.768C545.336 519.496 544.975 519.175 544.473 518.803C545.457 515.961 566.515 495.254 570.13 491.52L636.76 423.004C644.292 415.246 698.732 357.546 702.844 355.504Z"/><path fill="#685DF7" transform="scale(0.234375 0.234375)" d="M753.378 557.81C766.801 565.235 777.897 570.758 791.963 576.472C816.439 584.739 848.366 592.131 872.835 579.995C876.862 577.981 880.693 575.599 884.28 572.878C887.678 570.329 897.616 559.544 901.415 568.077C904.42 574.827 904.163 585.016 905.294 592.347C909.168 635.343 903.892 678.264 888.124 718.586C868.861 767.845 831.414 812.484 782.393 834.012C773.92 837.732 764.232 841.722 755.551 844.8C731.225 836.206 708.654 827.597 688.28 810.977C668.131 797.099 649.106 771.645 636.684 750.997C631.276 741.494 625.117 730.418 621.161 720.069C605.442 678.943 599.014 633.125 602.457 589.233C602.902 583.556 601.978 575.496 605.729 571.092C607.49 569.023 610.301 569.253 612.764 569.263C624.286 578.562 642.298 583.824 656.97 584.653C695.203 587.183 721.403 576.147 753.378 557.81Z"/><path fill="#606068" transform="scale(0.234375 0.234375)" d="M545.888 519.768C545.336 519.496 544.975 519.175 544.473 518.803C545.457 515.961 566.515 495.254 570.13 491.52L636.76 423.004C644.292 415.246 698.732 357.546 702.844 355.504C705.537 369.495 708.078 383.72 709.164 397.94C710.34 413.343 710.196 429.198 710.327 444.676C693.217 449.352 678.647 460.594 669.785 475.958C654.459 502.569 653.336 535.207 655.111 565.12C655.5 571.679 656.491 578.214 656.97 584.653C642.298 583.824 624.286 578.562 612.764 569.263C608.331 564.334 604.732 558.865 600.274 553.855C585.794 537.507 566.913 525.673 545.888 519.768Z"/><path fill="#3E3C55" transform="scale(0.234375 0.234375)" d="M710.327 444.676C769.922 436.89 793.628 511.414 792.351 558.367C792.187 564.4 792.137 570.436 791.963 576.472C777.897 570.758 766.801 565.235 753.378 557.81C721.403 576.147 695.203 587.183 656.97 584.653C656.491 578.214 655.5 571.679 655.111 565.12C653.336 535.207 654.459 502.569 669.785 475.958C678.647 460.594 693.217 449.352 710.327 444.676Z"/><path fill="#FEFEFE" transform="scale(0.234375 0.234375)" d="M636.684 750.997C649.106 771.645 668.131 797.099 688.28 810.977C681.149 826.368 670.688 840.751 659.758 853.711C655.51 858.748 650.368 863.42 646.276 868.155L723.542 868.114C736.832 868.105 751.681 867.762 764.872 868.164L1024 868.097L1024 884.946L1024 1024L0 1024L0 884.432L0 868.509C53.0748 868.568 107.65 869.078 160.629 868.284C166.274 868.295 172.349 868.189 177.952 868.501C177.957 873.765 177.924 879.075 177.993 884.334C181.391 883.431 198.7 884.126 203.428 884.195C214.318 884.284 225.209 884.317 236.1 884.294L430.048 884.362C444.426 884.251 458.804 884.248 473.182 884.351C480.729 884.415 494.758 884.891 501.672 884.093C501.751 878.709 501.783 873.325 501.767 867.942C501.904 860.631 501.872 853.195 501.908 845.873C508.807 845.939 520.436 846.281 527.088 845.562C536.556 846.078 552.437 841.727 560.945 837.73C599.991 819.388 621.728 790.15 636.684 750.997Z"/><path fill="#606068" transform="scale(0.234375 0.234375)" d="M636.684 750.997C649.106 771.645 668.131 797.099 688.28 810.977C681.149 826.368 670.688 840.751 659.758 853.711C655.51 858.748 650.368 863.42 646.276 868.155L723.542 868.114C736.832 868.105 751.681 867.762 764.872 868.164C763.726 869.068 528.163 868.23 501.767 867.942C501.904 860.631 501.872 853.195 501.908 845.873C508.807 845.939 520.436 846.281 527.088 845.562C536.556 846.078 552.437 841.727 560.945 837.73C599.991 819.388 621.728 790.15 636.684 750.997Z"/><path fill="#3E3C55" transform="scale(0.234375 0.234375)" d="M501.767 867.942C528.163 868.23 763.726 869.068 764.872 868.164L1024 868.097L1024 884.946C973.135 884.575 922.268 884.55 871.402 884.868L687.215 884.595L585.606 884.545C557.627 884.687 529.648 884.536 501.672 884.093C501.751 878.709 501.783 873.325 501.767 867.942Z"/><path fill="#3E3C55" transform="scale(0.234375 0.234375)" d="M160.629 868.284C166.274 868.295 172.349 868.189 177.952 868.501C177.957 873.765 177.924 879.075 177.993 884.334C175.185 884.953 163.341 884.654 159.979 884.628L131.47 884.548L0 884.432L0 868.509C53.0748 868.568 107.65 869.078 160.629 868.284Z"/><path fill="#E4E4E4" transform="scale(0.234375 0.234375)" d="M499.931 905.024C507.17 904.48 511.344 906.927 511.334 914.689C511.307 935.136 511.847 955.935 510.829 976.338C510.701 978.902 507.24 981.529 505.275 982.806C497.777 982.686 494.535 979.735 494.27 972.062C493.799 955.555 494.062 938.966 494.064 922.443C494.065 914.414 492.996 910 499.931 905.024Z"/><path fill="#E4E4E4" transform="scale(0.234375 0.234375)" d="M700.607 336.183C707.501 331.131 726.222 311.307 732.642 304.698L785.013 251.099L865.757 169.015C878.368 156.264 891.475 143.531 903.877 130.618C936.885 95.9483 970.34 61.7066 1004.23 27.9019C1010.98 21.2553 1017.18 13.7193 1024 7.32084L1024 28.9811C1011.73 42.8699 994.643 59.4802 981.479 73.2285C939.627 116.531 897.477 159.545 855.031 202.266L764.092 294.336C743.895 314.915 724.236 336.224 702.844 355.504C698.732 357.546 644.292 415.246 636.76 423.004L570.13 491.52C566.515 495.254 545.457 515.961 544.473 518.803C544.975 519.175 545.336 519.496 545.888 519.768C566.913 525.673 585.794 537.507 600.274 553.855C604.732 558.865 608.331 564.334 612.764 569.263C610.301 569.253 607.49 569.023 605.729 571.092C601.978 575.496 602.902 583.556 602.457 589.233C599.014 633.125 605.442 678.943 621.161 720.069C625.117 730.418 631.276 741.494 636.684 750.997C621.728 790.15 599.991 819.388 560.945 837.73C552.437 841.727 536.556 846.078 527.088 845.562C520.436 846.281 508.807 845.939 501.908 845.873C501.872 853.195 501.904 860.631 501.767 867.942C501.783 873.325 501.751 878.709 501.672 884.093C494.758 884.891 480.729 884.415 473.182 884.351C458.804 884.248 444.426 884.251 430.048 884.362L236.1 884.294C225.209 884.317 214.318 884.284 203.428 884.195C198.7 884.126 181.391 883.431 177.993 884.334C177.924 879.075 177.957 873.765 177.952 868.501C172.349 868.189 166.274 868.295 160.629 868.284C162.134 867.327 175.197 867.819 177.874 867.855C184.478 859.847 195.423 850.197 202.787 842.345C219.176 824.868 236.135 807.93 253.122 791.071C259.444 784.797 276.982 769.108 280.902 762.285C286.37 755.724 299.062 743.765 305.703 737.125L350.554 692.261C351.766 691.15 352.739 689.977 353.819 688.743C354.852 647.296 367.327 607.935 395.098 576.472C418.238 549.981 450.161 532.73 485.001 527.89C496.203 526.366 505.127 526.739 516.179 526.039C521.722 519.041 529.752 511.696 535.835 505.103C538.591 502.116 541.55 499.611 543.99 496.282C548.386 492.629 561.008 478.792 565.755 473.95L640.668 397.16C643.821 393.929 659.95 378.518 661.298 375.958C664.19 373.438 667.416 369.976 670.153 367.208C680.356 356.889 690.28 346.388 700.607 336.183Z"/><path fill="#FEFEFE" transform="scale(0.234375 0.234375)" d="M545.888 519.768C566.913 525.673 585.794 537.507 600.274 553.855C604.732 558.865 608.331 564.334 612.764 569.263C610.301 569.253 607.49 569.023 605.729 571.092C601.978 575.496 602.902 583.556 602.457 589.233C599.014 633.125 605.442 678.943 621.161 720.069C625.117 730.418 631.276 741.494 636.684 750.997C621.728 790.15 599.991 819.388 560.945 837.73C552.437 841.727 536.556 846.078 527.088 845.562C522.641 844.933 506.874 845.288 501.511 845.308C502.327 834.404 502.019 821.153 502.06 810.012L502.129 741.637C502.536 701.835 502.636 662.031 502.427 622.228C502.396 602.857 502.866 581.275 502.185 562.179C502.372 561.915 503.075 560.888 503.496 560.47C516.725 547.325 528.859 532.421 542.709 520.027C544.001 519.921 545.061 519.835 545.888 519.768Z"/><path fill="#FEFEFE" transform="scale(0.234375 0.234375)" d="M288.376 777.847C290.537 779.448 302.045 796.741 304.717 800.406C311.829 809.991 319.013 819.523 326.27 828.999C336.111 841.678 349.337 856.875 360.278 868.607C348.386 868.436 336.306 869.02 324.392 868.917C306.429 868.763 288.472 868.572 270.507 868.704C246.197 868.403 221.883 868.489 197.575 868.963C202.723 863.417 207.742 858.362 213.177 853.117C238.706 828.478 263.407 803.048 288.376 777.847Z"/><path fill="#FEFEFE" transform="scale(0.234375 0.234375)" d="M502.107 271.396C527.093 251.789 547.402 241.727 580.413 246.017C641.814 253.998 675.254 318.659 661.298 375.958C659.95 378.518 643.821 393.929 640.668 397.16L565.755 473.95C561.008 478.792 548.386 492.629 543.99 496.282C543.741 496.372 543.493 496.462 543.244 496.552C501.22 509.571 457.333 504.195 418.885 483.037C354.071 447.371 317.425 363.934 354.909 295.596C367.049 272.954 387.838 256.19 412.539 249.123C442.12 240.748 470.287 247.664 494.604 265.499C496.527 266.909 500.251 270.644 502.107 271.396Z"/><path fill="#3E3C55" transform="scale(0.234375 0.234375)" d="M503.218 404.992L502.803 405.375C501.199 404.336 482.581 374.247 480.328 369.943C472.929 355.807 489.809 341.876 504.13 342.662C511.239 344.044 518.295 346.772 522.654 352.953C530.402 363.941 522.649 374.1 516.753 383.521C512.276 390.701 507.687 397.818 503.218 404.992Z"/><path fill="#606068" transform="scale(0.234375 0.234375)" d="M503.218 404.992L502.803 405.375C501.199 404.336 482.581 374.247 480.328 369.943C472.929 355.807 489.809 341.876 504.13 342.662L502.215 343.332C501.263 347.283 502.001 400.342 503.218 404.992Z"/><path fill="#FBD9DE" transform="scale(0.234375 0.234375)" d="M411.476 360.168C419.438 359.486 427.126 360.165 434.391 363.849C440.073 366.731 444.901 373.379 440.762 379.537C437.093 384.997 429.074 386.671 423.019 387.913C389.112 391.465 376.748 365.413 411.476 360.168Z"/><path fill="#FBD9DE" transform="scale(0.234375 0.234375)" d="M584.546 360.663C614.582 357.415 627.75 381.241 596.792 387.928C566.398 391.672 553.098 365.347 584.546 360.663Z"/><path fill="#3E3C55" transform="scale(0.234375 0.234375)" d="M576.474 315.945C585.263 315.586 592.679 322.422 593.033 331.212C593.388 340.001 586.547 347.413 577.757 347.762C568.975 348.111 561.571 341.277 561.216 332.495C560.862 323.713 567.692 316.305 576.474 315.945Z"/><path fill="#3E3C55" transform="scale(0.234375 0.234375)" d="M428.793 316.309C437.474 315.359 445.281 321.626 446.231 330.307C447.181 338.988 440.913 346.795 432.233 347.745C423.552 348.695 415.745 342.428 414.795 333.747C413.845 325.066 420.112 317.259 428.793 316.309Z"/><path fill="#606068" transform="scale(0.234375 0.234375)" d="M346.904 256.086C343.898 234.673 334.125 211.16 329.991 189.719C328.795 183.516 333.083 179.247 339.184 181.509C346.545 184.24 353.521 187.491 360.653 190.65L397.371 206.804C406.871 203.024 415.987 198.139 425.858 194.647C452.805 185.114 474.395 182.505 502.445 181.615C501.263 183.407 501.433 264.098 502.107 271.396C500.251 270.644 496.527 266.909 494.604 265.499C470.287 247.664 442.12 240.748 412.539 249.123C387.838 256.19 367.049 272.954 354.909 295.596C317.425 363.934 354.071 447.371 418.885 483.037C457.333 504.195 501.22 509.571 543.244 496.552C543.493 496.462 543.741 496.372 543.99 496.282C541.55 499.611 538.591 502.116 535.835 505.103C529.752 511.696 521.722 519.041 516.179 526.039C505.127 526.739 496.203 526.366 485.001 527.89C450.161 532.73 418.238 549.981 395.098 576.472C367.327 607.935 354.852 647.296 353.819 688.743C352.739 689.977 351.766 691.15 350.554 692.261C349.481 681.937 349.984 659.82 349.92 648.52L349.69 555.009C349.616 543.049 350.152 523.428 348.562 512.241C346.916 500.677 343.385 489.46 338.11 479.038C332.043 467.338 322.523 456.391 310.732 450.028C306.721 447.864 299.071 445.611 294.502 444.146C294.485 429.601 294.142 414.083 295.141 399.647C298.042 357.723 309.646 314.875 331.415 278.732C335.723 271.578 342.021 263.029 346.904 256.086Z"/><path fill="#3E3C55" transform="scale(0.234375 0.234375)" d="M280.902 762.285C280.569 761.831 280.242 761.373 279.922 760.911C272.182 749.66 263.794 734.81 257.214 722.62C224.138 661.338 208.458 587.857 220.243 518.741C224.274 495.101 235.597 467.096 255.891 453.107C266.985 445.469 281.085 441.591 294.502 444.146C299.071 445.611 306.721 447.864 310.732 450.028C322.523 456.391 332.043 467.338 338.11 479.038C343.385 489.46 346.916 500.677 348.562 512.241C350.152 523.428 349.616 543.049 349.69 555.009L349.92 648.52C349.984 659.82 349.481 681.937 350.554 692.261L305.703 737.125C299.062 743.765 286.37 755.724 280.902 762.285Z"/><path fill="#3E3C55" transform="scale(0.234375 0.234375)" d="M605.194 207.06C611.754 203.463 619.056 200.424 626.064 197.63C638.788 192.558 651.262 186.873 663.899 181.628C665.508 180.96 668.326 180.56 670.063 181C673.216 181.95 674.896 186.325 674.383 189.322C673.15 196.518 671.01 203.482 669.398 210.593C665.928 225.467 662.652 240.178 658.25 254.821C676.653 279.488 690.955 306.961 700.607 336.183C690.28 346.388 680.356 356.889 670.153 367.208C667.416 369.976 664.19 373.438 661.298 375.958C675.254 318.659 641.814 253.998 580.413 246.017C547.402 241.727 527.093 251.789 502.107 271.396C501.433 264.098 501.263 183.407 502.445 181.615C536.78 182.084 575.523 189.238 605.194 207.06Z"/></svg>