<?xml version="1.0" encoding="utf-8" ?><svg xmlns="http://www.w3.org/2000/svg" xmlns:xlink="http://www.w3.org/1999/xlink" width="1024" height="1024" viewBox="0 0 1024 1024"><path fill="#5F5CCB" d="M0 0L758.005 0L947.769 0L1024 0L1024 1024L0 1024L0 591.087L0 588.338L0 475.163L0 467.612L0 0Z"/><path fill="#5F5CCB" d="M50.974 360.052C61.7298 350.234 76.2896 344.594 90.1914 340.591C91.6389 340.175 93.9885 339.478 95.1392 340.17C95.2057 341.029 95.1265 340.608 96.0951 341.461C102.699 340.571 112.337 342.345 117.04 342.141C131.025 341.534 238.962 343.271 243.551 340.965L245.188 341.219C262.516 345.101 266.478 348.797 277.672 360.84C277.506 362.564 277.752 361.708 276.374 363.323C269.712 367.909 267.505 369.249 265.907 377.827C264.784 383.851 265.163 392.121 265.217 398.408C265.361 408.025 265.411 417.643 265.367 427.261C265.468 432.853 265.041 444.99 265.66 449.601C266.871 450.332 266.923 450.234 268.358 450.422C275.552 451.151 303.641 452.256 307.306 453.959C310.865 458.739 305.031 495.894 303.863 503.853C296.148 556.472 278.348 615.393 247.47 659.14C239.847 669.758 231.313 679.691 221.967 688.829C211.763 698.355 185.212 716.211 171.836 717.365C155.689 718.759 129.17 698.654 117.134 688.721C113.672 685.263 110.289 681.726 106.988 678.114C65.1687 631.852 45.2827 564.896 36.0778 504.387C33.3754 486.622 31.0565 471.098 31.997 453.041C45.2268 453.001 59.0927 452.698 71.992 449.998C73.1369 449.749 73.216 449.676 74.3162 449.238C74.9094 446.929 74.6591 433.462 74.6575 430.479L74.6432 389.246C73.7387 369.709 67.0202 367.866 50.974 360.052Z"/><path fill="#2A2951" d="M50.974 360.052C61.7298 350.234 76.2896 344.594 90.1914 340.591C91.6389 340.175 93.9885 339.478 95.1392 340.17C95.2057 341.029 95.1265 340.608 96.0951 341.461C102.699 340.571 112.337 342.345 117.04 342.141C131.025 341.534 238.962 343.271 243.551 340.965L245.188 341.219C262.516 345.101 266.478 348.797 277.672 360.84C277.506 362.564 277.752 361.708 276.374 363.323C269.712 367.909 267.505 369.249 265.907 377.827C264.784 383.851 265.163 392.121 265.217 398.408C265.361 408.025 265.411 417.643 265.367 427.261C265.041 434.641 265.208 442.599 265.241 450.035C223.761 441.356 197.755 424.476 169.73 393.432C142.353 425.687 115.641 439.338 74.9048 449.363L74.9323 410.497C74.9357 403.807 75.1187 395.782 74.6432 389.246C73.7387 369.709 67.0202 367.866 50.974 360.052Z"/><path fill="#EAE9F0" d="M170.377 421.892C171.312 422.213 176.917 428.065 178.119 429.239C208.075 458.531 247.013 470.274 287.617 472.079C285.892 508.671 272.488 561.864 258.851 595.439C241.017 639.348 214.411 677.765 169.415 696.876C145.624 689.384 123.633 668.927 109.084 649.165C71.5355 598.166 58.2347 534.462 52.0497 472.655C87.7351 471.98 122.298 460.065 150.819 438.606C157.18 433.88 164.026 427.139 170.377 421.892Z"/><path fill="#5F5CCB" d="M169.474 503.563C184.793 512.83 193.212 516.018 210.561 519.643C210.51 551.311 203.142 583.688 177.977 604.536C175.209 606.83 172.419 609.016 169.568 611.199C166.348 610.049 161.392 605.984 158.903 603.578C133.925 579.437 129.571 552.339 128.786 519.497C143.694 516.529 156.992 512.686 169.474 503.563Z"/><path fill="#AFB1CC" d="M758.005 0L947.769 0L947.836 0.395929C948.012 3.496 952.129 7.59603 952.185 10.6015C952.466 25.7516 954.212 43.3436 949.65 57.8505C953.087 68.3298 953.205 70.299 953.143 81.288C953.291 76.3532 953.253 70.0283 953.559 65.2833C954.225 69.6943 954.021 78.6329 954.018 83.3567L953.986 111.982C953.959 138.285 954.697 167.975 953.927 193.953L952.92 194.383C951.178 199.883 952.651 238.003 951.953 246.284C951.565 250.884 948.891 251.786 948.98 254.348C947.087 255.757 945.51 255.83 943.132 255.85C926.27 255.996 909.345 255.935 892.482 255.935L796.868 255.916L744.581 255.895C740.075 255.894 719.55 256.371 715.958 255.225C715.672 253.737 713.104 250.109 712.145 248.584C711.628 238.909 711.998 225.153 711.959 215.192C711.803 189.918 711.833 164.643 712.049 139.369C712.109 124.816 712.083 110.262 711.972 95.7095C711.88 86.9787 711.629 78.2043 711.928 69.4822C712.074 65.2398 714.62 61.8993 716.1 58.1254L716.268 57.6882C720.494 56.5907 750.161 56.639 755.767 56.8782L755.272 56.3231C752.635 53.3077 752.202 52.1764 752.125 48.1665C751.944 38.7718 751.89 29.3205 751.94 19.922C751.97 14.1901 751.232 6.29841 755.834 2.35252L758.005 0Z"/><path fill="#5F5CCB" d="M758.005 0L947.769 0L947.836 0.395929C948.012 3.496 952.129 7.59603 952.185 10.6015C952.466 25.7516 954.212 43.3436 949.65 57.8505C943.012 58.1829 933.68 57.8498 926.764 57.8427L881.122 57.8129L805.65 57.7917C798.792 57.7942 760.92 58.6726 756.902 57.1375L755.767 56.8782L755.272 56.3231C752.635 53.3077 752.202 52.1764 752.125 48.1665C751.944 38.7718 751.89 29.3205 751.94 19.922C751.97 14.1901 751.232 6.29841 755.834 2.35252L758.005 0Z"/><path fill="#393695" d="M755.767 56.8782L755.272 56.3231C752.635 53.3077 752.202 52.1764 752.125 48.1665C751.944 38.7718 751.89 29.3205 751.94 19.922C751.97 14.1901 751.232 6.29841 755.834 2.35252C754.918 3.97808 754.072 5.45751 753.081 7.03831C752.973 17.1239 752.93 27.2101 752.951 37.2963C752.95 41.7124 752.811 46.9241 753.271 51.334C753.382 52.3925 754.763 53.784 755.504 54.5845L756.766 55.9528L756.902 57.1375L755.767 56.8782Z"/><path fill="#5F5CCB" d="M832.021 103.55C846.708 114.174 855.757 117.837 873.271 121.257C873.229 126.45 873.05 131.642 872.733 136.825C871.174 160.031 864.85 182.793 849.418 200.735C844.488 206.467 838.942 211.159 833.265 216.108C832.506 216.612 832.865 216.396 831.784 216.474C829.239 215.219 827.138 213.217 825.109 211.279C796.336 183.804 793.471 158.122 792.483 121.067C808.445 118.198 819.054 112.711 832.021 103.55Z"/><path fill="#46466F" d="M267.517 673.56C268.247 677.532 268.036 684.54 267.928 688.768C270.276 761.398 274.073 834.465 269.483 907.053C269.085 913.361 268.392 928.101 266.638 933.66C262.981 934.89 216.994 935.534 211.594 934.997C204.449 901.212 199.098 863.816 193.373 829.587C188.663 801.43 183.372 768.639 180.37 740.236C173.265 739.825 164.434 739.98 157.308 740.165C155.122 749.818 154.325 761.531 152.624 771.568C146.467 808.535 140.923 845.601 135.996 882.752C134.26 895.557 131.606 921.616 128.712 933.499C127.345 934.831 127.341 934.374 124.79 934.508C117.92 933.123 97.2949 934.697 89.4884 934.326C85.6035 934.142 82.6262 934.913 78.3086 933.872C76.1899 933.436 76.9595 933.939 75.5873 932.739C74.6914 926.511 74.8082 917.302 74.0452 910.578C71.0974 885.961 71.4022 861.252 70.5109 836.6C69.0301 795.647 68.7327 754.805 71.0975 713.867C71.5957 705.242 71.6418 683.494 73.8049 676.023C77.6263 679.209 82.7944 685.781 86.1467 689.855C96.7943 690.001 106.703 690.748 117.134 688.721C129.17 698.654 155.689 718.759 171.836 717.365C185.212 716.211 211.763 698.355 221.967 688.829C226.447 689.108 231.094 689.824 235.617 689.976C242.825 690.22 250.092 690.224 257.308 690.3C258.469 688.498 259.424 686.978 260.77 685.281C263.01 681.346 265.186 677.445 267.517 673.56Z"/><path fill="#797B96" d="M267.517 673.56C268.247 677.532 268.036 684.54 267.928 688.768C267.209 685.837 267.409 678.971 267.423 675.611C265.954 678.314 263.352 684.018 260.77 685.281C263.01 681.346 265.186 677.445 267.517 673.56Z"/><path fill="#EAE9F0" d="M201.648 186.705C206.376 185.956 212.561 182.508 217.854 181.371C242.465 176.087 240.181 191.674 227.893 206.27C238.586 230.324 238.838 240.717 240.91 266.512C242.188 281.638 243.3 296.777 244.246 311.927C244.546 317.068 245.817 332.868 245.47 337.189C245.305 337.978 245.161 338.104 245.307 338.804L245.188 341.219L243.551 340.965C238.962 343.271 131.025 341.534 117.04 342.141C112.337 342.345 102.699 340.571 96.0951 341.461C97.0316 338.23 97.0253 322.517 97.1907 318.147C97.8096 303.366 98.7145 288.503 99.7462 273.749C101.163 253.484 99.9127 225.574 113.469 209.076L113.777 208.856C112.966 208.263 113.142 208.426 112.145 208.096C107.701 203.046 93.0658 188.052 104.718 182.176C112.526 178.238 127.812 182.918 135.816 185.556C141.188 184.414 146.466 182.888 151.843 181.889C171.137 178.307 183.565 181.108 201.648 186.705Z"/><path fill="#46466F" d="M113.469 209.076L114.361 210.016C113.534 213.602 109.791 218.727 108.561 222.706C102.475 242.403 103.858 258.533 115.122 276.061C134.562 306.312 171.498 319.644 202.992 298.737C221.37 286.536 229.967 272.661 234.821 251.453L235.391 251.286C236.032 249.844 235.679 244.349 235.797 242.062L236.457 241.625C237.908 249.92 237.381 259.845 238.105 268.379C239.096 280.074 240.443 291.621 241.473 303.315C242.541 315.444 242.367 329.029 243.551 340.965C238.962 343.271 131.025 341.534 117.04 342.141C112.337 342.345 102.699 340.571 96.0951 341.461C97.0316 338.23 97.0253 322.517 97.1907 318.147C97.8096 303.366 98.7145 288.503 99.7462 273.749C101.163 253.484 99.9127 225.574 113.469 209.076Z"/><path fill="#46466F" d="M135.816 185.556C141.188 184.414 146.466 182.888 151.843 181.889C171.137 178.307 183.565 181.108 201.648 186.705C199.587 187.27 199.017 187.278 196.904 186.958L196.203 187.285C196.401 187.725 196.699 188.454 196.931 188.848C201.036 189.434 203.354 188.315 207.144 186.829C213.906 184.177 219.23 182.764 226.465 182.153C230.71 186.465 230.558 190.155 232.933 195.534C230.989 198.741 228.005 203.663 225.049 206.327C214.63 215.716 201.033 224.211 189.175 231.806C184.437 234.841 176.119 238.228 172.387 242.021C169.694 242.827 168.052 243.367 165.278 242.603C163.012 239.802 155.759 236.199 152.476 234.006C135.073 222.382 112.355 210.68 102.566 191.495C102.622 191.46 102.678 191.426 102.735 191.391C105.999 190.607 108.352 185.785 110.901 182.397C116.754 182.692 121.369 183.826 127.054 185.141C129.547 183.781 135.438 188.806 141.708 186.628L141.288 186.283C139.421 186.614 137.28 186.171 135.362 185.915L135.816 185.556Z"/><path fill="#EAE9F0" d="M135.816 185.556C141.188 184.414 146.466 182.888 151.843 181.889C171.137 178.307 183.565 181.108 201.648 186.705C199.587 187.27 199.017 187.278 196.904 186.958L196.203 187.285C196.401 187.725 196.699 188.454 196.931 188.848C179.221 184.62 161.876 183.501 144.08 187.718C137.784 189.209 132.951 187.127 127.054 185.141C129.547 183.781 135.438 188.806 141.708 186.628L141.288 186.283C139.421 186.614 137.28 186.171 135.362 185.915L135.816 185.556Z"/><path fill="#616287" d="M141.288 186.283C157.585 180.787 173.04 180.861 189.572 185.128C170.653 183.019 160.161 181.908 141.708 186.628L141.288 186.283Z"/><path fill="#2A2951" d="M172.387 242.021C175.239 243.429 178.968 245.3 179.749 248.595C181.592 256.377 179.273 270.4 175.318 277.293C166.257 293.086 158.636 267.811 158.701 260.696C158.771 253.08 157.926 246.211 165.278 242.603C168.052 243.367 169.694 242.827 172.387 242.021Z"/><path fill="#393695" d="M232.182 221.088C233.734 226.274 236.758 236.411 236.457 241.625L235.797 242.062C235.679 244.349 236.032 249.844 235.391 251.286L234.821 251.453C234.962 238.184 234.847 234.453 229.866 222.02L232.182 221.088Z"/><path fill="#616287" d="M226.465 182.153C235.876 183.572 236.605 187.55 232.933 195.534C230.558 190.155 230.71 186.465 226.465 182.153Z"/><path fill="#797B96" d="M102.566 191.495C100.198 185.3 106.035 183.339 110.901 182.397C108.352 185.785 105.999 190.607 102.735 191.391C102.678 191.426 102.622 191.46 102.566 191.495Z"/><path fill="#393695" d="M229.866 222.02C228.632 218.738 226.146 212.732 226.591 209.226C228.634 210.013 231.369 218.705 232.182 221.088L229.866 222.02Z"/><path fill="#000001" d="M190.189 242.712C192.19 242.967 198.205 247.025 199.784 248.424C206.183 254.095 216.595 241.387 219.385 243.583L219.42 244.855C215.345 248.885 211.907 251.262 206.024 252.094C198.959 253.094 191.141 250.64 190.189 242.712Z"/><path fill="#000001" d="M121.249 241.466C123.199 242.139 129.634 247.597 132.424 249.142C140.24 253.471 146.516 242.523 149.642 244.462L149.68 245.429C146.273 249.266 142.334 252.004 137.116 252.395C129.697 252.95 121.628 249.78 121.249 241.466Z"/><path fill="#2A2951" d="M268.358 450.422L268.326 403.301C268.358 384.597 263.848 365.574 288.368 363.313C300.4 375.316 307.905 389.304 315.532 403.83C338.663 447.88 346.632 497.278 345.621 546.627C345.442 555.317 346.126 571.421 343.777 579.785C337.455 602.292 313.258 626.048 297.514 642.718C293.104 647.386 268.536 670.016 267.517 673.56C265.186 677.445 263.01 681.346 260.77 685.281C259.424 686.978 258.469 688.498 257.308 690.3C250.092 690.224 242.825 690.22 235.617 689.976C231.094 689.824 226.447 689.108 221.967 688.829C231.313 679.691 239.847 669.758 247.47 659.14C278.348 615.393 296.148 556.472 303.863 503.853C305.031 495.894 310.865 458.739 307.306 453.959C303.641 452.256 275.552 451.151 268.358 450.422Z"/><path fill="#2A2951" d="M49.0885 361.593C50.0349 362.273 50.991 362.94 51.9565 363.593C58.6578 366.356 66.6732 369.28 69.3756 376.599C73.1798 386.902 71.9991 400.144 71.9549 411.078L71.992 449.998C59.0927 452.698 45.2268 453.001 31.997 453.041C31.0565 471.098 33.3754 486.622 36.0778 504.387C45.2827 564.896 65.1687 631.852 106.988 678.114C110.289 681.726 113.672 685.263 117.134 688.721C106.703 690.748 96.7943 690.001 86.1467 689.855C82.7944 685.781 77.6263 679.209 73.8049 676.023C68.9431 669.58 63.3655 664.047 58.2212 657.9C38.4443 634.267 17.8808 613.559 0 588.338L0 475.163C3.94082 463.291 3.78491 452.007 10.1911 438.045C19.3882 408.703 32.1256 386.686 49.0885 361.593Z"/><path fill="#46466F" d="M49.0885 361.593C50.0349 362.273 50.991 362.94 51.9565 363.593C49.5715 365.429 49.7974 369.256 48.1016 371.287C35.1101 386.85 27.8679 405.797 19.6694 424.112C18.9685 425.678 17.8527 432.282 16.1098 432.493C15.4143 424.775 23.0522 414.706 21.8683 412.318C18.2951 418.024 13.6416 434.92 10.1911 438.045C19.3882 408.703 32.1256 386.686 49.0885 361.593Z"/><path fill="#2A2951" d="M266.638 933.66C267.898 933.593 269.776 933.439 270.983 933.456C273.714 933.609 273.871 933.189 275.864 934.444C279.167 941.19 276.147 939.885 282.607 945.138C282.377 949.42 279.878 949.277 275.837 949.122C275.251 948.624 275.097 948.548 274.615 947.953L274.079 948.204C274.076 956.217 273.096 974.195 274.886 981.358C281.461 987.93 292.595 990.397 300.097 995.822C304.99 999.361 316.177 1007.35 313.355 1014.19C307.482 1015.56 285.251 1014.58 278.127 1014.56L240.838 1014.49C234.028 1014.48 227.238 1014.54 220.431 1014.28C215.984 1014.28 214.469 1010.97 214.076 1006.94C213.426 1000.29 213.327 993.344 212.996 986.636C212.547 975.214 211.692 963.813 210.431 952.452L202.054 952.619C201.482 941.049 198.405 937.504 211.594 934.997C216.994 935.534 262.981 934.89 266.638 933.66Z"/><path fill="#46466F" d="M274.079 948.204C267.678 948.823 253.535 948.427 246.598 948.484C239.357 948.544 223.175 948.962 216.701 948.043C218.603 947.241 228.319 947.18 230.949 947.161C245.198 947.057 259.523 946.651 273.759 947.205C274.044 947.454 274.33 947.703 274.615 947.953L274.079 948.204Z"/><path fill="#2A2951" d="M78.3086 933.872C82.6262 934.913 85.6035 934.142 89.4884 934.326C97.2949 934.697 117.92 933.123 124.79 934.508L124.95 935.138C128.809 935.444 132.313 935.252 135.487 937.272C137.119 940.162 134.778 946.791 134.207 951.494L125.23 951.515C123.895 969.095 124.82 986.969 124.156 1004.59C124.154 1006.03 123.984 1012.37 123.023 1013.34C121.186 1015.2 109.901 1014.97 107.803 1014.96C84.498 1014.8 61.1742 1015.04 37.8716 1014.79C35.8642 1014.77 32.3828 1014.26 30.8213 1013.08C29.0447 1011.73 31.2448 1007.34 32.0314 1006.04C39.5537 993.603 57.812 993.563 66.4942 983.046C72.6612 975.576 70.6404 958.279 69.3233 949.463L59.9142 949.232C59.9097 944.141 60.02 939.049 60.245 933.963C66.2873 934.448 71.9873 934.454 78.0394 934.515L78.3086 933.872Z"/><path fill="#616287" d="M78.3086 933.872C82.6262 934.913 85.6035 934.142 89.4884 934.326C97.2949 934.697 117.92 933.123 124.79 934.508L124.95 935.138C112.22 934.725 99.3538 935.211 86.6092 935.047C83.5855 935.008 81.0351 935.14 78.0394 934.515L78.3086 933.872Z"/><path fill="#EAE9F0" d="M245.47 337.189C278.014 345.803 294.074 362.026 310.525 390.246C338.234 437.78 347.266 489.856 347.18 544.25C347.161 556.289 348.083 569.478 345.059 581.191C337.719 609.614 290.405 651.386 269.111 672.438C270.447 729.023 273.469 784.493 273.422 841.314C273.617 864.234 272.825 887.152 271.049 910.005C270.489 916.948 269.974 925.332 268.983 932.093C273.48 932.011 278.543 931.802 282.996 931.887C283.529 937.608 284.312 944.116 284.264 949.798L275.931 950.947C275.942 956.656 274.259 978.89 278.267 981.977C289.786 990.849 312.575 995.772 315.736 1012.58C316.789 1018.19 296.454 1016.54 292.666 1016.52L262.788 1016.52L234.9 1016.58C209.662 1016.63 212.771 1015.68 211.438 991.079C210.807 979.44 210.569 965.354 209.116 953.911C206.329 954.121 203.304 954.411 200.536 954.549C199.921 941.724 195.977 937.828 209.802 933.854C205.58 916.828 202.145 892.869 199.155 875.207C194.704 849.443 190.508 823.637 186.566 797.791C183.833 779.162 181.64 760.471 179.029 741.861C172.102 741.633 165.171 741.527 158.24 741.541C152.683 776.861 147.456 812.232 142.558 847.649C138.688 875.881 135.091 906.309 130.191 934.23C134.456 934.689 139.04 934.517 137.81 940.153C137.169 943.091 136.393 950.812 133.982 952.65C131.456 953.242 129.396 953.03 126.802 952.966C125.497 971.814 126.577 990.928 125.697 1009.79C125.615 1011.54 125.011 1013.68 123.867 1015.04C119.575 1017.16 113.72 1016.96 108.981 1016.97C85.4411 1017.04 61.8724 1016.98 38.3351 1017.12C31.6245 1017.16 25.8361 1013.47 29.4517 1006.38C36.7579 992.051 60.0933 992.951 67.3853 978.716C70.2844 972.437 69.0157 958.026 68.2567 950.927C64.4562 950.919 61.9648 950.977 58.2358 950.378C58.3458 945.45 58.3162 936.987 58.8648 932.441C63.6133 932.614 69.0109 933.06 73.6399 933.035C73.338 919.541 71.809 906.222 71.0237 892.791C69.409 865.177 68.3454 836.766 68.0098 809.128C67.5283 776.693 68.0711 744.252 69.6372 711.851C70.0935 700.051 71.3891 686.882 71.5975 675.424C56.6485 658.971 42.928 641.748 27.8483 625.423C17.7267 614.465 8.80567 603.122 0 591.087L0 588.338C17.8808 613.559 38.4443 634.267 58.2212 657.9C63.3655 664.047 68.9431 669.58 73.8049 676.023C71.6418 683.494 71.5957 705.242 71.0975 713.867C68.7327 754.805 69.0301 795.647 70.5109 836.6C71.4022 861.252 71.0974 885.961 74.0452 910.578C74.8082 917.302 74.6914 926.511 75.5873 932.739C76.9595 933.939 76.1899 933.436 78.3086 933.872L78.0394 934.515C71.9873 934.454 66.2873 934.448 60.245 933.963C60.02 939.049 59.9097 944.141 59.9142 949.232L69.3233 949.463C70.6404 958.279 72.6612 975.576 66.4942 983.046C57.812 993.563 39.5537 993.603 32.0314 1006.04C31.2448 1007.34 29.0447 1011.73 30.8213 1013.08C32.3828 1014.26 35.8642 1014.77 37.8716 1014.79C61.1742 1015.04 84.498 1014.8 107.803 1014.96C109.901 1014.97 121.186 1015.2 123.023 1013.34C123.984 1012.37 124.154 1006.03 124.156 1004.59C124.82 986.969 123.895 969.095 125.23 951.515L134.207 951.494C134.778 946.791 137.119 940.162 135.487 937.272C132.313 935.252 128.809 935.444 124.95 935.138L124.79 934.508C127.341 934.374 127.345 934.831 128.712 933.499C131.606 921.616 134.26 895.557 135.996 882.752C140.923 845.601 146.467 808.535 152.624 771.568C154.325 761.531 155.122 749.818 157.308 740.165C164.434 739.98 173.265 739.825 180.37 740.236C183.372 768.639 188.663 801.43 193.373 829.587C199.098 863.816 204.449 901.212 211.594 934.997C198.405 937.504 201.482 941.049 202.054 952.619L210.431 952.452C211.692 963.813 212.547 975.214 212.996 986.636C213.327 993.344 213.426 1000.29 214.076 1006.94C214.469 1010.97 215.984 1014.28 220.431 1014.28C227.238 1014.54 234.028 1014.48 240.838 1014.49L278.127 1014.56C285.251 1014.58 307.482 1015.56 313.355 1014.19C316.177 1007.35 304.99 999.361 300.097 995.822C292.595 990.397 281.461 987.93 274.886 981.358C273.096 974.195 274.076 956.217 274.079 948.204L274.615 947.953C275.097 948.548 275.251 948.624 275.837 949.122C279.878 949.277 282.377 949.42 282.607 945.138C276.147 939.885 279.167 941.19 275.864 934.444C273.871 933.189 273.714 933.609 270.983 933.456C269.776 933.439 267.898 933.593 266.638 933.66C268.392 928.101 269.085 913.361 269.483 907.053C274.073 834.465 270.276 761.398 267.928 688.768C268.036 684.54 268.247 677.532 267.517 673.56C268.536 670.016 293.104 647.386 297.514 642.718C313.258 626.048 337.455 602.292 343.777 579.785C346.126 571.421 345.442 555.317 345.621 546.627C346.632 497.278 338.663 447.88 315.532 403.83C307.905 389.304 300.4 375.316 288.368 363.313C263.848 365.574 268.358 384.597 268.326 403.301L268.358 450.422C266.923 450.234 266.871 450.332 265.66 449.601C265.041 444.99 265.468 432.853 265.367 427.261C265.411 417.643 265.361 408.025 265.217 398.408C265.163 392.121 264.784 383.851 265.907 377.827C267.505 369.249 269.712 367.909 276.374 363.323C277.752 361.708 277.506 362.564 277.672 360.84C266.478 348.797 262.516 345.101 245.188 341.219L245.307 338.804C245.161 338.104 245.305 337.978 245.47 337.189Z"/><path fill="#46466F" d="M245.307 338.804C249.409 340.41 253.733 341.585 257.918 343.105C268.951 347.11 277.263 352.86 285.844 360.768C281.8 361.504 280.168 361.775 276.374 363.323C277.752 361.708 277.506 362.564 277.672 360.84C266.478 348.797 262.516 345.101 245.188 341.219L245.307 338.804Z"/><path fill="#616287" d="M270.983 933.456C274.78 932.918 277.92 933.035 281.745 933.066L282.607 945.138C276.147 939.885 279.167 941.19 275.864 934.444C273.871 933.189 273.714 933.609 270.983 933.456Z"/><path fill="#EAE9F0" d="M112.145 208.096C113.142 208.426 112.966 208.263 113.777 208.856L113.469 209.076C99.9127 225.574 101.163 253.484 99.7462 273.749C98.7145 288.503 97.8096 303.366 97.1907 318.147C97.0253 322.517 97.0316 338.23 96.0951 341.461C95.1265 340.608 95.2057 341.029 95.1392 340.17C93.9885 339.478 91.6389 340.175 90.1914 340.591C76.2896 344.594 61.7298 350.234 50.974 360.052C67.0202 367.866 73.7387 369.709 74.6432 389.246L74.6575 430.479C74.6591 433.462 74.9094 446.929 74.3162 449.238C73.216 449.676 73.1369 449.749 71.992 449.998L71.9549 411.078C71.9991 400.144 73.1798 386.902 69.3756 376.599C66.6732 369.28 58.6578 366.356 51.9565 363.593C50.991 362.94 50.0349 362.273 49.0885 361.593C32.1256 386.686 19.3882 408.703 10.1911 438.045C3.78491 452.007 3.94082 463.291 0 475.163L0 467.612C1.82051 462.167 3.15127 454.678 5.06726 448.547C11.3886 427.987 19.6578 408.077 29.7624 389.088C48.8384 353.941 55.0762 349.607 94.9257 337.809C94.8797 317.154 96.3833 296.626 97.6562 275.99C98.7819 260.703 98.6618 245.199 102.044 230.176C103.968 221.631 107.326 215.282 112.145 208.096Z"/><path fill="#EAE9F0" d="M716.268 57.6882L716.1 58.1254C714.62 61.8993 712.074 65.2398 711.928 69.4822C711.629 78.2043 711.88 86.9787 711.972 95.7095C712.083 110.262 712.109 124.816 712.049 139.369C711.833 164.643 711.803 189.918 711.959 215.192C711.998 225.153 711.628 238.909 712.145 248.584C713.104 250.109 715.672 253.737 715.958 255.225C710.874 252.987 710.361 249.053 710.323 244.012C710.246 233.894 710.334 223.772 710.368 213.653L710.381 159.542L710.334 99.386C710.348 88.9426 710.316 78.4882 710.509 68.0485C710.597 63.2623 711.654 59.7015 716.268 57.6882Z"/><path fill="#EAE9F0" d="M947.836 0.395929C957.131 5.08272 955.325 48.769 950.888 57.1075L950.638 57.5704C952.611 60.4554 953.288 61.7812 953.559 65.2833C953.253 70.0283 953.291 76.3532 953.143 81.288C953.205 70.299 953.087 68.3298 949.65 57.8505C954.212 43.3436 952.466 25.7516 952.185 10.6015C952.129 7.59603 948.012 3.496 947.836 0.395929Z"/><path fill="#EAE9F0" d="M948.98 254.348C948.891 251.786 951.565 250.884 951.953 246.284C952.651 238.003 951.178 199.883 952.92 194.383L953.927 193.953L954.002 227.11C954.013 234.706 955.78 249.721 948.98 254.348Z"/><path fill="#AFB1CC" d="M777.956 691.927C784.086 689.749 920.747 691.45 935.775 691.488C938.06 691.494 942.902 692.718 944.989 693.802C948.523 695.636 952.59 700.871 953.356 704.79C954.66 711.458 954.078 720.706 954.069 727.56L953.944 773.09L954.261 931.639C954.26 936.506 954.768 941.094 951.964 945.178L950.443 946.541C949.107 947.457 947.27 948.725 945.652 948.86C937.045 949.582 927.387 949.254 918.763 949.225L864.955 949.14L768.979 949.107C752.581 949.123 735.969 949.31 719.567 949.083C716.573 949.041 715.741 948.481 713.359 946.699C712.337 945.917 711.852 945.102 711.099 944.066C708.758 940.828 709.493 932.495 709.586 928.259C709.239 916.814 709.569 903.816 709.61 892.207L709.666 825.543C709.667 812.292 709.598 799.042 709.46 785.792C709.37 776.853 706.529 755.919 716.092 751.354C723.594 747.771 757.029 752.574 761.813 748.946C761.097 742.193 761.55 733.856 761.601 726.974C761.706 712.971 758.241 693.341 777.956 691.927Z"/><path fill="#5F5CCB" d="M777.956 691.927C784.086 689.749 920.747 691.45 935.775 691.488C938.06 691.494 942.902 692.718 944.989 693.802C948.523 695.636 952.59 700.871 953.356 704.79C954.66 711.458 954.078 720.706 954.069 727.56L953.944 773.09L954.261 931.639C954.26 936.506 954.768 941.094 951.964 945.178C950.794 945.347 951.219 945.397 950.094 945.005C948.863 942.418 950.027 933.074 950.412 929.984C949.636 921.631 950.774 901.035 950.785 891.125L950.751 801.599C950.782 785.554 950.856 769.689 951.982 753.663C952.044 752.777 952.865 751.405 953.341 750.645C929.178 750.362 896.832 749.746 873.166 749.709C860.917 749.691 766.302 750.786 762.882 748.956L761.813 748.946C761.097 742.193 761.55 733.856 761.601 726.974C761.706 712.971 758.241 693.341 777.956 691.927Z"/><path fill="#A2A4BB" d="M777.956 691.927C784.086 689.749 920.747 691.45 935.775 691.488C938.06 691.494 942.902 692.718 944.989 693.802C948.523 695.636 952.59 700.871 953.356 704.79C954.66 711.458 954.078 720.706 954.069 727.56L953.944 773.09L954.261 931.639C954.26 936.506 954.768 941.094 951.964 945.178C950.794 945.347 951.219 945.397 950.094 945.005C948.863 942.418 950.027 933.074 950.412 929.984C949.636 921.631 950.774 901.035 950.785 891.125L950.751 801.599C950.782 785.554 950.856 769.689 951.982 753.663C952.044 752.777 952.865 751.405 953.341 750.645C952.822 739.297 955.362 709.389 950.39 700.883C948.379 697.442 944.875 694.886 941.054 693.834C935.485 692.3 928.273 693.016 922.498 693.014C903.845 693.005 885.21 693.702 866.56 693.814C859.249 693.858 850.369 694.801 843.291 693.138C846.393 692.541 849.592 693.035 852.596 692.85C860.012 692.394 873.118 693.437 879.981 692.559C867.517 691.637 851.752 692.309 839.251 692.8C817.148 693.667 797.076 693.999 774.966 693.536L777.489 692.853L777.956 691.927Z"/><path fill="#888993" d="M950.412 929.984C952.677 926.497 951.561 881.65 952.565 873.556L952.817 873.673C953.614 888.182 952.366 903.804 953.664 918.525C954.001 922.34 953.768 928.085 954.261 931.639C954.26 936.506 954.768 941.094 951.964 945.178C950.794 945.347 951.219 945.397 950.094 945.005C948.863 942.418 950.027 933.074 950.412 929.984Z"/><path fill="#EAE9F0" d="M777.956 691.927L777.489 692.853L774.966 693.536C770.933 694.988 765.939 697.705 764.626 701.83C760.657 714.3 764.521 736.136 762.882 748.956L761.813 748.946C761.097 742.193 761.55 733.856 761.601 726.974C761.706 712.971 758.241 693.341 777.956 691.927Z"/><path fill="#EAE9F0" d="M713.359 946.699C724.457 948.51 736.668 947.842 748 947.97L836.166 948.119L909.998 948.155C921.168 948.158 932.341 948.176 943.51 948.173C945.778 948.172 948.05 946.689 950.443 946.541C949.107 947.457 947.27 948.725 945.652 948.86C937.045 949.582 927.387 949.254 918.763 949.225L864.955 949.14L768.979 949.107C752.581 949.123 735.969 949.31 719.567 949.083C716.573 949.041 715.741 948.481 713.359 946.699Z"/><path fill="#C6C9DE" d="M709.586 928.259L709.654 927.628C710.288 921.246 709.64 913.017 710.241 907.486C710.366 916.186 710.501 924.887 710.669 933.584C710.7 935.231 711.191 943.269 711.099 944.066C708.758 940.828 709.493 932.495 709.586 928.259Z"/><path fill="#C6C9DE" d="M783.302 839.711C804.592 839.194 826.031 839.597 847.338 839.5C860.334 839.441 873.425 839.551 886.4 840.172C890.339 840.36 892.605 842.223 893.07 846.14C893.479 852.631 887.177 852.712 882.442 852.992L811.719 852.758C801.959 852.709 792.192 853.016 782.434 852.75C779.626 852.73 772.891 852.09 772.491 848.22C771.708 840.639 778.461 839.988 783.302 839.711Z"/><path fill="#C6C9DE" d="M783.307 878.207L844.581 878.368C855.813 878.372 867.248 878.275 878.476 878.501C879.845 878.645 882.095 878.66 883.14 879.726C887.126 883.793 884.835 890.521 879.124 890.989C870.652 891.46 783.144 891.791 779.684 890.05C778.26 889.333 777.119 887.538 776.798 886.016C776.375 884.011 777.212 882.44 778.324 880.831C779.676 878.873 781.099 878.589 783.307 878.207Z"/><path fill="#C6C9DE" d="M810.899 802.028C823.307 801.532 836.637 802.878 849.172 802.488C857.84 802.219 862.953 813.047 851.68 816.485C843.071 816.844 834.875 816.829 825.853 816.697C820.75 816.622 802.659 818.507 804.954 808.396C805.63 805.416 808.172 803.368 810.899 802.028Z"/><path fill="#A2A4BB" d="M460.449 400.667C462.085 390.031 457.615 358.326 463.78 351.629C465.9 349.326 468.829 347.697 471.977 347.564C480.926 347.187 490.026 347.539 498.994 347.534L562.193 347.692L610.933 347.616C619.882 347.609 628.764 347.76 637.701 347.866C654.378 348.064 651.164 363.971 651.087 376.332C651.647 385.078 651.411 396.298 651.451 405.316L651.58 462.418C651.813 487.833 651.887 513.249 651.802 538.664C651.832 550.308 652.396 565.49 651.97 576.845C651.96 582.427 652.794 600.06 651.093 604C646.134 612.405 634.542 613.949 626.025 612.944C608.555 610.884 529.372 616.619 516.66 610.672C484.687 607.938 450.536 606.803 418.604 602.749C417.381 602.593 415.023 599.636 414.131 598.603C413.251 583.065 413.735 564.589 413.692 548.749C413.626 518.993 414.587 487.415 413.931 457.816C413.097 462.554 413.289 474.499 413.276 479.59C412.573 462.379 411.437 445.51 412.126 428.229C412.342 422.81 411.898 417.136 412.882 411.795C413.39 409.041 416.62 407.299 418.763 405.962C434.412 406.167 442.894 407.707 459.267 405.29C459.494 403.889 460.06 402.061 460.449 400.667Z"/><path fill="#5F5CCB" d="M460.449 400.667C462.085 390.031 457.615 358.326 463.78 351.629C465.9 349.326 468.829 347.697 471.977 347.564C480.926 347.187 490.026 347.539 498.994 347.534L562.193 347.692L610.933 347.616C619.882 347.609 628.764 347.76 637.701 347.866C654.378 348.064 651.164 363.971 651.087 376.332C650.607 384.623 651.659 401.638 650.556 408.66C649.614 405.84 650.116 398.371 649.966 395.127C649.465 384.319 650.874 368.45 649.618 357.938C649.34 372.741 649.126 392.76 649.648 407.543L534.094 407.176C509.199 407.013 484.448 406.326 459.552 406.868C460.131 406.456 460.199 406.147 460.625 405.48L460.449 400.667Z"/><path fill="#EAE9F0" d="M460.449 400.667C462.085 390.031 457.615 358.326 463.78 351.629C465.9 349.326 468.829 347.697 471.977 347.564C480.926 347.187 490.026 347.539 498.994 347.534L562.193 347.692L610.933 347.616C619.882 347.609 628.764 347.76 637.701 347.866C654.378 348.064 651.164 363.971 651.087 376.332C650.607 384.623 651.659 401.638 650.556 408.66C649.614 405.84 650.116 398.371 649.966 395.127C649.465 384.319 650.874 368.45 649.618 357.938C649.036 354.522 648.055 353.272 645.343 350.951C643.119 349.047 638.573 349.367 635.726 349.047C623.149 348.935 610.423 349.009 597.827 349.03L530.009 348.973L489.821 348.957C483.218 348.961 468.522 347.245 464.562 352.589C458.459 360.824 464.682 399.903 460.625 405.48L460.449 400.667Z"/><path fill="#797B96" d="M650.236 603.842L651.093 604C646.134 612.405 634.542 613.949 626.025 612.944C608.555 610.884 529.372 616.619 516.66 610.672L517.525 610.243C516.414 609.321 461.563 605.27 455.249 605.342L454.673 605.354C455.401 604.572 473.453 605.951 476.694 605.146C534.451 610.232 592.562 609.795 650.236 603.842Z"/><path fill="#888993" d="M413.692 548.749C414.54 564.516 413.499 580.489 414.7 596.257C414.819 597.816 416.34 599.645 417.394 600.722C419.21 602.578 423.615 603.632 426.04 602.562C424.84 601.374 422.302 603.384 419.556 601.349L419.761 600.841C437.503 603.498 458.49 604.039 476.694 605.146C473.453 605.951 455.401 604.572 454.673 605.354L455.249 605.342C461.563 605.27 516.414 609.321 517.525 610.243L516.66 610.672C484.687 607.938 450.536 606.803 418.604 602.749C417.381 602.593 415.023 599.636 414.131 598.603C413.251 583.065 413.735 564.589 413.692 548.749Z"/><path fill="#393695" d="M459.267 405.29C459.494 403.889 460.06 402.061 460.449 400.667L460.625 405.48C460.199 406.147 460.131 406.456 459.552 406.868C450.055 407.638 439.294 407.702 429.795 407.579C410.413 407.328 413.883 414.668 413.978 429.773C414.018 439.12 414.002 448.468 413.931 457.816C413.097 462.554 413.289 474.499 413.276 479.59C412.573 462.379 411.437 445.51 412.126 428.229C412.342 422.81 411.898 417.136 412.882 411.795C413.39 409.041 416.62 407.299 418.763 405.962C434.412 406.167 442.894 407.707 459.267 405.29Z"/><path fill="#EAE9F0" d="M650.236 603.842C650.8 598.268 650.191 580.507 651.328 576.475L651.97 576.845C651.96 582.427 652.794 600.06 651.093 604L650.236 603.842Z"/><path fill="#C6C9DE" d="M504.002 496.75C514.735 496.344 588.292 495.302 592.599 498.644C593.827 499.597 594.519 501.054 594.729 502.57C594.994 504.479 594.545 506.813 593.126 508.211C589.28 511.999 564.005 510.102 557.125 510.05L501.097 509.964C491.817 509.948 481.998 510.562 472.768 509.689C470.733 509.496 469.028 509.155 467.364 507.924C465.85 506.803 464.675 505.142 464.596 503.206C464.544 501.928 465.092 500.616 465.977 499.702C469.837 495.721 497.105 496.848 504.002 496.75Z"/><path fill="#C6C9DE" d="M477.864 535.566C500.258 534.748 524.381 535.861 547.023 535.447C558.696 535.798 571.108 534.76 582.655 536.053C588.198 536.674 589.757 543.553 583.506 547.067C579.085 547.735 570.769 547.496 566.073 547.496L536.232 547.487L500.028 547.472C493.516 547.467 487.034 547.573 480.498 547.229C476.967 547.043 473.664 544.648 474.228 540.669C474.595 538.085 475.783 537.014 477.864 535.566Z"/><path fill="#C6C9DE" d="M530.445 460.287C534.928 459.983 552.975 459.22 555.464 462.729C565.334 476.64 536.704 473.682 529.588 473.753C522.551 473.79 497.664 476.265 505.443 462.762C507.34 459.469 526.083 460.35 530.445 460.287Z"/><path fill="#EAE9F0" d="M536.051 622.49L608.261 622.529C619.728 622.523 632.008 622.129 643.441 623.235C645.55 623.439 647.995 625.746 649.239 627.408C650.47 629.935 651.281 631.241 651.299 634.047C651.474 660.895 651.443 687.827 651.449 714.677L651.261 890L651.261 979.043C651.255 983.433 651.241 987.854 651.252 992.247C651.261 996.446 653.193 1010.52 645.092 1008.54C642.374 1005.76 643.273 990.032 643.289 985.479L643.381 948.444C607.92 948.25 572.458 948.261 536.997 948.477L537.055 983.918C537.084 989.863 537.384 997.194 536.972 1003.04C536.443 1010.52 528.497 1009.75 528.689 1000.45C528.867 991.822 528.85 982.771 528.85 974.119L528.935 907.23L528.879 704.387L528.959 660.197C528.974 655.219 529.341 643.257 528.903 639.161C531.772 637.823 532.866 636.922 535.758 637.677C536.917 639.184 536.569 639.014 536.904 641.17C536.943 637.677 536.688 633.428 536.559 629.89C536.117 626.751 536.05 625.612 536.051 622.49Z"/><path fill="#5F5CCB" d="M536.051 622.49L608.261 622.529C619.728 622.523 632.008 622.129 643.441 623.235C645.55 623.439 647.995 625.746 649.239 627.408C647.345 628.542 643.959 630.099 643.357 632.001C643.92 638.326 643.593 649.528 643.581 656.144L643.54 704.06L536.89 704.141L536.897 662.298C536.893 655.961 536.628 647.333 536.904 641.17C536.943 637.677 536.688 633.428 536.559 629.89C536.117 626.751 536.05 625.612 536.051 622.49Z"/><path fill="#A2A4BB" d="M536.051 622.49L608.261 622.529C619.728 622.523 632.008 622.129 643.441 623.235C645.55 623.439 647.995 625.746 649.239 627.408C647.345 628.542 643.959 630.099 643.357 632.001C642.344 631.029 641.127 629.717 639.718 629.72C629.985 629.741 619.902 629.9 610.192 629.89L536.559 629.89C536.117 626.751 536.05 625.612 536.051 622.49Z"/><path fill="#5F5CCB" d="M537.022 789.63L643.429 789.597L643.196 862.321C607.804 862.055 572.41 861.968 537.017 862.061L537.022 789.63Z"/><path fill="#5F5CCB" d="M537.102 868.994L643.439 869.008L643.191 941.504C607.815 941.139 572.436 941.016 537.058 941.134L537.102 868.994Z"/><path fill="#5F5CCB" d="M536.973 711.043L643.494 710.928L643.336 783.023L537.002 782.903L536.973 711.043Z"/><defs><linearGradient id="gradient_0" gradientUnits="userSpaceOnUse" x1="859.06091" y1="473.30933" x2="803.4223" y2="480.13144"><stop offset="0" stop-color="#BDBFBC"/><stop offset="1" stop-color="#CCC8D5"/></linearGradient></defs><path fill="url(#gradient_0)" d="M826.577 371.152C827.106 363.014 826.901 352.542 826.928 344.278L826.996 298.621C826.994 290.846 826.835 283.071 827.056 275.292C827.147 272.081 828.133 269.516 831.983 269.845C835.397 270.137 836.044 275.012 836.016 277.692C835.95 284.167 835.701 290.599 835.772 297.093L835.965 389.972L836.002 602.507L835.979 648.249C835.964 652.728 835.615 666.859 836.081 670.781L836.609 670.209L836.546 669.746L836.818 669.535C837.254 674.586 838.897 683.43 831.901 685.111C831.219 684.635 830.518 684.149 829.909 683.58C824.749 678.753 826.661 649.408 826.439 641.355L825.936 643.72L825.735 643.526C825.234 628.931 825.45 613.097 825.436 598.435L825.407 525.485L825.761 278.903L826.323 331.095C826.345 342.94 825.839 359.677 826.577 371.152Z"/><path fill="#393695" d="M826.439 641.355L825.936 643.72L825.735 643.526C825.234 628.931 825.45 613.097 825.436 598.435L825.407 525.485L825.761 278.903L826.323 331.095C826.345 342.94 825.839 359.677 826.577 371.152L826.47 546.489C826.482 577.035 827.217 610.979 826.439 641.355Z"/><path fill="#393695" d="M836.081 670.781L836.609 670.209L836.546 669.746L836.818 669.535C837.254 674.586 838.897 683.43 831.901 685.111C836.395 680.013 835.937 677.501 836.081 670.781Z"/><path fill="#EAE9F0" d="M531.713 148.523C585.255 147.461 639.394 149.274 693.001 148.52C700.22 148.419 699.442 156.391 694.919 156.429C689.405 156.475 683.482 156.413 677.937 156.39L646.161 156.402L536.836 156.625L536.894 177.749L536.949 283.122C536.872 292.449 536.853 301.776 536.892 311.102C536.933 317.342 537.952 329.113 535.519 335.123C535.064 336.247 534.003 336.433 532.923 336.648C530.37 335.847 529.073 334.319 529.035 331.631C528.882 321.027 528.947 310.41 528.951 299.804L528.966 236.213L528.848 182.744C528.802 173.151 528.679 163.347 528.826 153.744C528.869 150.957 529.66 150.279 531.713 148.523Z"/><path fill="#797B96" d="M528.903 639.161C528.369 635.102 527.43 626.868 530.287 623.764C531.795 622.127 534.033 622.424 536.051 622.49C536.05 625.612 536.117 626.751 536.559 629.89C536.688 633.428 536.943 637.677 536.904 641.17C536.569 639.014 536.917 639.184 535.758 637.677C532.866 636.922 531.772 637.823 528.903 639.161Z"/></svg>